<?xml version="1.0" encoding="utf-8"?>
<!-- Generator: Adobe Illustrator 28.2.0, SVG Export Plug-In . SVG Version: 6.00 Build 0)  -->
<svg version="1.1" id="Ñëîé_1" xmlns="http://www.w3.org/2000/svg" xmlns:xlink="http://www.w3.org/1999/xlink" x="0px" y="0px"
	 viewBox="0 0 7000 2500" style="enable-background:new 0 0 7000 2500;" xml:space="preserve">
<style type="text/css">
	.st0{fill:#CAE7F5;}
	.st1{fill:#AFDDEF;}
	.st2{fill:#A4D6FF;}
	.st3{fill:#89C9F4;}
	.st4{fill:#7EBBED;}
	.st5{fill:#97D0F7;}
	.st6{fill:#8C8CF4;}
	.st7{fill:#7F7FE5;}
	.st8{fill:#3E52C6;}
	.st9{fill:#3845B8;}
	.st10{fill:#4F68D3;}
	.st11{fill:#CDEAF7;}
	.st12{fill:#DEF4FC;}
	.st13{fill:#FFD147;}
	.st14{fill:#FCC230;}
	.st15{fill:#38386B;}
	.st16{fill:#121251;}
	.st17{fill:#08083D;}
	.st18{fill:#F4B019;}
	.st19{fill:#303954;}
	.st20{fill:#95C7EF;}
	.st21{fill:#A2D3F4;}
	.st22{fill:#81B1EA;}
	.st23{fill:#47477F;}
	.st24{fill:#EF584D;}
	.st25{fill:#ED9200;}
	.st26{fill:#252551;}
	.st27{fill:#FFE876;}
	.st28{fill:#27276D;}
	.st29{fill:#FFEB8A;}
	.st30{fill:#FF613B;}
	.st31{fill:#F3FCFF;}
	.st32{fill:#F25130;}
	.st33{fill:#FF885F;}
	.st34{fill:#D86A50;}
	.st35{fill:#1C1C70;}
	.st36{fill:#E4F5F9;}
	.st37{fill:#9BDFDD;}
	.st38{fill:#FFFFFF;}
	.st39{opacity:0.25;fill:#FFFFFF;}
	.st40{opacity:0.1;fill:#79B5CC;}
	.st41{fill:#1BA6CC;}
	.st42{fill:#1C2546;}
	.st43{fill:#EB8E6C;}
	.st44{fill:#F7BF41;}
	.st45{fill:#EAAD34;}
	.st46{fill:#F8F8FF;}
	.st47{fill:#EDEDF9;}
	.st48{fill:#DF7C5D;}
	.st49{fill:#C36252;}
	.st50{fill:#49302A;}
	.st51{fill:#DD8064;}
	.st52{fill:#474B4C;}
	.st53{fill:#092226;}
	.st54{fill:#97BFFF;}
	.st55{fill:#E89F1F;}
	.st56{fill:#EFB135;}
	.st57{fill:#F5F9FF;}
	.st58{fill:#E4EDF9;}
	.st59{fill:#52B2E8;}
	.st60{fill:#5ECAEF;}
	.st61{fill:#425770;}
	.st62{fill:#2D405B;}
	.st63{fill:#56BFEE;}
	.st64{fill:#6CD5FF;}
	.st65{fill:#F4B925;}
	.st66{fill:#FFD655;}
	.st67{opacity:0.08;fill:#0D60BA;}
	.st68{opacity:0.44;fill:#FFFFFF;}
	.st69{fill:#FFF097;}
	.st70{fill:#0D60BA;}
	.st71{fill:#0D4F9E;}
	.st72{fill:#F7C331;}
	.st73{fill:#FFE473;}
	.st74{fill:#F7C639;}
	.st75{fill:#364151;}
	.st76{fill:#0D57A0;}
	.st77{fill:#1773C6;}
	.st78{fill:#1778C1;}
</style>
<rect x="0" class="st0" width="7000" height="2500"/>
<g>
	<ellipse class="st1" cx="3500.81" cy="1998.59" rx="3067.73" ry="154.42"/>
	<path class="st2" d="M5021.85,893.41c-70.24,0-130.61,37.18-157.18,90.41V836.05h-0.05l-166.56-132.41l-146.52,116.47v-47.22
		V583.42H4433.1v189.47h-143.68v-172.5l-166.57-132.41l-166.56,132.41v293.02h-226.96V734.86h-211.9v-78.61h-0.86
		c0.01-0.49,0.02-0.99,0.02-1.48c0-53.48-53.09-96.84-118.59-96.84c-65.49,0-118.59,43.36-118.59,96.84c0,0.5,0.01,0.99,0.02,1.48
		h-2.33v207.06h-137.2l-150.28-132.41l-150.28,132.41h-3.42v178.94h-107.94v-68.81h-248.81v-261.9h-3.13l-145.2-158.31
		l-145.2,158.31v126.44L2013.12,697.8L1818.3,856.11h-10.06v1069.61h409.78h261.17v-1.42h218.31h30.5h529.07h1931.52v-915.64
		C5170.27,942.51,5102.57,893.41,5021.85,893.41z"/>
	<g>
		<path class="st2" d="M6539.5,1722.67c-35.89,33.51-61.3,87.5-62.63,86.69c-0.85-0.52,22.63-45.52,41.51-95.4
			c36.91-97.5,28.43-140.1,24.88-153.99c-2.25-8.77-10.23-39.95-27.16-41.5c-14.52-1.33-32.15,18.17-43.57,44.41
			c-41.52,95.39-55.85,214.04-68.55,208.45c0,0,26.8-141.28,10.82-211.82c-7.35-32.47-34.85-80.17-62.16-75.21
			c-14.94,2.71-25.98,20.75-30.47,28.08c-13,21.23-15.29,43.83-15.52,82.81c-0.36,63.25,11.78,131.6,8.14,132.83
			c-3.68,1.25-12.01-69.58-42.19-92.36c-14.03-10.59-37.72-18.09-54.26-5.73c-19.88,14.86-20.52,51.76-20.78,91.36
			c-0.24,37.07-0.05,91.24,26.01,152.01c18.22,42.49,40.44,94.31,87.63,112.86c94.75,37.24,204.44-93.37,223.64-116.24
			c17.73-21.11,82.55-98.31,65.34-148.92C6595.22,1706.31,6568.82,1695.29,6539.5,1722.67z"/>
		<path class="st3" d="M6539.5,1722.67c-35.89,33.51-61.3,87.5-62.63,86.69c-0.85-0.52,22.63-45.52,41.51-95.4
			c36.91-97.5,28.43-140.1,24.88-153.99c-2.25-8.77-10.23-39.95-27.16-41.5c-6.52-0.6-13.67,3.02-20.6,9.55
			c5.91,2.94,11.6,7.06,16.23,12.83c10.53,13.11,11.08,29.08,10.71,40.37c-3.68,111.09-76.24,212.5-76.24,212.5
			c-38.27,53.48-80.54,94.12-78.15,96.45c2.66,2.59,51.57-51.34,64.5-42.68c9.63,6.45-4.67,44.99-12.2,61.64
			c-8.54,18.88-27.2,51.2-71.75,83.64c84.3-1.43,169.56-102.95,186.28-122.86c17.73-21.11,82.55-98.31,65.34-148.92
			C6595.22,1706.31,6568.82,1695.29,6539.5,1722.67z"/>
		<path class="st3" d="M6240.13,1715.6c-5.73-6.43-19.87-19.7-26.13-15.99c-7.58,4.49-4.94,34.63,12.96,47.08
			c8.71,6.06,22.41,8.88,26.9,3.64C6259.57,1743.68,6249.04,1725.6,6240.13,1715.6z"/>
		<path class="st3" d="M6306.2,1753.01c-3.17-1.53-11.08,7.04-15.52,15.04c-7.84,14.1-8.22,32.32-4.14,33.72
			c3.88,1.33,12.31-12.44,16.46-23.14C6306.75,1768.96,6309.77,1754.73,6306.2,1753.01z"/>
		<path class="st3" d="M6264.52,1834.47c-7.33-9.66-21.45-25.32-25.56-22.81c-4.28,2.61,2.66,24.71,14.45,41.93
			c10.52,15.36,27.17,30.14,31.26,27.27C6289.19,1877.67,6278.46,1852.84,6264.52,1834.47z"/>
		<path class="st3" d="M6396.1,1552.88c-3.05-1.46-11.55,9.37-16.26,17.61c-10.55,18.44-11.97,41.05-8.03,42.36
			c3.58,1.19,11.81-15.18,14.06-19.65C6394.34,1576.35,6400,1554.75,6396.1,1552.88z"/>
		<path class="st3" d="M6336.78,1618.02c-4.38,1.29-3.55,17.84-1.37,28.94c3.54,18.02,13.76,37.48,18.89,36.24
			c4.98-1.2,5.63-22.01,0.1-39.09C6350.15,1630.96,6341.16,1616.73,6336.78,1618.02z"/>
		<path class="st3" d="M6391.63,1713.63c-3.1-1.83-13.36,7.45-19.21,18.15c-8.96,16.38-8.02,36.86-3.97,37.96
			c4.42,1.2,13.51-20.38,15.92-26.1C6385.91,1740,6395.94,1716.18,6391.63,1713.63z"/>
		<path class="st3" d="M6340.19,1795.04c-5.99-0.2-13.37,17.59-12.62,34.04c0.78,17.18,10.54,35.07,16.68,34.2
			c6.52-0.93,9.31-23.05,7.29-39.79C6350.33,1813.48,6346.19,1795.24,6340.19,1795.04z"/>
		<path class="st3" d="M6321.14,1890.08c-4.63-7.93-13.08-16.4-16.73-14.65c-6.12,2.93,3.56,33.42,3.96,34.68
			c2.56,7.95,8.67,26.91,13.39,26.25C6327.12,1935.61,6332.38,1909.31,6321.14,1890.08z"/>
		<path class="st3" d="M6494.1,1571.65c-4.53-1.35-14.51,17.22-18.15,33.83c-0.92,4.18-3.05,13.92-0.22,15.3
			c3.08,1.5,11.37-7.21,15.89-16.33C6498.48,1590.65,6498.21,1572.87,6494.1,1571.65z"/>
		<path class="st3" d="M6485.2,1665.45c-3.86-2.29-14.36,8.3-19.76,15.2c-12.45,15.91-17.95,38.07-13.19,40.86
			c4.08,2.4,15.73-9.42,22.16-18.69C6484.69,1688,6489.7,1668.11,6485.2,1665.45z"/>
		<path class="st3" d="M6428.87,1783.15c-2.86-3.09-16.36,5.24-23.8,9.83c-2.18,1.34-25.3,15.61-22.91,21.27
			c1.54,3.64,13.42,3.21,22.49-0.44C6422.05,1806.82,6432.19,1786.74,6428.87,1783.15z"/>
		<path class="st3" d="M6418.3,1877.86c-2.93-2.15-13.15,7.23-19.02,12.62c-14.12,12.97-31.3,34.05-27.74,38.02
			c3.05,3.4,21.56-5.51,33.59-19.55C6415.55,1896.8,6421.57,1880.26,6418.3,1877.86z"/>
	</g>
	<g>
		<path class="st4" d="M5842.85,712.02c4.47,26.84,11.47,46.6,16.8,52.29c28.55,30.48,67.81,34.68,86.24,36.38
			c66.27,6.13,75.27-29.14,136.1-22.91c47.55,4.87,64.68,28.73,92.98,16.17c25.49-11.32,34.98-41.07,39.08-53.9
			c18.52-58.06-2.87-139.91-57.94-169.79c-21.46-11.64-62.36,25.81-145.69,40.01c-113.64,19.37-128.54,0.92-143.19,18.56
			C5860.67,636.75,5835.86,670.04,5842.85,712.02z"/>
		<path class="st5" d="M6217.6,772.68c8.27,5.8,25.32,17.76,33.09,39.11c9.03,24.81-1.69,42.45,9.03,51.14
			c12.38,10.05,30.24-10.62,54.15-3.01c22.66,7.21,18.46,29.54,45.13,48.14c26.16,18.25,40.63,4.03,69.2,21.06
			c33.67,20.08,43.79,57.86,45.13,63.18c7.12,28.25,4.84,69.92-21.06,93.26c-19.23,17.33-44.17,16.81-93.26,15.04
			c-89.2-3.2-111.67-26.59-156.44-9.03c-28.32,11.12-29.31,24.4-54.15,27.08c-39.51,4.26-50.54-27.88-90.25-33.09
			c-57.87-7.59-79.07,54.82-129.36,45.13c-36.26-6.99-28.29-39.69-84.24-69.19c-40.39-21.31-99.12-40.03-96.27-39.11
			c21.19,6.8-39.81-27.38-42.12-51.14c-2.33-23.93,16.02-43.07,18.05-45.13c24.53-24.88,55.06-13.41,63.18-30.08
			c10.25-21.06-35.33-45.68-30.08-78.22c4.89-30.31,51.84-54.96,93.26-57.16c55.24-2.94,66.88,35.86,126.36,36.1
			c37.46,0.16,33.72-15.23,102.29-30.08C6128.25,756.04,6179.17,745.73,6217.6,772.68z"/>
		<path class="st4" d="M5958.88,902.04c39.59,4.83,42.15,23.86,102.29,42.12c35.73,10.85,74.37,22,105.3,3.01
			c19.8-12.16,36.07-36.45,30.08-48.14c-3.81-7.45-15.51-7.57-30.08-9.03c-11.65-1.16-36.85-7.79-87.25-21.06
			c-63.04-16.59-58.14-29.15-90.25-30.08c-38.92-1.14-41.69,17.44-81.23,18.05c-60.8,0.95-102.57-42.22-105.3-45.13
			c-8.61-9.18-15.09-18.71-20.16-27.92c-13.38,9.49-22.91,21.2-24.97,33.93c-5.25,32.54,40.34,57.16,30.08,78.22
			c-0.07,0.13-0.16,0.23-0.23,0.36c27.23,21.52,50.39,27.55,69.42,26.71C5892.28,921.54,5910.79,896.18,5958.88,902.04z"/>
		<path class="st4" d="M6473.33,992.3c-0.53-2.11-2.49-9.37-6.71-18.58c-2.27,15.39-8,28.07-17.36,36.63
			c-21.07,19.26-57.25,15.31-87.25,12.03c-52.63-5.75-56.65-23.7-108.31-33.09c-59.9-10.89-110.99,2.98-132.37,9.03
			c-37.79,10.68-33.75,17.23-69.2,27.08c-57.87,16.08-86.51,3.58-138.39,9.03c-21.5,2.25-49.08,8-80.89,21.58
			c3.7,1.58,7.56,3.35,11.69,5.5c56.11,29.2,47.97,62.21,84.24,69.19c50.29,9.69,71.49-52.72,129.36-45.13
			c39.71,5.21,50.74,37.35,90.25,33.09c24.84-2.68,25.83-15.96,54.15-27.08c44.77-17.57,67.25,5.82,156.44,9.03
			c49.09,1.76,74.03,2.29,93.26-15.04C6478.16,1062.22,6480.45,1020.54,6473.33,992.3z"/>
		<g>
			<path class="st6" d="M6096.84,1919.94l-53.29-8.07c22.42-147.97,29.44-274.39,20.85-375.77c-1.41-16.67-3.15-31.64-4.82-46.11
				c-4.59-39.65-8.93-77.11-4.2-132.93c0.9-10.57,2.02-20.65,3.1-30.39c3.86-34.77,7.2-64.79,0.17-107.35
				c-2.62-15.85-8.09-104.19-7.49-113.14c8.45-125.48-21.17-435.07-36.02-495.24l10.66-4.53c15.69,63.6,44.47,223.76,47.25,285.4
				c0.62,13.75,0.67,21.64,0.72,30.77c0.06,10.5,0.14,22.39,1.17,47.49c2.93,71.6,4.96,111.29,15.59,161
				c4.81,22.49,8.18,31.85,11.16,40.11c3.45,9.59,6.72,18.65,10.14,39.36c8.24,49.89,4.16,86.59,0.22,122.08
				c-1.04,9.4-2.12,19.13-2.96,28.99c-4.27,50.43-0.42,83.68,4.04,122.17c1.72,14.88,3.51,30.27,4.99,47.77
				C6127.04,1637.13,6119.89,1767.8,6096.84,1919.94z"/>
		</g>
		<g>
			<path class="st6" d="M6066.62,1009.02l-12.16-14.43c20.28-17.08,37.86-36.16,52.27-56.69c40.64-57.93,52.15-142.98,51.69-182.25
				h3.64c0.49,42.05-2.78,129.93-46.31,191.98C6100.41,969.49,6088.14,990.88,6066.62,1009.02z"/>
		</g>
		<g>
			<path class="st6" d="M6056.16,1120.64c-24.92-13.07-47.55-28.85-67.24-46.9c-55.87-51.21-77.82-122.57-86.4-163.73l6.44-2.38
				c8.01,38.45,40.54,104.39,92.7,152.21c18.49,16.95,39.77,31.79,63.25,44.1L6056.16,1120.64z"/>
		</g>
		<g>
			<path class="st6" d="M6130.79,921.21l-4.01-12.86c16.52-5.15,36.85-8.38,57.7-30.35c15.93-16.79,26.73-31.39,31.62-45.94
				c0.35-1.05,1.45-1.64,2.51-1.32l0,0c1.08,0.33,1.7,1.48,1.36,2.56c-5.11,16.08-12.99,30.79-23.46,43.73
				C6175.34,903.21,6149.09,915.5,6130.79,921.21z"/>
		</g>
		<g>
			<path class="st6" d="M5964.83,1029.82c-18.75-1.98-77.95-14.36-104.62-34.11c-13.15-9.73-37.32-28.77-33.9-35.31
				c2.87-2.95,45.09,30.79,56.32,34.71c20.72,7.23,49.85,12.11,66.93,13.91L5964.83,1029.82z"/>
		</g>
		<path class="st7" d="M6118.1,1531.55c-1.48-17.49-3.26-32.88-4.99-47.77c-4.46-38.49-8.31-71.74-4.04-122.17
			c0.84-9.87,1.92-19.59,2.96-28.99c3.94-35.49,8.02-72.19-0.22-122.08c-3.42-20.71-6.68-29.77-10.14-39.36
			c-2.98-8.26-6.35-17.62-11.16-40.11c-10.64-49.72-12.66-89.4-15.59-161c-1.03-25.1-1.1-37-1.16-47.49
			c-0.06-9.13-0.1-17.02-0.73-30.77c-2.78-61.65-31.57-221.8-47.25-285.4l-10.66,4.53c1.43,5.81,3.01,13.96,4.67,24.04
			c30.15,114.83,39.74,194.47,41.14,250.83c0.42,16.99,1.15,74.03,6.74,153.62c6.69,95.43,11.7,99.74,17.52,180.57
			c8.12,112.81-0.4,121.35,8.09,245.25c5.96,87.06,10.45,86.91,12.13,148.23c0.83,30.25,1.69,101.68-9.43,192.7
			c-4.02,32.86-9.82,70.1-18.35,110.86l19.21,2.91C6119.89,1767.8,6127.04,1637.13,6118.1,1531.55z"/>
		<g>
			<path class="st6" d="M6002.11,1068.45l-17.96-20.48c2.26-56.07,6.21-95.88-3.15-150.65c-3.44-20.16-7.49-57.36-12.48-78.59
				c-0.34-1.44,0.54-2.88,1.98-3.25l0,0c1.46-0.37,2.96,0.51,3.33,1.97c5.08,20.17,9.42,40.75,12.92,61.22
				C5996.25,934.35,6004.41,1011.44,6002.11,1068.45z"/>
		</g>
		<path class="st5" d="M5835.53,1112.64c-8.35-1.09-32.2-5.09-57.16,6.02c-20.62,9.17-20.41,19.05-42.12,33.09
			c-31.54,20.41-44.55,7.7-78.22,27.08c-14.39,8.28-41.83,24.07-45.13,51.14c-2.64,21.66,10.74,45.89,30.08,57.16
			c32.58,18.99,62.17-10.37,90.25,9.03c19.31,13.34,11.53,31.52,33.09,51.14c20.96,19.07,48.42,20.2,69.19,21.06
			c64.75,2.67,81.3-30.42,129.36-21.06c27.9,5.43,22.25,16.56,63.18,33.09c14.23,5.75,67.58,26.55,129.36,15.04
			c46.62-8.68,45.22-25.93,93.26-33.09c17.8-2.65,58.07-8.66,99.28,9.03c49.34,21.17,56.74,57.73,84.24,54.15
			c19.75-2.57,19.58-21.9,54.15-54.15c43.64-40.71,70.26-34.49,78.22-60.17c9.88-31.88-19.21-79.93-54.15-90.25
			c-25.3-7.48-37.26,9.68-60.17,0c-29.78-12.58-20.79-46.33-48.14-63.18c-39.86-24.56-96.38,24.07-120.34,0
			c-10.85-10.9-2.57-24.19-9.03-42.12c-18.83-52.26-131.51-56.66-150.42-57.16C5990.01,1054.9,5914.14,1122.91,5835.53,1112.64z"/>
		<g>
			<path class="st6" d="M6091.39,1315.04c24.92-13.07,29.85-47.8,49.54-65.85c54.57-50.02,76.78-119.27,85.78-160.82
				c0.36-1.67-0.56-3.35-2.16-3.94l0,0c-1.93-0.71-4.03,0.41-4.51,2.41c-9.27,38.88-41.36,102.15-91.86,148.44
				c-18.49,16.95-48.46,50.22-71.94,62.53L6091.39,1315.04z"/>
		</g>
		<g>
			<path class="st6" d="M6165.02,1205.27c18.75-1.98,77.95-14.36,104.62-34.11c13.15-9.73,37.31-28.77,33.9-35.31
				c-2.87-2.95-45.09,30.79-56.32,34.71c-20.72,7.23-49.85,12.11-66.93,13.91L6165.02,1205.27z"/>
		</g>
		<g>
			<path class="st6" d="M6127.74,1243.9l17.96-20.48c-2.26-56.07-6.21-95.88,3.15-150.65c3.44-20.16,7.49-57.36,12.48-78.59
				c0.34-1.44-0.54-2.88-1.98-3.25l0,0c-1.46-0.37-2.96,0.51-3.33,1.97c-5.08,20.17-9.42,40.75-12.92,61.22
				C6133.59,1109.81,6125.44,1186.9,6127.74,1243.9z"/>
		</g>
		<path class="st4" d="M6340.95,1287.13c-28.3,9.44-50.98,44.19-81.23,36.1c-19.41-5.19-17.79-21.56-45.13-42.12
			c-3.99-3-53.45-39.23-96.27-24.07c-29.6,10.48-32.89,37.34-54.15,36.1c-20.08-1.17-35.78-26.23-42.12-42.12
			c-13.54-33.94,4.82-53.2-9.03-69.2c-15.73-18.18-57.69-14.42-84.24,3.01c-21.25,13.95-16.95,26.36-36.1,42.12
			c-27.37,22.51-63.22,19.43-114.32,15.04c-57.62-4.95-86.43-7.42-102.29-30.08c-7.88-11.27-10.61-24.33-10.75-36.93
			c-2.34,1.13-4.74,2.37-7.3,3.84c-14.39,8.28-41.83,24.07-45.13,51.14c-2.64,21.66,10.74,45.89,30.08,57.16
			c32.58,18.99,62.17-10.37,90.25,9.03c19.31,13.34,11.53,31.52,33.09,51.14c20.96,19.07,48.42,20.2,69.19,21.06
			c64.75,2.67,81.3-30.42,129.36-21.06c27.9,5.43,22.25,16.56,63.18,33.09c14.23,5.75,67.58,26.55,129.36,15.04
			c46.62-8.68,45.22-25.93,93.26-33.09c17.8-2.65,58.07-8.66,99.28,9.03c49.34,21.17,56.74,57.73,84.24,54.15
			c19.75-2.57,19.58-21.9,54.15-54.15c0.47-0.43,0.9-0.79,1.36-1.21C6415.89,1291.55,6370.33,1277.32,6340.95,1287.13z"/>
		<path class="st8" d="M6200.81,1896.04c-0.02,0-0.03,0-0.05,0c-1-16.3-18.79-29.28-40.58-29.28c-12.62,0-23.89,4.35-31.34,11.17
			c-7.17-15.98-29.77-27.65-56.55-27.65c-27.93,0-51.32,12.69-57.39,29.73c-0.58,0.07-1.16,0.14-1.74,0.21
			c-6.66-10.09-20.44-17.02-36.36-17.02c-22.44,0-40.63,13.76-40.63,30.72c0,1.48,0.15,2.94,0.42,4.37c-0.14,0-0.28,0-0.42,0
			c-36.62,0-66.31,18.82-66.31,42.04c0,23.22,17.08,46.93,127.63,60.32l0,0c21.95,3.63,46.29,5.66,71.92,5.66
			c10.47,0,20.73-0.34,30.7-0.99l0.01,0c115.02,0.08,167-44.02,167-67.24C6267.11,1914.86,6237.43,1896.04,6200.81,1896.04z"/>
		<path class="st9" d="M6200.81,1896.04c-0.02,0-0.03,0-0.05,0c-1-16.3-18.79-29.28-40.58-29.28c-12.62,0-23.89,4.35-31.34,11.17
			c-7.17-15.98-29.77-27.65-56.55-27.65c-0.96,0-1.91,0.02-2.85,0.05c45.55,12.87,48.93,48.4,48.93,48.4s9.24-6.47,20.97-8.87
			c12.34-2.53,28.24,1.64,34.67,11.29c8.94,13.4-2.35,34.41-7.26,43.54c-17.41,32.4-65.05,50.94-108.82,61.47
			c3.79,0.09,7.62,0.14,11.48,0.14c10.47,0,20.73-0.34,30.7-0.99l0.01,0c115.02,0.08,167-44.02,167-67.24
			C6267.11,1914.86,6237.43,1896.04,6200.81,1896.04z"/>
		<path class="st10" d="M6057.89,1862.45c-4.63-3.27-16.42,6.45-19.35,8.87c-3.33,2.75-18.22,15.03-14.52,24.19
			c2.28,5.63,11.05,8.75,17.74,7.26C6058.21,1899.11,6064.47,1867.1,6057.89,1862.45z"/>
		<path class="st10" d="M5966.77,1873.74c-5.23-1.73-12.36,6.01-15.32,10.48c-1.63,2.47-8.05,12.14-3.23,20.97
			c4.08,7.46,14.46,11.13,20.16,8.06C5979.08,1907.5,5975.73,1876.71,5966.77,1873.74z"/>
		<path class="st10" d="M5926.45,1918.09c-1.57-4.81-16.99-3.3-17.74-3.23c-3.69,0.39-16.94,1.77-23.39,12.9
			c-2.46,4.24-5.75,13.06-2.42,16.13C5890.41,1950.81,5929.13,1926.33,5926.45,1918.09z"/>
		<path class="st10" d="M5961.12,1944.7c-0.07-0.78,0.34-2.47,19.35-10.48c16.58-6.99,24.87-10.49,34.67-12.9
			c15.27-3.76,44.48-8.05,46.77-1.61c2.31,6.49-22.34,25.03-50,30.64C5987.42,1955.32,5961.57,1949.95,5961.12,1944.7z"/>
		<path class="st10" d="M6140.14,1907.61c-3.62-4.76-21.4,3.34-28.22,6.45c-25.23,11.5-48.31,33.96-44.35,41.13
			c2.95,5.34,20.51,1.46,30.64-2.42C6125.87,1942.19,6144.86,1913.8,6140.14,1907.61z"/>
		<path class="st4" d="M5822.43,1450.42c-4.1-7.29-25.39-5.1-40.43,2.7c-25.29,13.1-39.23,45.32-32.34,52.55
			c6.25,6.57,30.27-6.78,41.77-14.82C5807.45,1479.63,5827.27,1459.03,5822.43,1450.42z"/>
		<path class="st4" d="M5810.3,1551.48c-7.7-2.51-21.52,17.2-28.3,32.34c-10.22,22.83-12.47,53.22-4.04,56.6
			c7.98,3.2,26.08-17.62,33.69-39.08C5819.02,1580.54,5818.31,1554.09,5810.3,1551.48z"/>
		<path class="st4" d="M5908.67,1490.84c9.68,1.94,9.46,36.41,9.43,39.08c-0.21,17.73-4.72,46.42-13.48,47.16
			c-8.61,0.74-22.08-25.5-18.87-49.86C5888.26,1508.28,5901.02,1489.31,5908.67,1490.84z"/>
		<path class="st5" d="M5970.91,547.04c3.07-22.86,5.54-41.3,18.05-54.15c17.68-18.16,53.24-22.96,75.21-9.03
			c25.24,16.01,13.27,44.51,42.12,66.19c17.42,13.09,25.2,5.27,51.14,21.06c10.28,6.26,30.88,18.79,42.12,42.12
			c13.5,28.03,13.41,71.52-9.03,87.25c-15.73,11.03-37.35,4.83-75.21-6.02c-46.24-13.25-51.67-25.62-75.21-24.07
			c-27.3,1.79-32.68,19.25-69.2,39.11c-29.97,16.3-94,41.33-117.33,18.05c-21.15-21.11-9.96-83.03,24.07-108.31
			c32.82-24.38,76.71-7.1,90.25-33.09C5972.85,576.66,5967.33,573.71,5970.91,547.04z"/>
	</g>
	<g>
		<path class="st4" d="M3707.62,664.18c4.37,26.29,11.23,45.65,16.45,51.22c27.96,29.86,66.42,33.97,84.48,35.64
			c64.91,6,73.72-28.54,133.31-22.44c46.58,4.77,63.36,28.15,91.08,15.84c24.97-11.09,34.27-40.22,38.28-52.8
			c18.14-56.87-2.82-137.05-56.76-166.31c-21.02-11.4-61.08,25.28-142.7,39.19c-111.31,18.98-125.91,0.91-140.25,18.18
			C3725.08,590.45,3700.78,623.05,3707.62,664.18z"/>
		<path class="st11" d="M4074.7,723.59c8.1,5.68,24.8,17.39,32.42,38.31c8.85,24.3-1.66,41.58,8.84,50.1
			c12.13,9.84,29.62-10.4,53.04-2.95c22.2,7.06,18.08,28.93,44.2,47.15c25.62,17.87,39.8,3.95,67.78,20.63
			c32.98,19.67,42.89,56.67,44.2,61.88c6.98,27.67,4.74,68.49-20.63,91.35c-18.84,16.98-43.26,16.46-91.35,14.73
			c-87.37-3.14-109.39-26.05-153.24-8.84c-27.74,10.89-28.71,23.9-53.04,26.52c-38.7,4.17-49.51-27.31-88.41-32.42
			c-56.69-7.44-77.45,53.7-126.72,44.2c-35.52-6.85-27.71-38.87-82.51-67.78c-39.57-20.87-97.09-39.21-94.3-38.31
			c20.75,6.66-38.99-26.82-41.26-50.1c-2.28-23.44,15.69-42.18,17.68-44.2c24.03-24.37,53.93-13.13,61.88-29.47
			c10.04-20.63-34.61-44.74-29.47-76.62c4.79-29.69,50.78-53.83,91.35-55.99c54.11-2.88,65.51,35.12,123.77,35.36
			c36.7,0.15,33.03-14.92,100.19-29.47C3987.18,707.29,4037.06,697.19,4074.7,723.59z"/>
		<path class="st4" d="M3821.27,850.31c38.78,4.73,41.29,23.37,100.19,41.26c35,10.62,72.85,21.55,103.14,2.95
			c19.39-11.91,35.33-35.7,29.47-47.15c-3.73-7.29-15.2-7.42-29.47-8.84c-11.41-1.14-36.09-7.63-85.46-20.63
			c-61.75-16.25-56.95-28.55-88.41-29.47c-38.12-1.11-40.84,17.08-79.57,17.68c-59.55,0.93-100.47-41.35-103.14-44.2
			c-8.43-8.99-14.78-18.33-19.75-27.35c-13.1,9.3-22.44,20.77-24.45,33.24c-5.14,31.88,39.51,55.99,29.47,76.62
			c-0.06,0.13-0.16,0.23-0.22,0.35c26.67,21.08,49.36,26.98,68,26.17C3756.04,869.41,3774.17,844.56,3821.27,850.31z"/>
		<path class="st4" d="M4325.19,938.71c-0.52-2.07-2.44-9.18-6.57-18.2c-2.23,15.08-7.84,27.5-17,35.88
			c-20.64,18.87-56.07,15-85.46,11.79c-51.55-5.63-55.49-23.22-106.09-32.42c-58.67-10.67-108.72,2.92-129.66,8.84
			c-37.02,10.46-33.05,16.88-67.78,26.52c-56.69,15.75-84.74,3.51-135.56,8.84c-21.06,2.21-48.08,7.83-79.23,21.14
			c3.63,1.54,7.4,3.28,11.45,5.39c54.96,28.6,46.99,60.93,82.51,67.78c49.26,9.49,70.03-51.64,126.72-44.2
			c38.9,5.1,49.7,36.59,88.41,32.42c24.33-2.62,25.3-15.63,53.04-26.52c43.85-17.21,65.87,5.7,153.24,8.84
			c48.09,1.73,72.52,2.24,91.35-14.73C4329.92,1007.2,4332.16,966.38,4325.19,938.71z"/>
		<g>
			<path class="st6" d="M3956.41,1847.36l-52.2-7.91c21.96-144.94,28.83-268.77,20.42-368.07c-1.38-16.32-3.08-30.99-4.72-45.17
				c-4.5-38.84-8.75-75.53-4.12-130.21c0.88-10.35,1.97-20.22,3.03-29.77c3.78-34.06,7.05-63.47,0.17-105.15
				c-2.56-15.53-7.93-102.06-7.34-110.82c8.28-122.91-20.74-426.16-35.28-485.1l10.44-4.44c15.37,62.3,43.56,219.17,46.28,279.56
				c0.61,13.47,0.66,21.19,0.71,30.14c0.06,10.28,0.13,21.93,1.14,46.52c2.87,70.14,4.85,109.01,15.27,157.71
				c4.71,22.03,8.02,31.2,10.93,39.29c3.38,9.39,6.58,18.27,9.93,38.55c8.07,48.87,4.07,84.82,0.21,119.58
				c-1.02,9.21-2.08,18.73-2.9,28.4c-4.19,49.4-0.41,81.96,3.95,119.67c1.69,14.58,3.44,29.65,4.89,46.79
				C3986,1570.34,3978.99,1698.33,3956.41,1847.36z"/>
		</g>
		<g>
			<path class="st6" d="M3926.81,955.09l-11.91-14.13c19.86-16.73,37.09-35.42,51.2-55.53c39.81-56.75,51.08-140.05,50.63-178.52
				h3.56c0.48,41.18-2.73,127.27-45.36,188.04C3959.91,916.37,3947.89,937.33,3926.81,955.09z"/>
		</g>
		<g>
			<path class="st6" d="M3916.56,1064.43c-24.41-12.8-46.57-28.26-65.86-45.94c-54.73-50.16-76.23-120.06-84.63-160.38l6.31-2.34
				c7.85,37.66,39.7,102.25,90.8,149.09c18.11,16.6,38.96,31.14,61.96,43.2L3916.56,1064.43z"/>
		</g>
		<g>
			<path class="st6" d="M3989.67,869.08l-3.93-12.6c16.18-5.05,36.09-8.2,56.51-29.73c15.6-16.45,26.18-30.75,30.98-44.99
				c0.35-1.03,1.42-1.6,2.46-1.29l0,0c1.06,0.32,1.67,1.45,1.33,2.51c-5,15.75-12.73,30.16-22.98,42.83
				C4033.3,851.45,4007.59,863.49,3989.67,869.08z"/>
		</g>
		<g>
			<path class="st6" d="M3827.1,975.46c-18.36-1.94-76.35-14.07-102.48-33.41c-12.88-9.54-36.55-28.18-33.2-34.58
				c2.81-2.89,44.17,30.16,55.17,34c20.29,7.08,48.83,11.86,65.56,13.63L3827.1,975.46z"/>
		</g>
		<path class="st7" d="M3977.24,1466.92c-1.45-17.14-3.2-32.21-4.89-46.79c-4.37-37.71-8.14-70.27-3.95-119.67
			c0.82-9.67,1.88-19.19,2.9-28.4c3.86-34.76,7.86-70.71-0.21-119.58c-3.35-20.29-6.55-29.16-9.93-38.55
			c-2.91-8.09-6.22-17.26-10.93-39.29c-10.42-48.7-12.4-87.57-15.27-157.71c-1.01-24.59-1.08-36.24-1.14-46.52
			c-0.05-8.94-0.1-16.67-0.71-30.14c-2.72-60.38-30.92-217.26-46.28-279.56l-10.44,4.44c1.4,5.69,2.94,13.68,4.57,23.54
			c29.53,112.48,38.92,190.48,40.3,245.69c0.41,16.64,1.13,72.51,6.6,150.47c6.56,93.47,11.46,97.69,17.16,176.87
			c7.96,110.5-0.39,118.86,7.92,240.23c5.84,85.27,10.24,85.13,11.88,145.19c0.81,29.63,1.66,99.6-9.24,188.75
			c-3.93,32.18-9.62,68.67-17.97,108.59l18.81,2.85C3978.99,1698.33,3986,1570.34,3977.24,1466.92z"/>
		<g>
			<path class="st6" d="M3863.62,1013.3l-17.59-20.07c2.22-54.92,6.08-93.92-3.08-147.57c-3.37-19.74-7.34-56.18-12.22-76.98
				c-0.33-1.41,0.53-2.82,1.94-3.18l0,0c1.43-0.37,2.9,0.5,3.26,1.93c4.97,19.76,9.23,39.92,12.65,59.96
				C3857.88,881.96,3865.87,957.46,3863.62,1013.3z"/>
		</g>
		<path class="st11" d="M3700.45,1056.59c-8.18-1.07-31.54-4.98-55.99,5.89c-20.2,8.99-19.99,18.66-41.26,32.42
			c-30.89,19.99-43.64,7.55-76.62,26.52c-14.09,8.11-40.97,23.57-44.2,50.1c-2.58,21.22,10.52,44.95,29.47,55.99
			c31.91,18.6,60.9-10.16,88.41,8.84c18.92,13.07,11.3,30.88,32.42,50.1c20.53,18.68,47.43,19.79,67.78,20.63
			c63.42,2.61,79.63-29.79,126.72-20.63c27.33,5.32,21.79,16.22,61.88,32.42c13.94,5.63,66.2,26.01,126.72,14.73
			c45.67-8.51,44.29-25.4,91.35-32.42c17.44-2.6,56.88-8.48,97.25,8.84c48.33,20.74,55.57,56.55,82.51,53.04
			c19.35-2.52,19.18-21.45,53.04-53.04c42.75-39.88,68.82-33.78,76.62-58.94c9.68-31.23-18.82-78.29-53.04-88.41
			c-24.78-7.32-36.5,9.48-58.94,0c-29.17-12.32-20.36-45.38-47.15-61.88c-39.04-24.06-94.41,23.57-117.87,0
			c-10.63-10.67-2.51-23.7-8.84-41.26c-18.44-51.19-128.81-55.5-147.34-55.99C3851.76,1000.03,3777.45,1066.65,3700.45,1056.59z"/>
		<g>
			<path class="st6" d="M3951.07,1254.85c24.41-12.8,29.23-46.82,48.52-64.5c53.46-49,75.21-116.82,84.02-157.52
				c0.35-1.63-0.54-3.28-2.11-3.86h0c-1.89-0.7-3.95,0.4-4.42,2.36c-9.08,38.08-40.51,100.06-89.98,145.4
				c-18.11,16.6-47.47,49.19-70.47,61.25L3951.07,1254.85z"/>
		</g>
		<g>
			<path class="st6" d="M4023.19,1147.33c18.36-1.94,76.35-14.07,102.48-33.41c12.88-9.54,36.55-28.18,33.2-34.58
				c-2.81-2.89-44.17,30.16-55.17,34c-20.29,7.08-48.83,11.86-65.56,13.62L4023.19,1147.33z"/>
		</g>
		<g>
			<path class="st6" d="M3986.67,1185.16l17.59-20.07c-2.22-54.92-6.08-93.92,3.09-147.57c3.37-19.74,7.34-56.18,12.22-76.98
				c0.33-1.41-0.53-2.82-1.94-3.18l0,0c-1.43-0.37-2.9,0.5-3.26,1.93c-4.97,19.76-9.23,39.92-12.65,59.96
				C3992.41,1053.82,3984.42,1129.33,3986.67,1185.16z"/>
		</g>
		<path class="st4" d="M4195.52,1227.51c-27.72,9.25-49.94,43.29-79.57,35.36c-19.01-5.09-17.43-21.12-44.2-41.26
			c-3.91-2.94-52.36-38.43-94.3-23.58c-29,10.27-32.22,36.58-53.04,35.36c-19.67-1.15-35.05-25.69-41.26-41.26
			c-13.26-33.24,4.72-52.11-8.84-67.78c-15.41-17.8-56.51-14.12-82.51,2.95c-20.81,13.66-16.6,25.82-35.36,41.26
			c-26.81,22.05-61.92,19.03-111.98,14.73c-56.44-4.85-84.66-7.27-100.19-29.47c-7.72-11.04-10.4-23.83-10.53-36.18
			c-2.29,1.11-4.65,2.32-7.15,3.76c-14.09,8.11-40.97,23.57-44.2,50.1c-2.58,21.22,10.52,44.95,29.47,55.99
			c31.91,18.6,60.9-10.16,88.41,8.84c18.92,13.07,11.3,30.88,32.42,50.1c20.53,18.68,47.43,19.79,67.78,20.63
			c63.42,2.61,79.63-29.79,126.72-20.63c27.33,5.32,21.79,16.22,61.88,32.42c13.94,5.63,66.2,26.01,126.72,14.73
			c45.67-8.51,44.29-25.4,91.35-32.42c17.44-2.6,56.88-8.48,97.25,8.84c48.33,20.74,55.57,56.55,82.51,53.04
			c19.35-2.52,19.18-21.45,53.04-53.04c0.46-0.43,0.88-0.77,1.33-1.19C4268.92,1231.84,4224.3,1217.9,4195.52,1227.51z"/>
		<path class="st8" d="M4058.25,1823.95c-0.02,0-0.03,0-0.05,0c-0.98-15.96-18.4-28.68-39.75-28.68c-12.36,0-23.4,4.26-30.7,10.94
			c-7.02-15.65-29.16-27.08-55.39-27.08c-27.36,0-50.27,12.43-56.21,29.12c-0.57,0.07-1.14,0.13-1.7,0.2
			c-6.53-9.88-20.02-16.67-35.62-16.67c-21.98,0-39.8,13.47-39.8,30.09c0,1.45,0.14,2.88,0.41,4.28c-0.14,0-0.27,0-0.41,0
			c-35.87,0-64.95,18.44-64.95,41.18s16.73,45.97,125.02,59.08c0,0,0,0,0,0c21.5,3.56,45.34,5.54,70.44,5.54
			c10.26,0,20.3-0.33,30.07-0.97l0.01,0c112.66,0.08,163.58-43.12,163.58-65.87S4094.12,1823.95,4058.25,1823.95z"/>
		<path class="st9" d="M4058.25,1823.95c-0.02,0-0.03,0-0.05,0c-0.98-15.96-18.4-28.68-39.75-28.68c-12.36,0-23.4,4.26-30.7,10.94
			c-7.02-15.65-29.16-27.08-55.39-27.08c-0.94,0-1.87,0.02-2.79,0.05c44.62,12.6,47.93,47.41,47.93,47.41s9.05-6.33,20.54-8.69
			c12.09-2.48,27.66,1.61,33.96,11.06c8.75,13.13-2.3,33.71-7.11,42.65c-17.05,31.74-63.72,49.89-106.59,60.21
			c3.72,0.09,7.46,0.14,11.24,0.14c10.26,0,20.3-0.33,30.07-0.97l0.01,0c112.66,0.08,163.58-43.12,163.58-65.87
			S4094.12,1823.95,4058.25,1823.95z"/>
		<path class="st10" d="M3918.25,1791.05c-4.54-3.21-16.08,6.31-18.96,8.69c-3.26,2.69-17.85,14.72-14.22,23.7
			c2.23,5.51,10.82,8.57,17.38,7.11C3918.58,1826.95,3924.7,1795.6,3918.25,1791.05z"/>
		<path class="st10" d="M3829,1802.1c-5.12-1.69-12.11,5.89-15.01,10.27c-1.6,2.42-7.88,11.9-3.16,20.54
			c4,7.31,14.16,10.9,19.75,7.9C3841.06,1835.17,3837.78,1805.01,3829,1802.1z"/>
		<path class="st10" d="M3789.51,1845.55c-1.54-4.71-16.65-3.24-17.38-3.16c-3.62,0.38-16.59,1.73-22.91,12.64
			c-2.41,4.16-5.63,12.79-2.37,15.8C3754.21,1877.6,3792.14,1853.62,3789.51,1845.55z"/>
		<path class="st10" d="M3823.47,1871.61c-0.06-0.76,0.34-2.42,18.96-10.27c16.24-6.85,24.36-10.27,33.96-12.64
			c14.96-3.69,43.57-7.89,45.81-1.58c2.27,6.36-21.88,24.52-48.97,30.01C3849.24,1882.01,3823.91,1876.75,3823.47,1871.61z"/>
		<path class="st10" d="M3998.82,1835.28c-3.55-4.66-20.96,3.27-27.65,6.32c-24.72,11.26-47.32,33.27-43.44,40.28
			c2.89,5.23,20.09,1.43,30.01-2.37C3984.85,1869.15,4003.44,1841.35,3998.82,1835.28z"/>
		<path class="st4" d="M3687.62,1387.45c-4.02-7.14-24.87-4.99-39.6,2.64c-24.77,12.84-38.43,44.39-31.68,51.48
			c6.13,6.43,29.65-6.64,40.92-14.52C3672.95,1416.07,3692.36,1395.88,3687.62,1387.45z"/>
		<path class="st4" d="M3675.74,1486.44c-7.54-2.46-21.08,16.85-27.72,31.68c-10.01,22.36-12.22,52.13-3.96,55.44
			c7.82,3.13,25.55-17.26,33-38.28C3684.28,1514.9,3683.59,1489,3675.74,1486.44z"/>
		<path class="st4" d="M3772.09,1427.05c9.49,1.9,9.27,35.66,9.24,38.28c-0.21,17.37-4.63,45.47-13.2,46.2
			c-8.43,0.72-21.63-24.98-18.48-48.84C3752.11,1444.13,3764.6,1425.54,3772.09,1427.05z"/>
		<path class="st12" d="M3833.06,502.58c3-22.39,5.43-40.45,17.68-53.04c17.31-17.79,52.15-22.49,73.67-8.84
			c24.72,15.68,13,43.6,41.26,64.83c17.06,12.82,24.68,5.16,50.1,20.63c10.07,6.13,30.25,18.41,41.26,41.26
			c13.22,27.46,13.13,70.05-8.84,85.46c-15.41,10.8-36.59,4.73-73.67-5.89c-45.3-12.98-50.61-25.09-73.67-23.58
			c-26.74,1.76-32.01,18.86-67.78,38.31c-29.36,15.97-92.08,40.49-114.93,17.68c-20.71-20.67-9.76-81.33,23.57-106.09
			c32.15-23.88,75.14-6.95,88.41-32.42C3834.96,531.59,3829.55,528.7,3833.06,502.58z"/>
	</g>
	<g>
		<path class="st2" d="M1038.58,1354.13c-38.85,84.94-44.43,198.32-47.36,197.85c-1.86-0.3,6.83-96.46,3.91-197.87
			c-5.7-198.23-51.47-267.01-67.79-288.87c-10.3-13.79-46.93-62.85-77.83-53.32c-26.5,8.17-43.38,55.25-44.46,109.68
			c-3.92,197.87,56.82,416.93,30.42,416.3c0,0-55.2-267.91-134.41-380.42c-36.45-51.78-119.38-115.76-163.81-87.26
			c-24.31,15.59-30.67,55.32-33.25,71.45c-7.49,46.77,4.85,88.17,32.7,156.9c45.19,111.51,116.05,222.93,110.54,227.73
			c-5.57,4.86-71.53-113.67-141.11-131.89c-32.35-8.47-79.44-4.5-99.58,29.23c-24.2,40.54,1.4,105.91,29.63,175.74
			c26.44,65.38,66.01,160.52,155.87,248.54c62.83,61.54,139.45,136.59,235.89,135.03c193.63-3.14,291.95-312.33,309.16-366.47
			c15.89-49.98,73.99-232.71,7.06-309.27C1124.74,1285,1070.32,1284.74,1038.58,1354.13z"/>
		<path class="st3" d="M1038.58,1354.13c-38.85,84.94-44.43,198.32-47.36,197.85c-1.86-0.3,6.83-96.46,3.91-197.87
			c-5.7-198.23-51.47-267.01-67.79-288.87c-10.3-13.79-46.93-62.85-77.83-53.32c-11.91,3.67-21.86,15.21-29.32,31.72
			c12.53,0.9,25.51,4.02,37.84,10.81c28.03,15.44,40.56,43.11,48.08,63.26c74,198.07,19.83,429,19.83,429
			c-28.57,121.79-73.48,223.9-67.59,226.27c6.56,2.64,53.51-127.66,82.52-121.8c21.62,4.37,24.38,82.52,23.19,117.26
			c-1.35,39.4-10.74,109.77-65.61,199.09c147.24-63.58,223.66-303.91,238.65-351.04c15.89-49.98,73.99-232.71,7.06-309.27
			C1124.74,1285,1070.32,1284.74,1038.58,1354.13z"/>
		<path class="st3" d="M506.9,1558.57c-14.75-7.16-49.22-20.26-57.54-9.2c-10.07,13.38,16.4,64.49,56.91,73.42
			c19.71,4.35,45.85-0.61,49.95-13.08C561.43,1593.87,529.81,1569.7,506.9,1558.57z"/>
		<path class="st3" d="M650.2,1576.5c-6.69-0.4-14.38,20.41-16.41,37.69c-3.57,30.47,8.95,62.81,17.14,62.31
			c7.8-0.48,12.63-30.8,12.19-52.64C662.73,1604.16,657.73,1576.95,650.2,1576.5z"/>
		<path class="st3" d="M635.9,1749.97c-19.9-11.69-56.07-29-61.48-21.61c-5.63,7.7,22.58,41.54,55.79,63.28
			c29.64,19.4,69.63,33.33,74.74,25.31C710.59,1808.09,673.73,1772.19,635.9,1749.97z"/>
		<path class="st3" d="M663.37,1159.37c-6.42-0.36-13.52,24.84-15.85,42.76c-5.2,40.08,8.69,80.88,16.56,80.33
			c7.16-0.5,9.77-35.25,10.49-44.75C677.26,1201.92,671.57,1159.83,663.37,1159.37z"/>
		<path class="st3" d="M606.2,1316.93c-6.76,5.44,6.68,33.95,18.56,51.89c19.29,29.13,51.35,55.95,59.47,50.05
			c7.88-5.72-6.05-42.79-28.14-68.82C639.09,1329.99,612.98,1311.46,606.2,1316.93z"/>
		<path class="st3" d="M771.95,1445.35c-6.77-0.98-18.1,22.78-20.65,45.85c-3.9,35.3,12.6,70.65,20.52,69.64
			c8.63-1.09,9-45.63,9.09-57.43C780.97,1495.87,781.37,1446.72,771.95,1445.35z"/>
		<path class="st3" d="M740.43,1625.81c-10.68,3.98-10.78,40.63,2.46,69.02c13.83,29.65,43.94,54.05,54.12,48.06
			c10.8-6.36-0.33-47.29-16-75.26C771.63,1650.89,751.12,1621.82,740.43,1625.81z"/>
		<path class="st3" d="M775.77,1806.77c-13.89-10.59-34.89-19.37-40.05-13.65c-8.64,9.58,30.46,56.2,32.1,58.13
			c10.26,12.13,34.73,41.05,42.56,36.48C819.28,1882.53,809.48,1832.47,775.77,1806.77z"/>
		<path class="st3" d="M849.33,1121.39c-8.95,0.9-13.04,40.8-7.42,72.65c1.41,8.01,4.71,26.69,10.69,27.08
			c6.5,0.42,14.77-20.91,16.13-40.23C870.78,1151.64,857.44,1120.57,849.33,1121.39z"/>
		<path class="st3" d="M901.62,1292.82c-8.45-1.22-19.25,25-23.75,41.05c-10.36,37.01-4,79.96,6.4,81.43
			c8.91,1.26,20.84-27.95,25.45-48.93C917.07,1332.86,911.47,1294.25,901.62,1292.82z"/>
		<path class="st3" d="M887.8,1540.66c-7.26-3.36-24.98,21.07-34.74,34.53c-2.86,3.94-33.19,45.78-24.89,54
			c5.34,5.29,25.92-4.07,39.23-17.05C892.95,1587.23,896.25,1544.57,887.8,1540.66z"/>
		<path class="st3" d="M937.82,1714.9c-6.72-1.66-17.89,22.25-24.3,35.98c-15.44,33.05-30.39,82.56-21.26,86.97
			c7.83,3.78,33.93-25.31,44.92-58.73C946.7,1750.21,945.3,1716.76,937.82,1714.9z"/>
	</g>
	<g>
		<path class="st2" d="M2948.6,1676.91c18.29,39.99,20.91,93.36,22.29,93.14c0.88-0.14-3.21-45.41-1.84-93.15
			c2.69-93.32,24.23-125.7,31.91-135.99c4.85-6.49,22.09-29.59,36.64-25.1c12.48,3.85,20.42,26.01,20.93,51.63
			c1.85,93.15-26.75,196.28-14.32,195.98c0,0,25.99-126.12,63.28-179.09c17.16-24.38,56.2-54.5,77.12-41.08
			c11.44,7.34,14.44,26.04,15.65,33.64c3.53,22.02-2.28,41.51-15.39,73.87c-21.27,52.5-54.63,104.95-52.04,107.21
			c2.62,2.29,33.67-53.52,66.43-62.09c15.23-3.99,37.4-2.12,46.88,13.76c11.39,19.09-0.66,49.86-13.95,82.74
			c-12.45,30.78-31.08,75.57-73.38,117c-29.58,28.97-65.65,64.3-111.05,63.57c-91.16-1.48-137.44-147.04-145.54-172.52
			c-7.48-23.53-34.83-109.56-3.32-145.6C2908.04,1644.36,2933.66,1644.24,2948.6,1676.91z"/>
		<path class="st3" d="M2948.6,1676.91c18.29,39.99,20.91,93.36,22.29,93.14c0.88-0.14-3.21-45.41-1.84-93.15
			c2.69-93.32,24.23-125.7,31.91-135.99c4.85-6.49,22.09-29.59,36.64-25.1c5.6,1.73,10.29,7.16,13.8,14.93
			c-5.9,0.42-12.01,1.89-17.81,5.09c-13.19,7.27-19.09,20.3-22.64,29.78c-34.84,93.25-9.34,201.96-9.34,201.96
			c13.45,57.33,34.59,105.41,31.82,106.52c-3.09,1.24-25.19-60.1-38.85-57.34c-10.18,2.06-11.48,38.85-10.92,55.2
			c0.63,18.55,5.06,51.67,30.89,93.73c-69.32-29.93-105.29-143.08-112.35-165.26c-7.48-23.53-34.83-109.56-3.32-145.6
			C2908.04,1644.36,2933.66,1644.24,2948.6,1676.91z"/>
		<path class="st3" d="M3198.91,1773.15c6.94-3.37,23.17-9.54,27.09-4.33c4.74,6.3-7.72,30.36-26.79,34.57
			c-9.28,2.05-21.58-0.29-23.52-6.16C3173.23,1789.77,3188.12,1778.39,3198.91,1773.15z"/>
		<path class="st3" d="M3131.44,1781.6c3.15-0.19,6.77,9.61,7.72,17.74c1.68,14.34-4.22,29.57-8.07,29.33
			c-3.67-0.23-5.95-14.5-5.74-24.78C3125.55,1794.62,3127.9,1781.81,3131.44,1781.6z"/>
		<path class="st3" d="M3138.17,1863.26c9.37-5.5,26.4-13.65,28.94-10.17c2.65,3.62-10.63,19.56-26.27,29.79
			c-13.95,9.13-32.78,15.69-35.18,11.92C3103.01,1890.62,3120.37,1873.72,3138.17,1863.26z"/>
		<path class="st3" d="M3125.25,1585.22c3.02-0.17,6.37,11.7,7.46,20.13c2.45,18.87-4.09,38.08-7.79,37.82
			c-3.37-0.23-4.6-16.59-4.94-21.07C3118.7,1605.26,3121.38,1585.44,3125.25,1585.22z"/>
		<path class="st3" d="M3152.16,1659.39c3.18,2.56-3.15,15.98-8.74,24.43c-9.08,13.72-24.18,26.34-28,23.56
			c-3.71-2.69,2.85-20.14,13.25-32.4C3136.67,1665.55,3148.97,1656.82,3152.16,1659.39z"/>
		<path class="st3" d="M3074.13,1719.85c3.19-0.46,8.52,10.73,9.72,21.58c1.83,16.62-5.93,33.26-9.66,32.79
			c-4.06-0.52-4.24-21.48-4.28-27.04C3069.88,1743.64,3069.69,1720.5,3074.13,1719.85z"/>
		<path class="st3" d="M3088.97,1804.81c5.03,1.88,5.07,19.13-1.16,32.49c-6.51,13.96-20.69,25.44-25.48,22.63
			c-5.09-2.99,0.15-22.26,7.53-35.43C3074.28,1816.62,3083.93,1802.93,3088.97,1804.81z"/>
		<path class="st3" d="M3072.33,1890c6.54-4.99,16.42-9.12,18.85-6.43c4.07,4.51-14.34,26.46-15.11,27.37
			c-4.83,5.71-16.35,19.32-20.04,17.17C3051.84,1925.67,3056.46,1902.1,3072.33,1890z"/>
		<path class="st3" d="M3037.7,1567.34c4.21,0.42,6.14,19.21,3.49,34.2c-0.67,3.77-2.22,12.57-5.03,12.75
			c-3.06,0.2-6.95-9.85-7.59-18.94C3027.6,1581.58,3033.88,1566.95,3037.7,1567.34z"/>
		<path class="st3" d="M3013.08,1648.05c3.98-0.58,9.06,11.77,11.18,19.32c4.88,17.42,1.88,37.64-3.01,38.33
			c-4.2,0.59-9.81-13.16-11.98-23.03C3005.81,1666.9,3008.44,1648.72,3013.08,1648.05z"/>
		<path class="st3" d="M3019.59,1764.72c3.42-1.58,11.76,9.92,16.35,16.26c1.34,1.85,15.63,21.55,11.72,25.42
			c-2.51,2.49-12.2-1.92-18.47-8.03C3017.16,1786.65,3015.61,1766.57,3019.59,1764.72z"/>
		<path class="st3" d="M2996.04,1846.75c3.16-0.78,8.42,10.47,11.44,16.94c7.27,15.56,14.3,38.87,10.01,40.94
			c-3.68,1.78-15.98-11.92-21.15-27.65C2991.86,1863.37,2992.52,1847.63,2996.04,1846.75z"/>
	</g>
	<g>
		<path class="st13" d="M2161.41,1990.12h3769.01c23.96,0,43.39-19.3,43.39-43.1v-793.82c0-23.81-19.42-43.1-43.39-43.1H2252.21
			c-17.22,0-32.9,10.08-39.74,25.79c-103.28,237.33-98.67,675.87-94.43,812.49C2118.77,1971.64,2137.98,1990.12,2161.41,1990.12z"/>
		<path class="st14" d="M5930.42,1110.09h-33.1c-104.22,404.74-280.28,664.73-364.97,706.23c-73.25,35.9-154.45,56.16-154.45,56.16
			s-46.33,11.56-94.78,17.55c-125.66,15.53-2394.72,48.9-3165,59.82c1.48,22.56,20.35,40.25,43.28,40.25h3769.01
			c23.96,0,43.39-19.3,43.39-43.1v-793.82C5973.81,1129.39,5954.39,1110.09,5930.42,1110.09z"/>
		<path class="st15" d="M5059.66,1742.57c-106.96,0-193.66,86.71-193.66,193.67c0,18.7,2.66,36.77,7.6,53.88h372.12
			c4.94-17.11,7.6-35.18,7.6-53.88C5253.33,1829.28,5166.62,1742.57,5059.66,1742.57z"/>
		<circle class="st16" cx="5059.66" cy="1936.24" r="168.82"/>
		<path class="st17" d="M5166.44,1805.48c21.5,28.33,34.27,63.66,34.27,101.97c0,93.24-75.58,168.82-168.82,168.82
			c-40.51,0-77.68-14.27-106.78-38.06c30.83,40.62,79.62,66.85,134.55,66.85c93.24,0,168.82-75.58,168.82-168.82
			C5228.48,1883.51,5204.31,1836.44,5166.44,1805.48z"/>
		<circle class="st13" cx="5059.66" cy="1936.24" r="86.81"/>
		<path class="st18" d="M5073.67,1850.57c22.94,15.62,38.01,41.95,38.01,71.8c0,47.94-38.86,86.81-86.81,86.81
			c-4.77,0-9.44-0.4-14-1.14c13.91,9.47,30.7,15.01,48.79,15.01c47.94,0,86.81-38.86,86.81-86.81
			C5146.47,1893.06,5114.95,1857.27,5073.67,1850.57z"/>
		<path class="st15" d="M3045.37,1742.57c-106.96,0-193.67,86.71-193.67,193.67c0,18.7,2.66,36.77,7.6,53.88h372.12
			c4.94-17.11,7.6-35.18,7.6-53.88C3239.04,1829.28,3152.33,1742.57,3045.37,1742.57z"/>
		<g>
			<path class="st19" d="M5072.83,1868.97c0-3.52-6.21-6.37-13.87-6.37s-13.87,2.85-13.87,6.37s6.21,6.37,13.87,6.37
				S5072.83,1872.49,5072.83,1868.97z"/>
			<path class="st19" d="M5072.83,2003.5c0,3.52-6.21,6.37-13.87,6.37s-13.87-2.85-13.87-6.37c0-3.52,6.21-6.37,13.87-6.37
				S5072.83,1999.99,5072.83,2003.5z"/>
			<ellipse class="st19" cx="5126.23" cy="1936.24" rx="6.37" ry="13.87"/>
			<ellipse class="st19" cx="4991.7" cy="1936.24" rx="6.37" ry="13.87"/>
			<path class="st19" d="M5096.72,1993.61c2.49,2.49,8.89,0.11,14.31-5.3s7.79-11.82,5.3-14.31c-2.49-2.49-8.89-0.11-14.31,5.3
				C5096.61,1984.71,5094.24,1991.12,5096.72,1993.61z"/>
			<path class="st19" d="M5001.59,1898.48c-2.49-2.49-0.11-8.89,5.3-14.31c5.42-5.42,11.82-7.79,14.31-5.3
				c2.49,2.49,0.11,8.89-5.3,14.31C5010.49,1898.59,5004.08,1900.96,5001.59,1898.48z"/>
			<path class="st19" d="M5116.34,1898.48c2.49-2.49,0.11-8.89-5.3-14.31c-5.42-5.42-11.82-7.79-14.31-5.3
				c-2.49,2.49-0.11,8.89,5.3,14.31C5107.44,1898.59,5113.85,1900.96,5116.34,1898.48z"/>
			<path class="st19" d="M5021.21,1993.61c-2.49,2.49-8.89,0.11-14.31-5.3c-5.42-5.42-7.79-11.82-5.3-14.31
				c2.49-2.49,8.89-0.11,14.31,5.3C5021.32,1984.71,5023.69,1991.12,5021.21,1993.61z"/>
		</g>
		<circle class="st16" cx="3045.37" cy="1936.24" r="168.82"/>
		<path class="st17" d="M3145.01,1799.96c21.71,28.41,34.61,63.9,34.61,102.41c0,93.24-75.58,168.82-168.82,168.82
			c-37.27,0-71.71-12.09-99.64-32.54c30.85,40.36,79.48,66.41,134.21,66.41c93.24,0,168.82-75.58,168.82-168.82
			C3214.19,1880.27,3186.95,1830.67,3145.01,1799.96z"/>
		<circle class="st13" cx="3045.37" cy="1936.24" r="86.81"/>
		<path class="st18" d="M3053.03,1849.79c23.61,15.51,39.21,42.22,39.21,72.58c0,47.94-38.86,86.81-86.8,86.81
			c-2.58,0-5.13-0.13-7.66-0.36c13.67,8.98,30.02,14.22,47.6,14.22c47.94,0,86.8-38.86,86.8-86.81
			C3132.18,1890.88,3097.38,1853.67,3053.03,1849.79z"/>
		<g>
			<path class="st19" d="M3058.54,1868.97c0-3.52-6.21-6.37-13.87-6.37s-13.87,2.85-13.87,6.37s6.21,6.37,13.87,6.37
				S3058.54,1872.49,3058.54,1868.97z"/>
			<path class="st19" d="M3058.54,2003.5c0,3.52-6.21,6.37-13.87,6.37s-13.87-2.85-13.87-6.37c0-3.52,6.21-6.37,13.87-6.37
				S3058.54,1999.99,3058.54,2003.5z"/>
			<ellipse class="st19" cx="3111.94" cy="1936.24" rx="6.37" ry="13.87"/>
			<ellipse class="st19" cx="2977.41" cy="1936.24" rx="6.37" ry="13.87"/>
			<path class="st19" d="M3082.43,1993.61c2.49,2.49,8.89,0.11,14.31-5.3s7.79-11.82,5.3-14.31c-2.49-2.49-8.89-0.11-14.31,5.3
				C3082.32,1984.71,3079.95,1991.12,3082.43,1993.61z"/>
			<path class="st19" d="M2987.3,1898.48c-2.49-2.49-0.11-8.89,5.3-14.31c5.42-5.42,11.82-7.79,14.31-5.3
				c2.49,2.49,0.11,8.89-5.3,14.31C2996.2,1898.59,2989.79,1900.96,2987.3,1898.48z"/>
			<path class="st19" d="M3102.05,1898.48c2.49-2.49,0.11-8.89-5.3-14.31c-5.42-5.42-11.82-7.79-14.31-5.3
				c-2.49,2.49-0.11,8.89,5.3,14.31C3093.15,1898.59,3099.56,1900.96,3102.05,1898.48z"/>
			<path class="st19" d="M3006.92,1993.61c-2.49,2.49-8.89,0.11-14.31-5.3s-7.79-11.82-5.3-14.31c2.49-2.49,8.89-0.11,14.31,5.3
				C3007.03,1984.71,3009.4,1991.12,3006.92,1993.61z"/>
		</g>
		
			<rect x="2708.74" y="1163.97" transform="matrix(-1 -1.224647e-16 1.224647e-16 -1 8589.1631 2873.9148)" class="st20" width="3171.68" height="545.97"/>
		<polygon class="st21" points="4898.35,1305.23 4759.74,1491.03 4759.74,1559.34 4950.61,1305.23 		"/>
		<polygon class="st21" points="5441.51,1305.23 5302.89,1491.03 5302.89,1559.34 5493.77,1305.23 		"/>
		<path class="st22" d="M5592.33,1532.02c-41.86,43.71-112.14,85.3-184.21,105.82c-45.5,12.96-85.78,15.84-116.94,15.25v15.33
			h401.23v-380.74C5679.29,1389.57,5645.65,1476.34,5592.33,1532.02z"/>
		<polygon class="st21" points="3916.25,1305.23 3777.63,1491.03 3777.63,1559.34 3968.51,1305.23 		"/>
		<polygon class="st21" points="3398.75,1305.23 3260.14,1491.03 3260.14,1559.34 3451.01,1305.23 		"/>
		<polygon class="st21" points="2880.86,1305.23 2742.24,1491.03 2742.24,1559.34 2933.11,1305.23 		"/>
		
			<rect x="2708.74" y="1163.97" transform="matrix(-1 -1.224647e-16 1.224647e-16 -1 8589.1631 2468.0264)" class="st15" width="3171.68" height="140.09"/>
		
			<rect x="2243.62" y="1163.97" transform="matrix(-1 -1.224647e-16 1.224647e-16 -1 4954.7046 3154.0857)" class="st23" width="467.46" height="826.14"/>
		<path class="st22" d="M3105.41,1528.89c-50.64,41.91-135.67,81.78-222.86,101.46c-55.05,12.42-103.78,15.18-141.48,14.62v14.7
			h485.43l0.38-354.43C3211.01,1402.91,3169.92,1475.5,3105.41,1528.89z"/>
		<path class="st22" d="M3622.03,1531.38c-51.47,41.11-137.89,80.22-226.51,99.52c-55.94,12.19-105.48,14.9-143.79,14.34v14.42
			h493.36l-0.07-355.6C3728.89,1399.88,3687.58,1479.01,3622.03,1531.38z"/>
		<path class="st22" d="M4136.16,1532.62c-51.47,40.71-137.89,79.44-226.51,98.56c-55.94,12.07-105.48,14.75-143.79,14.2v14.28
			h493.36v-354.6C4243.09,1399.95,4201.72,1480.76,4136.16,1532.62z"/>
		<path class="st22" d="M5142.77,1532.02c-53.24,43.71-142.63,85.3-234.29,105.82c-57.87,12.96-109.11,15.84-148.74,15.25v15.33
			h510.32v-380.74C5253.37,1389.57,5210.58,1476.34,5142.77,1532.02z"/>
		<path class="st22" d="M5843.04,1536.8c-15.78,43.71-42.28,85.3-69.46,105.82c-17.15,12.96-32.35,15.84-44.09,15.25v15.33h151.29
			v-380.74C5875.83,1394.35,5863.14,1481.12,5843.04,1536.8z"/>
		
			<rect x="2724.91" y="1659.66" transform="matrix(-1 -1.224647e-16 1.224647e-16 -1 8605.3262 3369.6013)" class="st15" width="3155.51" height="50.29"/>
		
			<rect x="2498.73" y="1203.48" transform="matrix(-1 -1.224647e-16 1.224647e-16 -1 5177.4731 3125.8496)" class="st20" width="180.01" height="718.89"/>
		<polygon class="st21" points="2583.53,1203.48 2498.73,1371.38 2498.73,1430.06 2613.16,1203.48 		"/>
		<rect x="2275.39" y="1203.48" class="st20" width="180.01" height="718.89"/>
		<polygon class="st21" points="2360.18,1203.48 2275.39,1371.38 2275.39,1430.06 2389.82,1203.48 		"/>
		
			<rect x="5692.48" y="1174.56" transform="matrix(-1 -1.224647e-16 1.224647e-16 -1 11417.292 2884.5022)" class="st23" width="32.33" height="535.39"/>
		
			<rect x="5266.86" y="1174.56" transform="matrix(-1 -1.224647e-16 1.224647e-16 -1 10566.0459 2884.5022)" class="st23" width="32.33" height="535.39"/>
		
			<rect x="3745.02" y="1174.56" transform="matrix(-1 -1.224647e-16 1.224647e-16 -1 7522.3604 2884.5022)" class="st23" width="32.33" height="535.39"/>
		
			<rect x="3226.88" y="1167.15" transform="matrix(-1 -1.224647e-16 1.224647e-16 -1 6486.0859 2869.6931)" class="st23" width="32.33" height="535.39"/>
		
			<rect x="2708.74" y="1288.82" transform="matrix(-1 -1.224647e-16 1.224647e-16 -1 5449.8125 2998.7595)" class="st15" width="32.33" height="421.13"/>
		<path class="st22" d="M2164.57,1751.25h34.36c11.77,0,21.31-9.54,21.31-21.31v-441.12c0-8.98-22.33-35.4-35.92,0
			c-25.14,65.53-50.29,431.9-50.29,431.9C2134.03,1737.58,2147.7,1751.25,2164.57,1751.25z"/>
		<path class="st24" d="M2116.38,1812.31h21.24c7.94,0,14.37,6.43,14.37,14.37V1908c0,7.94-6.43,14.37-14.37,14.37h-20.28
			C2116.66,1893.03,2116.15,1855.47,2116.38,1812.31z"/>
		<path class="st24" d="M2761.87,1898.52h46.4c4.54,0,8.23-3.68,8.23-8.23v-13.1c0-4.54-3.68-8.23-8.23-8.23h-46.4
			c-4.54,0-8.23,3.68-8.23,8.23v13.1C2753.64,1894.84,2757.33,1898.52,2761.87,1898.52z"/>
		<path class="st24" d="M3785.57,1964.88h46.4c4.54,0,8.23-3.68,8.23-8.23v-13.1c0-4.54-3.68-8.23-8.23-8.23h-46.4
			c-4.54,0-8.23,3.68-8.23,8.23v13.1C3777.34,1961.2,3781.03,1964.88,3785.57,1964.88z"/>
		<path class="st24" d="M4791.78,1964.88h46.4c4.54,0,8.23-3.68,8.23-8.23v-13.1c0-4.54-3.68-8.23-8.23-8.23h-46.4
			c-4.54,0-8.23,3.68-8.23,8.23v13.1C4783.55,1961.2,4787.23,1964.88,4791.78,1964.88z"/>
		<path class="st24" d="M5298.24,1964.88h46.4c4.54,0,8.23-3.68,8.23-8.23v-13.1c0-4.54-3.68-8.23-8.23-8.23h-46.4
			c-4.54,0-8.23,3.68-8.23,8.23v13.1C5290.01,1961.2,5293.7,1964.88,5298.24,1964.88z"/>
		<path class="st25" d="M5607.45,1935.33h272.95c4.97,0,9-4.03,9-9v-158.89c0-4.97-4.03-9-9-9h-272.95c-4.97,0-9,4.03-9,9v158.89
			C5598.45,1931.3,5602.48,1935.33,5607.45,1935.33z"/>
		<g>
			<g>
				<rect x="5620" y="1775.5" class="st19" width="249.64" height="8.98"/>
			</g>
			<g>
				<rect x="5620" y="1793.46" class="st19" width="249.64" height="8.98"/>
			</g>
			<g>
				<rect x="5620" y="1811.42" class="st19" width="249.64" height="8.98"/>
			</g>
			<g>
				<rect x="5620" y="1829.38" class="st19" width="249.64" height="8.98"/>
			</g>
			<g>
				<rect x="5620" y="1847.34" class="st19" width="249.64" height="8.98"/>
			</g>
			<g>
				<rect x="5620" y="1865.3" class="st19" width="249.64" height="8.98"/>
			</g>
			<g>
				<rect x="5620" y="1883.25" class="st19" width="249.64" height="8.98"/>
			</g>
			<g>
				<rect x="5620" y="1901.21" class="st19" width="249.64" height="8.98"/>
			</g>
		</g>
		<path class="st24" d="M5923.52,1787.17v-116.74c0-15.87,12.87-28.74,28.74-28.74h21.55v174.21h-21.55
			C5936.39,1815.91,5923.52,1803.04,5923.52,1787.17z"/>
		<path class="st15" d="M2202.63,1242.85c4.17-6.25-0.06-14.65-7.57-14.96c-46.39-1.9-181.52-5.49-202.24,16.15
			c-16.43,17.16-53.14,130.13-34.78,154.59c5.78,7.7,17.18,17.87,27.54,15.56c3.96-0.88,46.11-132.66,67.05-144.87
			c7.59-4.43,117.8-0.98,130.51-7.18C2190.97,1258.32,2197.75,1250.16,2202.63,1242.85z"/>
		
			<rect x="4260.46" y="1163.97" transform="matrix(-1 -1.224647e-16 1.224647e-16 -1 9020.1953 3154.0857)" class="st23" width="499.28" height="826.14"/>
		<g>
			<rect x="4503.81" y="1163.97" class="st16" width="12.57" height="826.14"/>
		</g>
		<g>
			<rect x="2470.78" y="1163.97" class="st16" width="12.57" height="826.14"/>
		</g>
		
			<rect x="4533.45" y="1203.48" transform="matrix(-1 -1.224647e-16 1.224647e-16 -1 9260.8545 3125.8496)" class="st20" width="193.96" height="718.89"/>
		<rect x="4292.79" y="1203.48" class="st20" width="193.96" height="718.89"/>
		
			<rect x="2708.74" y="1163.97" transform="matrix(-1 -1.224647e-16 1.224647e-16 -1 8589.1631 2349.6477)" class="st26" width="3171.68" height="21.71"/>
		<path class="st22" d="M4687.43,1729.62c-16.93,61.43-39.25,142.41-109.98,180.17c-6.74,3.6-17.21,8.55-31.33,12.58h181.29v-718.89
			h-4.31C4711.12,1446.08,4701.21,1679.61,4687.43,1729.62z"/>
		<path class="st22" d="M2639.4,1729.62c-16.93,61.43-39.25,142.41-109.98,180.17c-6.74,3.6-17.21,8.55-31.33,12.58h181.29v-718.89
			h-4.31C2663.08,1446.08,2653.18,1679.61,2639.4,1729.62z"/>
		<path class="st22" d="M2416.06,1729.62c-16.93,61.43-39.25,142.41-109.98,180.17c-6.74,3.6-17.21,8.55-31.33,12.58h181.29v-718.89
			h-4.31C2439.74,1446.08,2429.84,1679.61,2416.06,1729.62z"/>
		<path class="st22" d="M4486.75,1922.37v-681.32c-10.86,222.88-20.31,427.07-33.09,473.45c-16.93,61.43-39.25,142.41-109.98,180.17
			c-9.55,5.1-26.57,12.92-50.9,16.97v10.73H4486.75z"/>
		<polygon class="st21" points="4377.58,1203.48 4292.79,1371.38 4292.79,1430.06 4407.22,1203.48 		"/>
		<polygon class="st21" points="4618.48,1203.48 4533.68,1371.38 4533.68,1430.06 4648.11,1203.48 		"/>
		
			<ellipse transform="matrix(0.5 -0.866 0.866 0.5 -149.1559 3576.8474)" class="st27" cx="3023.06" cy="1917.6" rx="29.84" ry="18.13"/>
		
			<ellipse transform="matrix(0.5 -0.866 0.866 0.5 858.5859 5317.6226)" class="st27" cx="5034.48" cy="1915.26" rx="29.84" ry="18.13"/>
		<g>
			<path class="st28" d="M2909.64,1976.46c-5.12,1.75-10.67-1.18-12.07-6.41c-5.08-19.08-9.09-49.28,1.67-82.91
				c14.2-44.39,45.62-69.5,64.87-81.25c4.65-2.84,10.73-1.16,13.22,3.68l0,0c2.26,4.38,0.72,9.74-3.48,12.3
				c-16.84,10.26-44.39,32.2-56.79,70.97c-9.39,29.34-5.86,55.74-1.4,72.41C2916.93,1969.98,2914.27,1974.87,2909.64,1976.46
				L2909.64,1976.46z"/>
		</g>
		<g>
			<path class="st28" d="M4929.33,1976.46c-5.12,1.75-10.67-1.18-12.07-6.41c-5.08-19.08-9.09-49.28,1.67-82.91
				c14.2-44.39,45.62-69.5,64.88-81.25c4.65-2.84,10.73-1.16,13.22,3.68l0,0c2.26,4.38,0.72,9.74-3.48,12.3
				c-16.84,10.26-44.39,32.2-56.79,70.97c-9.39,29.34-5.86,55.74-1.4,72.41C4936.62,1969.98,4933.96,1974.87,4929.33,1976.46
				L4929.33,1976.46z"/>
		</g>
		
			<rect x="4759.74" y="1391.18" transform="matrix(-1 -1.224647e-16 1.224647e-16 -1 10026.5977 2817.3801)" class="st23" width="507.12" height="35.02"/>
		<path class="st29" d="M4155.87,1793.46h-877.69c-9.92,0-18.04-8.12-18.04-18.04v-6.13c0-9.92,8.12-18.04,18.04-18.04h877.69
			c9.92,0,18.04,8.12,18.04,18.04v6.13C4173.91,1785.34,4165.79,1793.46,4155.87,1793.46z"/>
		<path class="st29" d="M5528.36,1793.46h-278.45c-9.92,0-18.04-8.12-18.04-18.04v-6.13c0-9.92,8.12-18.04,18.04-18.04h278.45
			c9.92,0,18.04,8.12,18.04,18.04v6.13C5546.4,1785.34,5538.28,1793.46,5528.36,1793.46z"/>
		<path class="st29" d="M2874.4,1793.46h-102.46c-9.92,0-18.04-8.12-18.04-18.04v-6.13c0-9.92,8.12-18.04,18.04-18.04h102.46
			c9.92,0,18.04,8.12,18.04,18.04v6.13C2892.43,1785.34,2884.32,1793.46,2874.4,1793.46z"/>
		<path class="st29" d="M4885.3,1793.46h-81.35c-9.92,0-18.04-8.12-18.04-18.04v-6.13c0-9.92,8.12-18.04,18.04-18.04h81.35
			c9.92,0,18.04,8.12,18.04,18.04v6.13C4903.34,1785.34,4895.22,1793.46,4885.3,1793.46z"/>
	</g>
	<g>
		<path class="st30" d="M4590.9,444.51c-109.75,0-198.72,88.97-198.72,198.72c0,79.99,122.13,271.06,174.9,349.88
			c11.37,16.99,36.33,17.03,47.76,0.08c52.84-78.36,174.77-268.04,174.77-349.96C4789.61,533.48,4700.65,444.51,4590.9,444.51z"/>
		
			<ellipse transform="matrix(0.2757 -0.9612 0.9612 0.2757 2708.9839 4877.374)" class="st31" cx="4590.9" cy="641.13" rx="84.44" ry="84.44"/>
		<path class="st32" d="M4605.06,445.07c42.91,15.44,91.8,44.01,119.04,96.71c28.89,55.89,19.32,111.56,15.28,135.01
			c-20.8,120.92-125.64,205.24-211.96,255.44c15.04,23.74,28.81,44.68,39.66,60.87c11.37,16.99,36.33,17.03,47.76,0.08
			c52.84-78.36,174.77-268.04,174.77-349.96C4789.61,538.24,4708.19,452.34,4605.06,445.07z"/>
		<path class="st33" d="M4399.61,589.43c11.07,5.37,23.5,8.39,36.64,8.39c46.43,0,84.06-37.64,84.06-84.06
			c0-18.47-5.97-35.53-16.06-49.4C4453.64,488.92,4415.07,534.34,4399.61,589.43z"/>
	</g>
	<g>
		<g>
			<g>
				<g>
					<path class="st34" d="M1785.31,1762.92c-6.01-6.09-12.76-11.41-20.12-15.84c-1.89-1.14-4.36-0.48-5.42,1.45
						c-1,1.82-0.39,4.11,1.39,5.18c6.81,4.1,13.07,9.02,18.63,14.66c7.48,7.58,13.59,16.29,18.19,25.94
						c0.89,1.87,3.12,2.69,5.02,1.87c2.02-0.87,2.92-3.26,1.97-5.25C1799.99,1780.52,1793.39,1771.11,1785.31,1762.92z"/>
				</g>
				<g>
					<path class="st35" d="M1811.09,599.36h-600.13c-44.55,0-80.66,36.11-80.66,80.66v1281.05c0,44.55,36.11,80.66,80.66,80.66
						h600.13c44.55,0,80.66-36.11,80.66-80.66V680.02C1891.75,635.47,1855.64,599.36,1811.09,599.36z"/>
					<path class="st36" d="M1810.09,629.55h-600.51c-27.86,0-50.44,22.58-50.44,50.44v1281.23c0,27.86,22.58,50.44,50.44,50.44
						h600.51c27.86,0,50.44-22.58,50.44-50.44V679.98C1860.53,652.13,1837.94,629.55,1810.09,629.55z"/>
					<path class="st36" d="M1159.14,998.71c4.83-0.82,9.69-1.69,14.56-2.63l-14.56-28.52V998.71z"/>
					<path class="st37" d="M1611.16,1188.16c-1.01,11.53-0.94,22.07,0.3,34.67c0.82,8.37,2.03,16.22,3.5,23.58
						c19.93,16.82,42.15,35.56,66.73,56.29c30.26,25.52,99.99,82.85,178.84,147.35v-49.9c-53.8-45.18-83.8-75.81-182.18-157.43
						C1646.26,1216.08,1626.18,1200.04,1611.16,1188.16z"/>
					<path class="st37" d="M1413.45,1014.46c-3.31-3.68-14.59-16.51-33.32-28.32c-5.4-3.41-14.2-8.89-26.66-13.33
						c-28.61-10.2-53.85-6.85-66.64-5c-14.38,2.08-24.78,5.51-28.32,6.66c-17.84,5.79-40.67,12.06-64.51,17.37
						c-6.71,1.5-13.5,2.92-20.29,4.23c-4.87,0.94-9.73,1.82-14.56,2.63v49.13c13.23-2.36,25.58-5.22,36.76-8.26
						c6.98-1.89,13.5-3.85,19.49-5.8c17-5.52,29.72-10.92,36.45-14.32c2.71-1.37,11.18-5.83,23.32-8.33
						c5.75-1.18,24.26-4.39,49.98,3.33c29.38,8.81,48.63,26,54.98,31.66c33.84,30.12,72.38,55.19,103.3,88.3
						c2.67,2.86,25.51,22.38,69.31,59.43l3.75-1.91l1.34-1.71c0.81-13.26,2.55-23.31,5.67-40.9c-4.95-4.32-10.42-9.18-16.76-14.91
						C1502.39,1094.34,1453.39,1058.93,1413.45,1014.46z"/>
					<g>
						<path class="st38" d="M1199.43,1116.66c-10.03-2.05-24.53-3.08-40.29-3.49v14.98c15.64,0.38,29.03,1.34,37.33,3.11
							c3.46,0.74,6.94-1.09,8.35-4.33C1206.71,1122.57,1204.09,1117.61,1199.43,1116.66z"/>
						<path class="st38" d="M1195.09,1537.31c-5.02-9.07-11.26-20.36-23.95-25.06c-4.14-1.53-8.21-2.1-12-2.11v15.01
							c2.22,0.01,4.53,0.33,6.79,1.17c6.95,2.58,10.86,8.9,16.04,18.26c8.52,15.4,16.84,30.99,24.8,46.44
							c1.89,3.67,6.38,5.13,10.07,3.26c3.7-1.88,5.18-6.41,3.28-10.1C1212.08,1568.57,1203.68,1552.84,1195.09,1537.31z"/>
						<path class="st38" d="M1802.97,1680.93c-13.69,8.25-27.62,15.51-41.69,21.77l-81.21-164.02c-1.84-3.71-6.34-5.23-10.05-3.39
							c-3.71,1.84-5.23,6.34-3.39,10.05l30.97,62.55l-43.3,20.58l-35.88-72.47c-1.84-3.71-6.34-5.23-10.05-3.39
							c-3.71,1.84-5.23,6.33-3.39,10.05l81.55,164.95c-0.48,0.16-0.94,0.31-1.43,0.48c-26.48,9.08-51.53,22.09-74.6,38.7
							c-4.58,3.3-5.47,9.76-2.02,14.22l0,0c3.31,4.27,9.39,5.11,13.78,1.95c21.45-15.45,44.73-27.53,69.32-35.96
							c8.28-2.84,14.34-4.45,20.77-6.16c5.56-1.48,11.3-3.01,18.98-5.42c27.83-8.76,55.36-21.32,81.97-37.36
							c4.81-2.9,6.27-9.2,3.26-13.93C1813.65,1679.53,1807.62,1678.12,1802.97,1680.93z M1725.33,1716.34
							c-7.24,2.28-12.77,3.75-18.11,5.17c-2.02,0.54-4.01,1.07-6.04,1.63l-40.22-81.23l43.3-20.58l43.17,87.19
							C1740.09,1711.4,1732.72,1714.01,1725.33,1716.34z"/>
						<path class="st38" d="M1178.22,1690.04l-19.09,11.62v17.55l26.88-16.36c3.54-2.15,4.66-6.77,2.51-10.3
							C1186.37,1689.01,1181.76,1687.89,1178.22,1690.04z"/>
						<path class="st38" d="M1727.98,629.55h-14.04h-7.41h-47.11c-3.75,16.52-7.44,33.2-11.06,50.03
							c-2.17,10.09-4.04,19.04-5.81,27.79l-313.34,165.78l-63.27-117.65l238.07-125.96h-42.75l-302.12,159.85v22.62l21.39-11.32
							l67.25,115.54l-72.74,38.49l-15.9-31.15v43.98l14.56,28.52c6.79-1.31,13.58-2.73,20.29-4.23l-9.86-19.31l237.78-125.8
							c4.96,12.73,12.18,21.48,21.54,26.03c13.14,6.38,25.51,2.48,37.48-1.29c10.93-3.45,22.24-7.02,35.37-3.24
							c0.17,0.05,16.95,4.99,25.77,18.54c11.81,18.13,6.84,47.74-11.85,73.8c-2.33,3.26-1.81,7.75,1.3,10.27
							c3.31,2.69,8.25,2.12,10.75-1.35c22.69-31.44,27.78-67.23,12.36-90.91c-11.64-17.88-31.93-24.12-34.2-24.77
							c-17.47-5.01-32.19-0.37-44.02,3.35c-11.56,3.65-19.02,5.7-26.42,2.11c-6.21-3.02-11.16-9.61-14.74-19.61l202.37-107.07
							c-6.86,36.39-14.93,83.76-35.92,200.23c-9.3,51.58-17.01,103.43-26.66,154.94c-4.77,25.49-8.65,45.14-11.56,61.56
							c-2.9,16.35-4.83,29.48-5.74,41.9l-207.97,105.85l-134.39-263.29c-5.99,1.94-12.51,3.9-19.49,5.8l136.06,266.56l-37.23,18.94
							l-135.59-75.76v22.9l114.13,63.77l-114.13,58.05v22.43l181.91-92.52l123.94,242.83c-16.81,10.86-33.4,21.7-50.3,32.87
							l-85.18-154.07c-2-3.62-6.57-4.94-10.19-2.93c-3.62,2-4.94,6.57-2.93,10.19l85.77,155.12c-13.72,9.11-27.75,18.49-42.36,28.32
							l-92.71-160.89c-2.07-3.59-6.65-4.82-10.24-2.75c-3.59,2.07-4.82,6.65-2.75,10.24l93.23,161.79
							c-31.44,21.2-65.87,44.59-106,71.87l-33.21,22.57c-16.25,11.04-32.59,22.13-48.97,33.25v24.16
							c20.15-13.67,40.23-27.3,60.2-40.87l11.09-7.54l149.7,263.55h22.99l-156.1-274.83l5.53-3.76
							c25.86-17.58,49.32-33.52,71.17-48.32l185.68,326.91h8.5h14.49h21.1c1.77-1.2,3.54-2.41,5.31-3.61l33.21-22.57
							c115.11-78.24,183.23-124.54,268.51-178.38v-23.63c-67.53,42.42-123.08,79.29-196.61,129.05l-172.89-338.72
							c18.06-11.57,36.56-23.27,56.21-35.54c49.61-30.95,99.91-61.32,149.96-90.55c32.04,28.12,73.45,64.24,120.35,105
							c-6.62,5.77-13.53,13.82-18.49,24.77c-8.35,18.4-6.41,34.87-5.68,41.07c2.55,21.68,12.96,37,16.38,42.03
							c7.74,11.38,25.16,36.04,50.78,71.47v-28.49c-18.15-25.26-30.76-43.17-37-52.35c-2.85-4.2-11.54-16.98-13.61-34.61
							c-0.63-5.41-2.12-18.06,4.31-32.24c4.27-9.41,10.41-16.06,16.05-20.6c9.88,8.58,19.97,17.34,30.25,26.26v-75.04
							c-96.68-83.24-173.16-149.51-189.15-164.33c-4.61-4.27-15.61-14.59-26.63-30.62c-5.29-7.7-21.64-32.79-29.79-73.62
							c-1.47-7.35-2.67-15.21-3.5-23.58c-1.24-12.59-1.31-23.13-0.3-34.67c1.68-19.18,6.36-41.12,13.61-79.84
							c2.56-13.66,4.94-27.36,7.26-41.07c33.93,1.24,63.44,4.97,87.8,11.13l0.9,0.23c5.52,1.4,13.49,3.43,23.16,3.43
							c2.82,0,5.8-0.2,8.89-0.61c0.26,1.16,0.53,2.38,0.8,3.63c2.93,13.36,6.94,31.66,13.78,40.59
							c8.03,10.49,18.11,19.43,29.96,26.59l0.42,0.25c4.31,2.62,11.57,7.74,21.8,15.38c-13.64,18.98-32.33,53.12-30.34,67.54
							c1.63,11.8,7.39,20.1,11.58,25.32c9.86,12.28,31.66,31.86,59.74,55.1v-19.54c-22.61-19.01-39.97-34.88-48.04-44.94
							c-1.96-2.44-7.16-8.93-8.42-17.99c-1.06-7.67,14.49-38.67,27.35-56.52c8.33,6.36,18.03,13.88,29.11,22.57v-19
							c-28.55-22.24-46.8-35.75-54.99-40.73l-0.46-0.28c-3.82-2.3-15.43-9.31-25.8-22.86c-4.81-6.29-8.71-24.07-11.04-34.69
							c-0.32-1.45-0.61-2.8-0.9-4.07c8.87-3.41,15.06-8.27,21.52-13.37c3.62-2.85,7.37-5.8,11.82-8.64
							c14.92-9.51,27.61-11.41,55.39-15.57c1.42-0.21,2.92-0.41,4.46-0.6v-15.1c-2.35,0.26-4.59,0.55-6.68,0.86
							c-28.13,4.21-43.62,6.52-61.23,17.75c-5.08,3.24-9.31,6.57-13.04,9.51c-7.37,5.81-13.19,10.39-23.07,12.86
							c-13.35,3.34-24.62,0.47-32.07-1.43l-0.93-0.23c-24.9-6.3-54.79-10.15-88.96-11.5c3.77-22.63,7.47-45.27,11.53-67.85
							l37.28-202.39c2.79-13.01,9.15-44.92,16.62-82.49l4.09-20.59c2.41-12.11,4.88-24.53,7.35-36.88
							c25.57,65.1,53.63,130.07,83.59,193.49c20.68,43.77,42.61,87.46,65.51,130.68v-43.19c-14.4-27.98-28.36-56.1-41.82-84.28
							l2.81,1.25l39-88.12v-49.4l-51.38,116.08C1780.05,756.59,1752.81,693.12,1727.98,629.55z M1261.05,909.22l-67.25-115.54
							l57.91-30.64l64.26,117.13L1261.05,909.22z M1646.74,1924.14c-20.36,13.8-42.15,28.61-65.97,44.8l-33.21,22.57
							c-6.38,4.34-12.8,8.69-19.21,13.04l-188.04-331.05c49.5-33.47,90.96-61.15,133.8-88.84L1646.74,1924.14z M1576.02,1496.96
							c0.03-0.1,0.1-0.13,0.19-0.12C1576.15,1496.88,1576.08,1496.92,1576.02,1496.96z M1633.37,1390.99
							c7.93,7.35,24.64,22.24,48.01,42.81c-34.16,20-68.41,40.52-102.47,61.38l-110.31-202.16c-1.97-3.64-6.52-5-10.16-3.02
							c-3.64,1.97-5,6.52-3.02,10.16l109.99,203.36c-9.59,5.91-19.19,11.81-28.74,17.77c-19.13,11.94-37.17,23.34-54.77,34.61
							l-123.02-241.02l198.39-100.91c0.17,5.46,0.54,11.08,1.14,17.08c6.76,68.6,33.84,110.26,41.65,121.62
							C1613.84,1372.73,1627.6,1385.65,1633.37,1390.99z"/>
					</g>
					<polygon class="st39" points="1159.14,1178.34 1159.14,1420.69 1636.15,629.55 1474.56,629.55 					"/>
					<path class="st40" d="M1813.5,629.33c20.91,157.01,28.32,386.54-47.14,644.64c-48.4,165.53-110.22,377.29-302.13,539.97
						c-95.64,81.07-200.78,130.8-302.44,160.32c5.81,21.44,25.47,37.4,48.73,37.4h600.28c27.81,0,49.74-22.89,49.74-50.7V679.66
						C1860.53,652.88,1839.89,630.91,1813.5,629.33z"/>
					<path class="st38" d="M1159.14,1715.06v246.16c0,27.86,22.58,50.44,50.44,50.44h600.51c27.86,0,50.44-22.58,50.44-50.44
						v-246.16H1159.14z"/>
				</g>
			</g>
			<g>
				<path class="st35" d="M1511.16,1933.24c-9.6,0-17.38,7.78-17.38,17.38c0,9.6,7.78,17.38,17.38,17.38
					c9.6,0,17.38-7.78,17.38-17.38C1528.54,1941.02,1520.76,1933.24,1511.16,1933.24z"/>
				<path class="st35" d="M1430.72,1933.24c-9.6,0-17.38,7.78-17.38,17.38c0,9.6,7.78,17.38,17.38,17.38
					c9.6,0,17.38-7.78,17.38-17.38C1448.11,1941.02,1440.32,1933.24,1430.72,1933.24z"/>
				<path class="st35" d="M1591.59,1933.24c-9.6,0-17.38,7.78-17.38,17.38c0,9.6,7.78,17.38,17.38,17.38
					c9.6,0,17.38-7.78,17.38-17.38C1608.97,1941.02,1601.19,1933.24,1591.59,1933.24z"/>
			</g>
			<g>
				<path class="st30" d="M1323.34,787.12c-47.74,0-86.44,38.7-86.44,86.44c0,34.8,53.13,117.92,76.08,152.2
					c4.95,7.39,15.81,7.41,20.78,0.04c22.99-34.09,76.03-116.6,76.03-152.24C1409.78,825.82,1371.08,787.12,1323.34,787.12z"/>
				<path class="st32" d="M1329.5,787.36c18.67,6.72,39.93,19.14,51.79,42.07c12.57,24.31,8.4,48.53,6.65,58.73
					c-9.05,52.6-54.65,89.28-92.2,111.12c6.54,10.33,12.53,19.44,17.25,26.48c4.95,7.39,15.81,7.41,20.78,0.03
					c22.99-34.09,76.03-116.6,76.03-152.24C1409.78,827.89,1374.36,790.52,1329.5,787.36z"/>
				<path class="st33" d="M1240.12,850.16c4.82,2.34,10.22,3.65,15.94,3.65c20.2,0,36.57-16.37,36.57-36.57
					c0-8.03-2.6-15.46-6.99-21.49C1263.63,806.44,1246.85,826.2,1240.12,850.16z"/>
				
					<ellipse transform="matrix(0.2898 -0.9571 0.9571 0.2898 106.5657 1885.2002)" class="st31" cx="1323.54" cy="870.8" rx="32.4" ry="32.4"/>
			</g>
			<g>
				<path class="st30" d="M1722.59,1388.03c-47.74,0-86.44,38.7-86.44,86.44c0,34.8,53.13,117.92,76.08,152.2
					c4.95,7.39,15.81,7.41,20.78,0.04c22.99-34.09,76.03-116.6,76.03-152.24C1809.03,1426.73,1770.33,1388.03,1722.59,1388.03z"/>
				<path class="st32" d="M1728.75,1388.27c18.67,6.72,39.93,19.14,51.79,42.07c12.57,24.31,8.4,48.53,6.65,58.73
					c-9.05,52.6-54.65,89.28-92.2,111.12c6.54,10.33,12.53,19.44,17.25,26.48c4.95,7.39,15.81,7.41,20.78,0.03
					c22.99-34.09,76.03-116.6,76.03-152.24C1809.03,1428.81,1773.61,1391.44,1728.75,1388.27z"/>
				<path class="st33" d="M1639.38,1451.08c4.82,2.34,10.22,3.65,15.94,3.65c20.2,0,36.57-16.37,36.57-36.57
					c0-8.03-2.6-15.46-6.99-21.49C1662.88,1407.35,1646.1,1427.11,1639.38,1451.08z"/>
				
					<ellipse transform="matrix(0.2898 -0.9571 0.9571 0.2898 -185.0079 2694.1008)" class="st31" cx="1722.79" cy="1471.71" rx="32.4" ry="32.4"/>
			</g>
			
				<ellipse transform="matrix(0.4719 -0.8817 0.8817 0.4719 -925.8221 2032.3325)" class="st37" cx="1233.46" cy="1788.94" rx="28.8" ry="28.8"/>
			<path class="st37" d="M1672.41,1797.91h-365.83c-4.93,0-8.96-4.03-8.96-8.96l0,0c0-4.93,4.03-8.96,8.96-8.96h365.83
				c4.93,0,8.96,4.03,8.96,8.96l0,0C1681.37,1793.87,1677.34,1797.91,1672.41,1797.91z"/>
			
				<ellipse transform="matrix(0.7071 -0.7071 0.7071 0.7071 -958.8773 1419.0146)" class="st37" cx="1233.46" cy="1866.97" rx="28.8" ry="28.8"/>
			<path class="st37" d="M1672.41,1875.94h-365.83c-4.93,0-8.96-4.03-8.96-8.96l0,0c0-4.93,4.03-8.96,8.96-8.96h365.83
				c4.93,0,8.96,4.03,8.96,8.96l0,0C1681.37,1871.9,1677.34,1875.94,1672.41,1875.94z"/>
		</g>
		<circle class="st41" cx="1291.14" cy="1059.71" r="15.58"/>
		<circle class="st41" cx="1233.46" cy="1090.87" r="15.58"/>
		
			<ellipse transform="matrix(0.2298 -0.9732 0.9732 0.2298 -146.9085 2123.7917)" class="st41" cx="1268.31" cy="1154.71" rx="15.58" ry="15.58"/>
		<circle class="st41" cx="1297.62" cy="1213.97" r="15.58"/>
		
			<ellipse transform="matrix(0.9239 -0.3827 0.3827 0.9239 -385.2005 605.2452)" class="st41" cx="1328.78" cy="1270.89" rx="15.58" ry="15.58"/>
		<circle class="st41" cx="1361.31" cy="1336.18" r="15.58"/>
		<circle class="st41" cx="1392.48" cy="1396.67" r="15.58"/>
		<circle class="st41" cx="1423.64" cy="1465.62" r="15.58"/>
		<circle class="st41" cx="1454.8" cy="1526.65" r="15.58"/>
		<circle class="st41" cx="1489.5" cy="1584.67" r="15.58"/>
		<circle class="st41" cx="1520.12" cy="1647.81" r="15.58"/>
		<circle class="st41" cx="1551.28" cy="1700.38" r="15.58"/>
		<circle class="st41" cx="1610.46" cy="1672.23" r="15.58"/>
		<circle class="st41" cx="1671.97" cy="1647.81" r="15.58"/>
	</g>
	<g>
		<g>
			<g>
				<g>
					<path class="st42" d="M913.82,1103.82c11.74-4.78,36.6-5.7,50.47,3.93c26.1,18.13,0.66,84.71-27.48,97.8
						c-12.58,5.85-29.95,1.72-41.38-8.89c-12.73-11.81-14.29-28.11-14.71-32.59C878.47,1140.6,885.95,1115.17,913.82,1103.82z"/>
					<path class="st43" d="M885.37,1241.69c43.41-6.2,29.94-30.8,21.48-63.5c-2.6-10.05,49.13,7.84,52.04,23.39
						c1.25,6.68-1.07,15.84,0.86,23.44c2.67,10.46,14.47,15.49,20.85,17.17c12.44,3.28,21.86,0.89,23.28,4.3
						c5.5,13.24-13.3,43.52-23.44,46.79C931.9,1308.92,872.7,1243.5,885.37,1241.69z"/>
					<path class="st43" d="M858.18,1940.88c6.1-10.98,29.37-12.93,35.36-5.2c2.88,3.71,0.18,7.62,4.16,15.94
						c2.89,6.05,5.36,6.16,6.59,10.05c2.62,8.29-3.81,22.89-16.64,26.69c-12.03,3.56-24.35-3.95-28.08-12.48
						c-0.41-0.94-4.36-2.61-1.39-10.05C861.36,1957.87,856.53,1943.84,858.18,1940.88z"/>
					<path class="st43" d="M978.8,1942.62c-0.68-8.16-2.4-9.35-1.04-12.83c4.42-11.28,29.13-15.84,35.7-7.97
						c4.42,5.29-2.32,12.66,3.47,24.26c1.44,2.89,3.38,5.47,2.77,9.01c-0.58,3.38-3.05,5.17-6.59,8.32
						c-10.93,9.76-9.23,12.31-14.21,14.21c-6.83,2.6-17.22,0.54-21.14-5.55C973.56,1965.56,980.24,1959.8,978.8,1942.62z"/>
					<path class="st44" d="M931.78,1527.05c22.23-26.52,52.79-64.42,69.46-48.69c10.45,9.85,29.45,92.07,23.09,173.44
						c-1.59,20.34-4.8,40.33-6.71,50.97c-4.61,25.72-8.01,34.19-8.05,53.65c-0.02,10.38,0.91,23.49,1.34,29.51
						c0.93,12.99,1.89,20.42,2.68,28.17c3.62,35.24,1.04,36.05,2.68,68.41c1.05,20.78,0,50.3,0,50.3l-42.25,4.02
						c0,0-0.09-19.26-2.01-31.52c-3.56-22.67-7.97-22.75-12.07-42.92c-4.44-21.84-3.28-59.01-2.3-77.8
						c0.39-7.62-0.48-15.24-2.62-22.56c-8.12-27.76-15.34-115.23-5.67-157.7C952.17,1591.89,901.95,1562.63,931.78,1527.05z"/>
					<path class="st45" d="M966.44,1552.84c9.63,5.05-7.26,107.51-7.06,128.19c0.13,13.5,1.47,24.58,3.12,38.21
						c2.27,18.79,3.27,18.6,4.68,32.75c0.32,3.24,1.24,12.94,1.56,41.33c0.33,29.45-0.56,27.13,0,36.65
						c1.49,25.41,7.35,33.63,11.7,56.93c2.19,11.73,4.17,28.25,3.1,49.01l-9.5,0.9c0,0-0.09-19.26-2.01-31.52
						c-3.56-22.67-7.97-22.75-12.07-42.92c-4.44-21.84-3.28-59.01-2.3-77.8c0.39-7.62-0.48-15.24-2.62-22.56
						c-8.12-27.76-15.34-115.23-5.67-157.7c0.72-3.18-2.02-7.45-6.01-12.65C953.27,1578.28,962.58,1550.82,966.44,1552.84z"/>
					<path class="st13" d="M860.69,1741.66c2.63-13.98,2.24-30.08,1.34-61.7c-0.74-26.01-1.11-39.01-2.68-57.68
						c-3.06-36.24-6.57-46.37-2.68-67.07c2.7-14.38,20.09-67.51,28.71-76.86c26.22-28.44,79.72-14.4,87.66,7.91
						c0.89,2.5-4.62,44-7.72,63.59c-0.8,5.07-15.44,126.5-41.24,208.73c-3.91,12.45-11.91,23.91-16.43,35.39
						c-2.12,5.39-4.36,12.52-6.71,32.19c-3.57,29.9-0.7,32.55-4.02,63.04c-1.75,16.05,4.19,52.37,0.67,57.57
						c0,0-42.12,2.18-42.25-1.23c-1.34-35.54-11.83-75.14-12.07-107.3c-0.08-11.18-0.12-28.17,4.02-49.63
						C852.07,1763.76,856.61,1763.28,860.69,1741.66z"/>
					<path class="st9" d="M858.67,1960.3c1.75,0.1,0.83,8.95,5.37,10.73c0.81,0.32,2.87,0.84,10.73-4.02
						c7.43-4.59,7.61-6.31,12.07-8.72c4.62-2.5,14.02-5.84,18.78-2.01c3.09,2.49,1.12,5.48,4.02,14.08
						c2.73,8.07,7.19,13.48,9.39,16.1c4.49,5.34,9.14,8.73,10.06,9.39c5.49,3.94,7.84,4.03,11.4,8.05c1.8,2.03,4.35,5,4.69,9.39
						c0.07,0.87,0.44,5.66-2.68,8.72c-2,1.95-4.37,2.17-8.72,2.68c-4.93,0.59-9.81,1.55-14.75,2.01
						c-16.74,1.56-15.86,2.53-20.79,2.01c-2.56-0.27-8.79-0.99-15.43-4.69c-5.98-3.34-5.43-5.28-12.07-9.39
						c-7.76-4.8-10.76-3.55-14.08-7.38c-1.95-2.24-3.27-5.37-3.35-15.43C853.18,1975.88,856.33,1960.16,858.67,1960.3z"/>
					<path class="st9" d="M978.05,1958.95c2.06,0.03,1.6,7.04,7.38,10.73c2.61,1.67,6.7,2.79,10.06,1.34
						c4.06-1.76,3.43-5.73,7.38-10.73c4.77-6.04,13.75-10.46,19.45-8.05c2.19,0.92,1.82,1.98,7.38,9.39
						c3.21,4.28,5.84,7.28,10.06,12.07c4.11,4.68,6.17,7.02,8.05,8.72c2.86,2.59,7.96,7.21,15.43,10.06
						c9.56,3.65,13.51,0.78,18.11,5.36c3.75,3.74,4.54,9.06,4.69,10.06c0.32,2.12,0.79,5.29-0.67,8.05
						c-1.95,3.69-6.48,5.02-12.74,6.04c-9.57,1.55-16.75,2.71-28.84,0.67c-11.42-1.92-10.33-3.85-26.16-7.38
						c-12.71-2.83-22.8-4.02-22.8-4.02c-14.4-1.7-18.15-0.53-21.46-4.02c-3.3-3.49-2.92-9.3-2.01-20.79
						C972.31,1974.2,975.01,1958.91,978.05,1958.95z"/>
					<path class="st38" d="M876.11,2005.23c7.18,3.82,13.46,4.85,16.77,5.37c1.98,0.31,9.1,1.3,18.11,0
						c6.44-0.93,8.93-2.33,17.44-3.35c2.25-0.27,9-0.44,14.33-0.54c1.19,1.73,2.23,3.88,2.43,6.57c0.07,0.87,0.44,5.66-2.68,8.72
						c-2,1.95-4.37,2.17-8.72,2.68c-4.93,0.59-9.81,1.55-14.75,2.01c-16.74,1.56-15.86,2.53-20.79,2.01
						c-2.56-0.27-8.79-0.99-15.43-4.69c-5.98-3.34-5.43-5.28-12.07-9.39c-7.76-4.8-10.76-3.55-14.08-7.38
						c-1.95-2.24-3.27-5.37-3.35-15.43c-0.01-0.7,0-1.39,0-2.09C860.42,1995.19,871.2,2002.61,876.11,2005.23z"/>
					<path class="st38" d="M998.17,1998.52c29.04,7.77,36.15,7.37,39.57,8.05c18.35,3.63,37.25,1.27,47.72-1.33
						c0.36,1.29,0.51,2.29,0.57,2.67c0.32,2.12,0.79,5.29-0.67,8.05c-1.95,3.69-6.48,5.02-12.74,6.04
						c-9.57,1.55-16.75,2.71-28.84,0.67c-11.42-1.92-10.33-3.85-26.16-7.38c-12.71-2.83-22.8-4.02-22.8-4.02
						c-14.4-1.7-18.15-0.53-21.46-4.02c-2.68-2.83-2.93-7.19-2.45-14.86C981.5,1994.8,994.37,1997.51,998.17,1998.52z"/>
					<path class="st46" d="M1016.34,1253.91c1.93,2.4,15.47,16.07,16.75,21.68c1.99,8.64,3.44,17.12,18.72,36.8
						c9.49,12.23,57.87,59.8,15.81,91.46c-5.92,4.46-52.25-10.45-52.34-70.53c-0.07-48.16-19.48-75.63-19.18-88.71
						C996.16,1242.37,1009.96,1245.97,1016.34,1253.91z"/>
					<path class="st47" d="M1040.91,1334.77c5.91,9.42,17.14,31.3,14,67.64c-11.81-4.61-28.28-17.03-35.71-41.33
						c0.56-3.92,0.81-8.02,0.65-12.28c-0.34-9.32-2.56-17.47-4.95-24.1c-0.59-6.66-1.82-12.94-3.48-18.84
						C1017.53,1307.68,1031.43,1319.64,1040.91,1334.77z"/>
					<path class="st48" d="M1036.94,1269.55c0.96-0.59,4.75-2.9,7.51-0.73c1.29,1.01,2.72,3.3,2.89,5.88c0.14,2.07-0.61,3.1,0,4.41
						c0.68,1.46,2,1.01,2.89,2.2c1.22,1.64,0.38,4.73-0.29,8.08c-1.22,6.12,0,3.68-1.73,14.7c-1.4,8.9-1.99,9.14-1.73,11.76
						c0.56,5.7,3.84,9.41,5.78,11.76c11.49,13.92,17.65,30.52,19.64,36.74c1.92,6.01,3.91,12.43,2.89,20.58
						c-0.29,2.31-1.73,13.89-9.24,18.74c-3.97,2.56-7.82,2.08-9.53,1.84c-10.64-1.51-17.24-13.58-19.06-16.9
						c-1.77-3.24-4.99-9.96-7.8-37.48c-1.46-14.33-2.74-27.43-1.73-45.2C1028.18,1292.34,1029.36,1274.18,1036.94,1269.55z"/>
					<path class="st49" d="M931.14,1203.07c6.71,4.05,15.79,7.25,28.33,7.32c-0.33,4.37-0.55,9.7-0.05,13.07
						c-1.85,0.05-3.49-0.05-5.63-0.37c-24.06-3.55-35.92-25.08-37.62-31.15c0.12-0.43,0.31-0.84,0.57-1.23
						C918.47,1192.23,923.17,1198.26,931.14,1203.07z"/>
					<path class="st43" d="M929.27,1110.28c3.41-1.73,16.46-7.71,30.11-2.09c18.43,7.6,19.73,29.19,20.32,32.84
						c0.86,5.37,1.15,13.7,0,24.94c-0.96,9.38,1.35,18.33-2.76,28.98c-3.08,7.99-7.02,13.21-14.09,17.17
						c-20.9,11.72-49.58-16.8-55.11-31.5c-1.76-4.68-8.14-22.44-0.68-42.64C909.17,1132.24,914.51,1117.76,929.27,1110.28z"/>
					<path class="st42" d="M898.81,1141.26c3.29-9.98,5.55-16.81,11.79-23.73c3.88-4.3,7.77-6.97,10.02-8.32
						c2.13-1.28,7.83-4.44,15.4-5.87c4.55-0.86,9.77-1.1,15.31,0.07c0.99,0.21,1.98,0.52,3.01,0.77
						c36.39,8.65,27.61,49.13,25.83,56.18c2.04-22.26-52.5-31.5-52.4-28.7c1.12,31.74-16.87,29.7-30.95,28.96
						c-0.37-2.62-0.52-4.75-0.43-6.85C896.56,1149.22,897.42,1145.47,898.81,1141.26z"/>
					<g>
						<g>
							<path class="st43" d="M906.95,1157.07c3.96-1.12,7.77,3.82,7.97,4.08c5.63,7.48,2.82,22.46-1.84,23.82
								c-4.19,1.23-11.93-7.96-11.65-17.01C901.55,1164.17,903.14,1158.15,906.95,1157.07z"/>
						</g>
						<g>
							<path class="st49" d="M911.64,1177.22c0.17,0.17,0.28,0.28,0.28,0.3C911.92,1177.52,911.8,1177.4,911.64,1177.22z"/>
							<path class="st49" d="M912.1,1165.61c1.45,0.43,2.62,1.71,3.16,3.38c0.2,0.61-0.17,1.27-0.74,1.37
								c-0.44,0.07-0.84-0.23-0.99-0.69c-0.34-1.04-1.04-1.82-1.9-2.08c-1.18-0.35-2.46,0.38-2.97,1.27
								c-0.56,0.96-0.43,2.61,0.35,4.51c0.58,1.4,1.49,2.57,2.14,3.31c-0.48-0.52-0.84-0.92,0.03,0.03c0.14,0.16,0.27,0.3,0.38,0.42
								c0.11,0.12,0.23,0.25,0.37,0.4c1.68,1.85,0.22,2.03,0.08,2.03c-1.27,0-2.57-1.66-3.28-2.72c-1.7-2.55-3.14-6.46-1.62-9.08
								C907.97,1166.25,910.02,1164.99,912.1,1165.61z"/>
							<path class="st49" d="M911.15,1176.68c0.17,0.19,0.35,0.39,0.5,0.55c-0.03-0.03-0.06-0.06-0.09-0.1
								c-0.15-0.16-0.27-0.3-0.38-0.42C911.16,1176.7,911.15,1176.68,911.15,1176.68z"/>
						</g>
						<g>
							<path class="st49" d="M902.43,1161.76c-0.79,2-1.55,5.33-0.67,9.81c1.23,6.25,4.92,11.47,7.66,12.41
								c0.01,0.03,0.02,0.06,0.03,0.09c0.45,1.18,1.65,4.3,4.7,4.3h0c2.34,0,2.93-1.77,3.12-3.26c0.08-0.59-0.32-1.13-0.85-1.17l0,0
								c-0.48-0.03-0.9,0.36-0.97,0.89c-0.16,1.28-0.49,1.49-1.3,1.49h0c-1.61,0-2.4-1.47-3.01-3.06c-0.22-0.58-0.42-1.09-0.99-1.18
								c-1.85-0.31-5.44-5.05-6.6-10.95c-0.62-3.17-0.43-6.05,0.56-8.56c0.39-0.99,0.93-2.35,2.19-3.08
								c1.34-0.77,2.75-0.41,3.35-0.25c2.12,0.55,3.48,2.26,4.19,3.46c0.26,0.44,0.77,0.57,1.19,0.33c0.48-0.28,0.64-0.96,0.34-1.46
								c-0.89-1.49-2.58-3.62-5.3-4.32c-0.73-0.19-2.67-0.69-4.62,0.43C903.62,1158.75,902.88,1160.64,902.43,1161.76z
								 M909.88,1184.11L909.88,1184.11L909.88,1184.11z"/>
						</g>
						<path class="st49" d="M915.09,1169.96c0.12,0.3-0.8,0.68-1.48,1.81c-1.32,2.19-0.4,4.91-0.77,4.99
							c-0.27,0.06-0.95-1.41-1.02-3.01c-0.03-0.73-0.1-2.22,0.82-3.18C913.51,1169.68,914.95,1169.61,915.09,1169.96z"/>
					</g>
					<g>
						<path class="st50" d="M932.71,1153.9c4.12-0.76,8.32-1.06,12.49-0.89c2.62,0.11,5.26,0.41,7.85,0.89
							c1.03,0.19,1.69,1.19,1.47,2.21c-0.21,0.96-1.14,1.59-2.11,1.41c-2.43-0.45-4.9-0.73-7.36-0.83
							c-3.91-0.16-7.83,0.12-11.7,0.83c-0.97,0.18-1.9-0.45-2.11-1.41v0C931.01,1155.09,931.69,1154.09,932.71,1153.9z"/>
					</g>
					<g>
						<path class="st49" d="M955.69,1184.04c0.1-0.44,0.57-0.71,1.06-0.63c3.98,0.73,6.72,0.42,7.74-0.89
							c0.83-1.07,0.47-2.7-0.26-5.95c-0.26-1.17-0.56-2.49-0.86-4.06c-0.63-3.28-1.07-6.61-1.32-9.92
							c-0.04-0.46,0.36-0.85,0.87-0.87c0.5-0.02,0.93,0.33,0.97,0.79c0.25,3.25,0.68,6.52,1.3,9.75c0.3,1.55,0.59,2.86,0.85,4.01
							c0.8,3.59,1.25,5.57-0.03,7.23c-1.26,1.62-3.73,2.24-7.37,1.87c-0.69-0.07-1.42-0.18-2.19-0.32
							C955.92,1184.95,955.58,1184.5,955.69,1184.04L955.69,1184.04z"/>
					</g>
					<path class="st50" d="M945.68,1160.62c1.44,0,2.6,1.82,2.6,4.06c0,2.24-1.16,4.06-2.6,4.06c-1.44,0-2.6-1.82-2.6-4.06
						C943.07,1162.43,944.24,1160.62,945.68,1160.62z"/>
					<path class="st50" d="M970.43,1160.62c1.44,0,2.6,1.82,2.6,4.06c0,2.24-1.16,4.06-2.6,4.06c-1.44,0-2.6-1.82-2.6-4.06
						C967.83,1162.43,968.99,1160.62,970.43,1160.62z"/>
					<g>
						<path class="st50" d="M963.05,1153.82c2.05-0.39,4.17-0.68,6.33-0.85c2.83-0.23,5.69-0.27,8.53-0.13
							c1.04,0.05,1.84,0.95,1.76,1.99c-0.08,0.98-0.92,1.74-1.91,1.69c-2.7-0.14-5.41-0.1-8.09,0.12c-2.03,0.17-4.03,0.43-5.95,0.8
							c-0.97,0.19-1.91-0.43-2.13-1.4C961.37,1155.02,962.03,1154.01,963.05,1153.82z"/>
					</g>
					<path class="st49" d="M947.9,1190.78l4.94,0.48c3.81,0.37,7.66,0.36,11.46-0.01l2.63-0.26c1.14-0.11,2,0.74,1.48,1.47
						c-1.53,2.14-4.71,4.78-9.83,4.74c-5.15-0.04-10.67-2.78-12.14-4.97C945.94,1191.5,946.77,1190.67,947.9,1190.78z"/>
					<path class="st51" d="M936.77,1171.03c3.75,0.48,6.55,2.77,6.25,5.11c-0.3,2.34-3.58,3.86-7.33,3.38
						c-3.75-0.48-6.55-2.77-6.25-5.11C929.74,1172.06,933.02,1170.55,936.77,1171.03z"/>
					<path class="st46" d="M885.37,1241.69c0,0,19.06,20.77,69.2,21.58c36.42,0.59,41.55-18.66,41.55-18.66s46.6,86.59,26.41,122.64
						c-4.1,7.31,10.72,68.65-8.61,134.23c-7.29,24.74-139.38,25.32-146.52-2.46c-5.22-20.3-2.68-82.6-6-162.22
						c-0.96-22.94-28.04-25.17-18.2-69.63C847.77,1246.47,885.37,1241.69,885.37,1241.69z"/>
					<path class="st52" d="M1001.93,1254.84c0.42-2.99,2.91-5.25,5.92-5.41l25.89-1.33c7.14-0.01,9.45,4.24,8.81,8.2l-11.26,54.92
						c-0.47,2.95-2.95,5.16-5.93,5.29l-24.8,1.15c-3.95,0.18-7.09-3.27-6.53-7.18L1001.93,1254.84z"/>
					<path class="st53" d="M1004.08,1256.43c0.42-2.99,2.91-5.25,5.92-5.41l25.89-1.33c4.01-0.21,7.19,3.34,6.55,7.3l-8.99,55.82
						c-0.47,2.95-2.95,5.16-5.93,5.3l-24.8,1.15c-3.95,0.18-7.09-3.27-6.53-7.18L1004.08,1256.43z"/>
					<path class="st54" d="M907.66,1393.92c10.16-0.21,18.82-5.81,33.97-15.6c30.48-19.7,39.45-39.89,43.33-37.78
						c5.75,3.12-10.03,49.57-41.94,85.27c-13.23,14.8-22.98,22.72-32.93,20.45c-10.37-2.36-35.65-45.12-47.44-70.23
						c-0.63-8.22,0.62-20.14-0.78-29.46C871.95,1359.59,894.29,1394.19,907.66,1393.92z"/>
					<path class="st38" d="M857.86,1252.82c5.77-1.04,10.33,2.61,16.39,7.23c9.57,7.3,15.09,15.12,16.39,17.01
						c2.76,3.98,6.67,10.26,15.13,32.31c5.97,15.56,5.7,16.82,11.77,32.74c6.24,16.38,7.2,16.8,10.93,27.63
						c7.17,20.81,10.66,31.37,6.31,39.11c-4.67,8.29-16.02,12.94-25.22,11.05c-7.47-1.53-9.38,0.77-18-11.39
						c-18.31-25.82-29.64-46.47-33.29-53.66c-5.86-11.54-13.03-25.93-16.81-45.92C841.47,1308.94,832.79,1257.35,857.86,1252.82z"/>
					<path class="st43" d="M952.87,1346.56c1.56-1.61,5.8-6.05,10.4-11.98c3.55-4.58,4.44-6.33,5.04-8.2
						c1.31-4.05,0.18-5.2,1.26-9.77c0.98-4.13,2.79-6.93,5.04-10.4c3.51-5.42,4.58-4.9,7.57-9.77c1.15-1.88,2.45-4.72,5.04-10.4
						c2.84-6.23,3.52-8.18,5.36-8.51c2.02-0.37,4.47,1.39,5.36,3.47c0.42,0.99,0.46,1.99,0,4.41c-1.13,5.98-3.41,10.89-3.78,11.67
						c-1.72,3.64-2.69,4.84-2.21,5.36c0.79,0.86,4.67-1.03,7.57-3.47c3.34-2.81,3.88-5.09,6.94-9.77c3.57-5.47,3.87-3.94,8.51-10.4
						c4.4-6.12,5.61-9.55,9.77-11.03c0.67-0.24,3.2-1.14,4.41,0c1.25,1.17,0.44,3.86,0,5.36c-0.87,2.91-2.22,4.76-3.78,6.94
						c-5.02,6.99-6.25,9.02-7.25,11.03c-1.71,3.44-2.83,5.67-1.89,6.94c1.5,2.03,7.42,0.37,11.03-1.58c3.91-2.1,6.12-5.06,7.25-6.62
						c2.52-3.46,3.55-6.72,4.1-8.51c1.94-6.32,1.16-10.56,2.21-10.72c0.97-0.15,2.65,3.31,3.15,6.62c0.69,4.58-0.82,9.32-1.26,10.72
						c-0.45,1.43-0.78,2.07-0.95,3.47c-0.37,3.12,0.07,3.85,0.32,5.99c0.95,8.26-3.65,7.13-3.47,11.03c0.17,3.62,0.25,5.43,0,6.62
						c-0.7,3.33-3.66,4.89-8.83,8.2c-10.38,6.65-7.96,6.43-14.5,10.09c-8.38,4.68-10.03,3.74-15.76,7.57
						c-3.06,2.05-6.19,4.72-11.35,11.03c-15.2,18.61-34.82,48.94-42.5,51.02c-7.68,2.08-13.83,0.52-17.78-6.98
						c-0.75-1.42-5.22-16.08-3.77-21.39C925,1371.39,945.54,1354.14,952.87,1346.56z"/>
					<g>
						<path class="st49" d="M1040.89,1292.74l1.5,1.07c-5.78,8.07-13.3,11.74-17.33,13.72c-0.82,0.4-1.53,0.75-2.05,1.05l-0.91-1.6
							c0.57-0.33,1.31-0.68,2.15-1.1C1028.41,1303.84,1035.38,1300.43,1040.89,1292.74z"/>
					</g>
					<g>
						<path class="st49" d="M1039.27,1309.07c-2.69,2.62-8.02,7.02-13.57,7.02v-1.84c4.89,0,9.8-4.07,12.28-6.49L1039.27,1309.07z"
							/>
					</g>
					<path class="st38" d="M900.74,1381.24c2.65-2.51,4.34-3.27,13.45-7.99c19.91-10.31,23.09-15.77,23.54-13.45
						c3.02,15.55,8.25,24.07,26.48,27.74c0,0-13.04,15.6-13.87,16.39c-5.99,5.75-15.89,15.03-30.69,18.5
						c-4.71,1.1-7.42,1.7-10.93,0.84c-10.55-2.59-18.98-16.07-16.81-27.74C893.25,1388.33,898.29,1383.56,900.74,1381.24z"/>
					<g>
						<path class="st54" d="M901.12,1297.81l0.03-0.02c0.91-0.5,2.05-0.16,2.51,0.77c7.07,13.99,18.3,50.13,22.5,63.99
							c0.37,1.21,1.83,1.69,2.83,0.93c1.53-1.15,3.55-2.56,6.21-4.27c0.85-0.55,1.99-0.29,2.53,0.57l0.02,0.03
							c0.53,0.85,0.27,1.96-0.57,2.5c-7.85,5.02-9.66,7.28-9.68,7.3c-0.89,1.24-2.81,0.9-3.23-0.56l-0.01-0.02
							c-0.16-0.54-15.42-52.08-23.89-68.83C899.93,1299.35,900.26,1298.29,901.12,1297.81z"/>
					</g>
					<g>
						<path class="st54" d="M852.83,1255.03c4.07-1.42,7.67-0.36,10.56,0.5c7.04,2.08,12.11,6.48,15.35,10.22
							c0.57,0.66,0.47,1.65-0.21,2.2c-0.65,0.52-1.58,0.42-2.12-0.2c-2.95-3.4-7.55-7.39-13.89-9.27c-2.6-0.77-5.54-1.64-8.68-0.54
							c-4.38,1.53-6.55,5.92-7.43,8.28c-0.28,0.75-1.08,1.16-1.85,0.95l-0.01,0c-0.86-0.24-1.35-1.16-1.04-1.99
							C844.62,1262.18,847.27,1256.98,852.83,1255.03z"/>
					</g>
					<g>
						<path class="st55" d="M953.21,1631.34c4.77-23.47,11.01-66.42,12.17-80.54h2.49c-0.01,13.15-7.46,57.44-12.25,81.03
							c-3.66,18.02-7.12,35.03-7.92,44.98c-0.4,5.01,0,9.63,0,9.67c0.04,0.44,0.1,1.21,0.18,2.27c0.6,7.64,2.43,30.89,5.09,43.92
							l-2.41,0.49c-2.69-13.18-4.53-36.54-5.13-44.22c-0.08-1.04-0.14-1.81-0.18-2.25c-0.02-0.2-0.42-4.86,0-10.08
							C946.06,1666.52,949.53,1649.43,953.21,1631.34z"/>
					</g>
					<g>
						<path class="st56" d="M863.51,1530.55c0.2-0.6,0.92-0.85,1.45-0.5c0.35,0.23,0.51,0.67,0.39,1.07
							c-8.5,29.73-8.21,31.22-8.29,38.21c-0.05,4.01,0.23,7.15,0.69,12.36c0.18,2.06,0.64,5.68,1.22,10.26
							c1.6,12.62,4.25,33.56,4.33,48.51c0,0.53-0.43,0.96-0.96,0.96l-0.58,0c-0.51,0-0.93-0.4-0.96-0.91
							c-0.73-14.43-3.03-34.75-4.27-48.25c-0.43-4.62-1.04-8.25-1.23-10.35c-0.47-5.28-0.75-8.47-0.7-12.6
							C854.68,1562.18,856.47,1551.9,863.51,1530.55z"/>
					</g>
					<g>
						<path class="st55" d="M886.08,1745.55C886.08,1745.55,886.08,1745.55,886.08,1745.55l0,2.46h0c-10.63,0-23.63-3.78-26.05-5.31
							l1.31-2.07C862.95,1741.64,875.49,1745.55,886.08,1745.55z"/>
					</g>
					<g>
						<path class="st55" d="M861.16,1747.95c2.99,0.48,7.51,1.21,10.31,2.37c3.62,1.5,7.04,3.48,10.16,5.88l-1.5,1.94
							c-2.95-2.27-6.18-4.14-9.6-5.56c-2.53-1.05-6.88-1.75-9.76-2.22c-0.72-0.12-1.36-0.22-1.85-0.31l0.44-2.42
							C859.84,1747.74,860.46,1747.84,861.16,1747.95z"/>
					</g>
					<g>
						<path class="st55" d="M956.66,1760.92c0.8,0.07,2.14,0.19,2.37,0.19c3.66-0.25,7.39-0.76,11.04-1.49
							c3.8-0.76,7.6-1.8,11.28-3.08l0.8,2.32c-3.78,1.31-7.69,2.38-11.6,3.16c-3.75,0.76-7.59,1.27-11.41,1.54
							c-0.03,0-0.07,0-0.11,0c-0.27,0-0.85-0.05-2.59-0.2c-0.69-0.06-1.29-0.11-1.44-0.12l0.03-0.89l-0.1-1.56
							C955.08,1760.78,955.19,1760.79,956.66,1760.92z"/>
					</g>
					<g>
						<path class="st55" d="M968.15,1767.91c3.12-0.2,6.28-0.38,9.38-0.52l0.11,2.45c-3.09,0.14-6.23,0.32-9.34,0.52
							c-1.09,0.07-2.77,0.14-4.54,0.22c-2.22,0.1-4.52,0.2-5.84,0.3l-0.19-2.45c1.36-0.11,3.68-0.21,5.93-0.3
							C965.42,1768.05,967.08,1767.98,968.15,1767.91z"/>
					</g>
					<g>
						<path class="st35" d="M991.03,1971.94c1.39,0.1,3.97,0.27,6-1.03c1.19-0.77,1.47-1.58,1.97-3.05
							c0.43-1.27,0.97-2.84,2.27-4.87c3.1-4.83,7.46-7.32,9.33-8.38c2.21-1.26,4.58-2.23,7.05-2.88l0.63,2.37
							c-2.26,0.6-4.44,1.49-6.46,2.64c-1.85,1.06-5.7,3.26-8.48,7.58c-1.14,1.77-1.6,3.13-2.01,4.33c-0.56,1.66-1.05,3.09-2.96,4.32
							c-1.93,1.25-4.12,1.49-5.79,1.49c-0.68,0-1.27-0.04-1.72-0.07c-2.33-0.16-4.57-0.83-6.65-1.99l1.2-2.15
							C987.17,1971.24,989.06,1971.81,991.03,1971.94z"/>
					</g>
					<g>
						<path class="st35" d="M863.16,1970.52c1.89,0.89,4.01,0.2,7.02-0.96c1.93-0.74,4.18-1.97,6.5-3.55
							c1.84-1.25,2.85-2.13,3.83-2.98c0.88-0.76,1.78-1.55,3.23-2.55c2.4-1.65,5.07-3.04,7.94-4.13l0.87,2.3
							c-2.68,1.01-5.18,2.31-7.41,3.85c-1.33,0.92-2.15,1.63-3.01,2.38c-1.03,0.89-2.09,1.82-4.06,3.15c-2.48,1.69-4.9,3.01-7,3.81
							c-1.97,0.76-3.98,1.53-6,1.53c-0.98,0-1.97-0.19-2.95-0.65c-1.15-0.54-2.14-1.41-2.94-2.56l2.02-1.4
							C861.74,1969.58,862.4,1970.17,863.16,1970.52z"/>
					</g>
					<path class="st52" d="M1011.52,1255.33c0.77,0.18,1.21,1.15,0.98,2.16c-0.23,1.02-1.05,1.7-1.82,1.53s-1.21-1.14-0.98-2.16
						C1009.94,1255.83,1010.75,1255.15,1011.52,1255.33z"/>
					<g>
						<path class="st54" d="M883.05,1242.26c0.62-0.8,1.76-0.95,2.57-0.35c3.48,2.57,7.14,4.94,10.9,7.04
							c3.52,1.96,13.15,6.89,26.56,10.26c17.71,4.44,32.58,3.8,39.88,3.02c3.65-0.39,7.3-0.97,10.9-1.72
							c0.99-0.21,1.96,0.4,2.19,1.39c0.23,1-0.4,2-1.4,2.21c-3.72,0.78-7.51,1.38-11.29,1.79c-2.79,0.3-6.65,0.57-11.33,0.57
							c-7.97,0-18.33-0.8-29.83-3.69c-13.84-3.47-23.82-8.58-27.46-10.61c-3.91-2.18-7.72-4.64-11.33-7.32
							C882.58,1244.24,882.43,1243.07,883.05,1242.26L883.05,1242.26z"/>
					</g>
					<path class="st35" d="M953.65,1270.44c1.36,0,2.46,1.1,2.46,2.46s-1.1,2.46-2.46,2.46c-1.36,0-2.46-1.1-2.46-2.46
						S952.29,1270.44,953.65,1270.44z"/>
					<path class="st35" d="M954.87,1280.42c1.36,0,2.46,1.1,2.46,2.46c0,1.36-1.1,2.46-2.46,2.46c-1.36,0-2.46-1.1-2.46-2.46
						C952.42,1281.52,953.52,1280.42,954.87,1280.42z"/>
					<path class="st35" d="M956.1,1290.28c1.36,0,2.46,1.1,2.46,2.46c0,1.36-1.1,2.46-2.46,2.46c-1.36,0-2.46-1.1-2.46-2.46
						C953.65,1291.38,954.74,1290.28,956.1,1290.28z"/>
				</g>
				<path class="st42" d="M893.07,1082.76c7.5-1.47,17.97,0.24,22.01,6.01c4.31,6.16,5.6,23.97-7.55,32.83
					c-3.57,2.4-6.71,3.78-9.26,4.88c-7.43,3.24-12.71,5.54-17.6,4.15c-6.58-1.87-9.13-9.47-9.63-10.97
					C866.47,1106.07,876.62,1085.98,893.07,1082.76z"/>
			</g>
			<path class="st13" d="M914.05,1139.8c0.48-1.37,1.99-2.09,3.35-1.62l11.89,4.15c1.37,0.48,2.09,1.99,1.62,3.35l-0.08,0.22
				c-0.48,1.37-1.99,2.09-3.35,1.62l-11.89-4.15c-1.37-0.48-2.09-1.99-1.62-3.35L914.05,1139.8z"/>
		</g>
		<g>
			<g>
				<path class="st57" d="M694.77,1686.09h-52.6c-11.19,0-20.3-9.11-20.3-20.3V1455.8c0-11.19,9.11-20.3,20.3-20.3h52.6
					c11.19,0,20.3,9.11,20.3,20.3v209.99C715.07,1676.99,705.96,1686.09,694.77,1686.09z M642.17,1448.54c-4,0-7.26,3.26-7.26,7.26
					v209.99c0,4,3.26,7.26,7.26,7.26h52.6c4,0,7.26-3.26,7.26-7.26V1455.8c0-4-3.26-7.26-7.26-7.26H642.17z"/>
			</g>
			<rect x="631.26" y="1481.13" class="st58" width="3.65" height="185.15"/>
			
				<rect x="702.03" y="1481.13" transform="matrix(-1 -1.224647e-16 1.224647e-16 -1 1407.7118 3147.4043)" class="st58" width="3.65" height="185.15"/>
			<path class="st59" d="M751.47,1994.26H585.47c-24.63,0-44.6-19.97-44.6-44.6v-261.81c0-24.63,19.97-44.6,44.6-44.6h165.99
				c24.63,0,44.6,19.97,44.6,44.6v261.81C796.06,1974.3,776.09,1994.26,751.47,1994.26z"/>
			<path class="st60" d="M550.65,1950.77v-264.01c0-18.62,15.1-33.72,33.72-33.72h168.19c18.62,0,33.72,15.1,33.72,33.72v264.01
				c0,18.62-15.1,33.72-33.72,33.72H584.37C565.75,1984.49,550.65,1969.39,550.65,1950.77z"/>
			<path class="st61" d="M537.96,1731.38h-4.13c-1.61,0-2.92-1.31-2.92-2.92v-28.38c0-1.61,1.31-2.92,2.92-2.92h4.13
				c1.61,0,2.92,1.31,2.92,2.92v28.38C540.88,1730.08,539.57,1731.38,537.96,1731.38z"/>
			<path class="st61" d="M537.96,1927.87h-4.13c-1.61,0-2.92-1.31-2.92-2.92v-28.38c0-1.61,1.31-2.92,2.92-2.92h4.13
				c1.61,0,2.92,1.31,2.92,2.92v28.38C540.88,1926.57,539.57,1927.87,537.96,1927.87z"/>
			<path class="st61" d="M537.96,1731.38h-4.13c-1.61,0-2.92-1.31-2.92-2.92v-28.38c0-1.61,1.31-2.92,2.92-2.92h4.13
				c1.61,0,2.92,1.31,2.92,2.92v28.38C540.88,1730.08,539.57,1731.38,537.96,1731.38z"/>
			<path class="st61" d="M537.96,1927.87h-4.13c-1.61,0-2.92-1.31-2.92-2.92v-28.38c0-1.61,1.31-2.92,2.92-2.92h4.13
				c1.61,0,2.92,1.31,2.92,2.92v28.38C540.88,1926.57,539.57,1927.87,537.96,1927.87z"/>
			<path class="st62" d="M536.94,1697.17h-2.09c-2.17,0-3.94,1.76-3.94,3.94v0.62h1.7c2.17,0,3.94,1.76,3.94,3.94v25.72h0.39
				c2.17,0,3.94-1.76,3.94-3.94v-26.34C540.88,1698.93,539.11,1697.17,536.94,1697.17z"/>
			<path class="st62" d="M536.94,1893.66h-2.09c-2.17,0-3.94,1.76-3.94,3.94v0.62h1.7c2.17,0,3.94,1.76,3.94,3.94v25.72h0.39
				c2.17,0,3.94-1.76,3.94-3.94v-26.34C540.88,1895.42,539.11,1893.66,536.94,1893.66z"/>
			<g>
				<path class="st62" d="M798.83,1872.49L798.83,1872.49c-2.42-1.05-3.56-3.82-2.61-6.27c5.73-14.82,8.59-30.85,8.3-46.65
					c-0.27-14.6-3.1-28.84-8.42-42.42c-0.96-2.45,0.17-5.22,2.59-6.28l0,0c2.55-1.11,5.5,0.13,6.51,2.72
					c5.74,14.65,8.8,30.03,9.09,45.8c0.32,17.08-2.78,34.4-8.97,50.41C804.33,1872.37,801.37,1873.59,798.83,1872.49z"/>
			</g>
			<g>
				<path class="st63" d="M644.91,1970.63h3.85c1.49,0,2.72-1.22,2.72-2.72v-298.92c0-1.49-1.22-2.72-2.72-2.72h-3.85
					c-1.49,0-2.72,1.22-2.72,2.72v298.92C642.19,1969.41,643.42,1970.63,644.91,1970.63z"/>
				<path class="st63" d="M622.1,1970.63h3.85c1.49,0,2.72-1.22,2.72-2.72V1669c0-1.49-1.22-2.72-2.72-2.72h-3.85
					c-1.49,0-2.72,1.22-2.72,2.72v298.92C619.38,1969.41,620.6,1970.63,622.1,1970.63z"/>
				<path class="st63" d="M599.29,1970.63h3.85c1.49,0,2.72-1.22,2.72-2.72v-298.92c0-1.49-1.22-2.72-2.72-2.72h-3.85
					c-1.49,0-2.72,1.22-2.72,2.72v298.92C596.57,1969.41,597.79,1970.63,599.29,1970.63z"/>
				<path class="st63" d="M576.48,1970.63h3.85c1.49,0,2.72-1.22,2.72-2.72v-298.92c0-1.49-1.22-2.72-2.72-2.72h-3.85
					c-1.49,0-2.72,1.22-2.72,2.72v298.92C573.76,1969.41,574.98,1970.63,576.48,1970.63z"/>
				<path class="st63" d="M722.66,1970.63h-3.85c-1.49,0-2.72-1.22-2.72-2.72v-298.92c0-1.49,1.22-2.72,2.72-2.72h3.85
					c1.49,0,2.72,1.22,2.72,2.72v298.92C725.38,1969.41,724.15,1970.63,722.66,1970.63z"/>
				<path class="st63" d="M745.47,1970.63h-3.85c-1.49,0-2.72-1.22-2.72-2.72v-298.92c0-1.49,1.22-2.72,2.72-2.72h3.85
					c1.49,0,2.72,1.22,2.72,2.72v298.92C748.19,1969.41,746.97,1970.63,745.47,1970.63z"/>
				<path class="st63" d="M768.28,1970.63h-3.85c-1.49,0-2.72-1.22-2.72-2.72v-298.92c0-1.49,1.22-2.72,2.72-2.72h3.85
					c1.49,0,2.72,1.22,2.72,2.72v298.92C771,1969.41,769.78,1970.63,768.28,1970.63z"/>
				<path class="st63" d="M699.85,1970.63H696c-1.49,0-2.72-1.22-2.72-2.72v-298.92c0-1.49,1.22-2.72,2.72-2.72h3.85
					c1.49,0,2.72,1.22,2.72,2.72v298.92C702.57,1969.41,701.34,1970.63,699.85,1970.63z"/>
			</g>
			<g>
				<path class="st64" d="M641,1970.63h3.85c1.49,0,2.72-1.22,2.72-2.72v-298.92c0-1.49-1.22-2.72-2.72-2.72H641
					c-1.49,0-2.72,1.22-2.72,2.72v298.92C638.28,1969.41,639.51,1970.63,641,1970.63z"/>
				<path class="st64" d="M618.19,1970.63h3.85c1.49,0,2.72-1.22,2.72-2.72v-298.92c0-1.49-1.22-2.72-2.72-2.72h-3.85
					c-1.49,0-2.72,1.22-2.72,2.72v298.92C615.47,1969.41,616.69,1970.63,618.19,1970.63z"/>
				<path class="st64" d="M595.38,1970.63h3.85c1.49,0,2.72-1.22,2.72-2.72V1669c0-1.49-1.22-2.72-2.72-2.72h-3.85
					c-1.49,0-2.72,1.22-2.72,2.72v298.92C592.66,1969.41,593.88,1970.63,595.38,1970.63z"/>
				<path class="st64" d="M572.57,1970.63h3.85c1.49,0,2.72-1.22,2.72-2.72v-298.92c0-1.49-1.22-2.72-2.72-2.72h-3.85
					c-1.49,0-2.72,1.22-2.72,2.72v298.92C569.85,1969.41,571.07,1970.63,572.57,1970.63z"/>
				<path class="st64" d="M718.75,1970.63h-3.85c-1.49,0-2.72-1.22-2.72-2.72v-298.92c0-1.49,1.22-2.72,2.72-2.72h3.85
					c1.49,0,2.72,1.22,2.72,2.72v298.92C721.47,1969.41,720.24,1970.63,718.75,1970.63z"/>
				<path class="st64" d="M741.56,1970.63h-3.85c-1.49,0-2.72-1.22-2.72-2.72v-298.92c0-1.49,1.22-2.72,2.72-2.72h3.85
					c1.49,0,2.72,1.22,2.72,2.72v298.92C744.28,1969.41,743.06,1970.63,741.56,1970.63z"/>
				<path class="st64" d="M764.37,1970.63h-3.85c-1.49,0-2.72-1.22-2.72-2.72v-298.92c0-1.49,1.22-2.72,2.72-2.72h3.85
					c1.49,0,2.72,1.22,2.72,2.72v298.92C767.09,1969.41,765.87,1970.63,764.37,1970.63z"/>
				<path class="st64" d="M695.94,1970.63h-3.85c-1.49,0-2.72-1.22-2.72-2.72v-298.92c0-1.49,1.22-2.72,2.72-2.72h3.85
					c1.49,0,2.72,1.22,2.72,2.72v298.92C698.66,1969.41,697.43,1970.63,695.94,1970.63z"/>
			</g>
			
				<ellipse transform="matrix(0.7071 -0.7071 0.7071 0.7071 -1009.4741 971.9159)" class="st65" cx="668.47" cy="1704.5" rx="10.75" ry="10.75"/>
			
				<ellipse transform="matrix(0.7071 -0.7071 0.7071 0.7071 -1009.4741 971.916)" class="st66" cx="668.47" cy="1704.5" rx="9.12" ry="9.12"/>
			<path class="st67" d="M775.18,1659.92c0.51,50.74-10.08,159.77-100.61,238.77c-40.62,35.44-84.71,53.83-122.92,63.18
				c3.41,13,15.26,22.61,29.32,22.61h175.01c16.71,0,30.31-13.6,30.31-30.31v-270.83C786.28,1673.92,781.95,1665.48,775.18,1659.92z
				"/>
			<path class="st68" d="M573.75,1949.87L573.75,1949.87c-0.9,0-1.64-0.74-1.64-1.64v-273.54c0-0.9,0.74-1.64,1.64-1.64l0,0
				c0.9,0,1.64,0.74,1.64,1.64v273.54C575.39,1949.13,574.66,1949.87,573.75,1949.87z"/>
			<path class="st68" d="M597.25,1941.56h-1.36c-0.53,0-0.96-0.43-0.96-0.96v-266.59c0-0.53,0.43-0.96,0.96-0.96h1.36
				c0.53,0,0.96,0.43,0.96,0.96v266.59C598.21,1941.13,597.78,1941.56,597.25,1941.56z"/>
			<path class="st68" d="M620.06,1930.32h-1.36c-0.53,0-0.96-0.43-0.96-0.96v-255.35c0-0.53,0.43-0.96,0.96-0.96h1.36
				c0.53,0,0.96,0.43,0.96,0.96v255.35C621.02,1929.89,620.59,1930.32,620.06,1930.32z"/>
			<path class="st68" d="M642.87,1919.57h-1.36c-0.53,0-0.96-0.43-0.96-0.96v-244.59c0-0.53,0.43-0.96,0.96-0.96h1.36
				c0.53,0,0.96,0.43,0.96,0.96v244.59C643.83,1919.13,643.4,1919.57,642.87,1919.57z"/>
			<path class="st68" d="M693.05,1876.06h-1.36c-0.53,0-0.96-0.43-0.96-0.96v-199.46c0-0.53,0.43-0.96,0.96-0.96h1.36
				c0.53,0,0.96,0.43,0.96,0.96v199.46C694.01,1875.63,693.58,1876.06,693.05,1876.06z"/>
			<path class="st68" d="M715.75,1847.71h-1.36c-0.53,0-0.96-0.43-0.96-0.96v-171.11c0-0.53,0.43-0.96,0.96-0.96h1.36
				c0.53,0,0.96,0.43,0.96,0.96v171.11C716.71,1847.28,716.27,1847.71,715.75,1847.71z"/>
			<path class="st68" d="M738.46,1811.46h-1.36c-0.53,0-0.96-0.43-0.96-0.96v-134.86c0-0.53,0.43-0.96,0.96-0.96h1.36
				c0.53,0,0.96,0.43,0.96,0.96v134.86C739.42,1811.03,738.99,1811.46,738.46,1811.46z"/>
			<path class="st68" d="M761.17,1754.85h-1.36c-0.53,0-0.96-0.43-0.96-0.96v-78.24c0-0.53,0.43-0.96,0.96-0.96h1.36
				c0.53,0,0.96,0.43,0.96,0.96v78.24C762.13,1754.41,761.7,1754.85,761.17,1754.85z"/>
			<path class="st69" d="M670.57,1696.73c-0.36-0.73-6.9-0.93-9.37,4.4c-2.61,5.62,3.59,10.29,4.4,9.94
				c0.68-0.29-2.03-4.61-0.16-8.96C667.04,1698.38,670.85,1697.29,670.57,1696.73z"/>
			<rect x="621.87" y="1482.76" class="st58" width="13.03" height="11.24"/>
			<rect x="702.03" y="1482.71" class="st58" width="13.03" height="11.24"/>
			<path class="st66" d="M690.29,1432.25h-43.64c-15.48,0-28.03,12.55-28.03,28.03v23.57c0,2.47,2.01,4.48,4.48,4.48h10.6
				c2.47,0,4.48-2.01,4.48-4.48v-23.57c0-4.68,3.8-8.48,8.48-8.48h43.64c4.68,0,8.48,3.8,8.48,8.48v23.57
				c0,2.47,2.01,4.48,4.48,4.48h10.6c2.47,0,4.48-2.01,4.48-4.48v-23.57C718.33,1444.8,705.77,1432.25,690.29,1432.25z"/>
			<path class="st38" d="M626.55,1608.21h-1.62c-0.63,0-1.14-0.52-1.14-1.14V1502.8c0-0.63,0.52-1.14,1.14-1.14h1.62
				c0.63,0,1.14,0.52,1.14,1.14v104.27C627.69,1607.7,627.18,1608.21,626.55,1608.21z"/>
			<path class="st38" d="M712.29,1608.21h-1.62c-0.63,0-1.14-0.52-1.14-1.14V1502.8c0-0.63,0.52-1.14,1.14-1.14h1.62
				c0.63,0,1.14,0.52,1.14,1.14v104.27C713.44,1607.7,712.92,1608.21,712.29,1608.21z"/>
			<path class="st70" d="M721.54,1626.78h-1.67H616.94c-2.69,0-4.89,2.2-4.89,4.89c0,0.65,0.13,1.28,0.37,1.85
				c0.73,1.78,2.49,3.04,4.52,3.04h104.6c2.69,0,4.89-2.2,4.89-4.89S724.23,1626.78,721.54,1626.78z"/>
			<path class="st71" d="M721.54,1626.78h-1.67c0.23,0.57,0.37,1.19,0.37,1.85l0,0c0,2.69-2.2,4.89-4.89,4.89H612.42
				c0.73,1.78,2.49,3.04,4.52,3.04h104.6c2.69,0,4.89-2.2,4.89-4.89S724.23,1626.78,721.54,1626.78z"/>
			<path class="st71" d="M633.43,1645.16h-12.57c-1.71,0-3.12-1.4-3.12-3.12v-4.41c0-1.71,1.4-3.12,3.12-3.12h12.57
				c1.71,0,3.12,1.4,3.12,3.12v4.41C636.54,1643.76,635.14,1645.16,633.43,1645.16z"/>
			<path class="st71" d="M716.79,1645.16h-12.57c-1.71,0-3.12-1.4-3.12-3.12v-4.41c0-1.71,1.4-3.12,3.12-3.12h12.57
				c1.71,0,3.12,1.4,3.12,3.12v4.41C719.91,1643.76,718.5,1645.16,716.79,1645.16z"/>
			<path class="st72" d="M706.33,1485.07c-2.37,0-4.3-1.92-4.3-4.3v-20.49c0-6.48-5.26-11.74-11.74-11.74h-43.64
				c-6.48,0-11.74,5.26-11.74,11.74v20.49c0,2.37-1.92,4.3-4.3,4.3h-11.82c0.53,1.88,2.26,3.26,4.31,3.26h10.6
				c2.47,0,4.48-2.01,4.48-4.48v-23.57c0-4.68,3.8-8.48,8.48-8.48h43.64c4.68,0,8.48,3.8,8.48,8.48v23.57
				c0,2.47,2.01,4.48,4.48,4.48h10.6c2.05,0,3.77-1.38,4.31-3.26H706.33z"/>
			<g>
				<path class="st73" d="M626.77,1476.79L626.77,1476.79c-1.62,0-2.93-1.31-2.93-2.93v-12.06c0-13.74,11.14-24.88,24.88-24.88
					h36.06c1.62,0,2.93,1.31,2.93,2.93l0,0c0,1.62-1.31,2.93-2.93,2.93h-36.06c-10.5,0-19.01,8.51-19.01,19.01v12.06
					C629.7,1475.48,628.39,1476.79,626.77,1476.79z"/>
			</g>
			<g>
				<path class="st66" d="M541.67,1969.42c0,0,0.96,13.1,7.33,25.42c5.43,10.51,16.62,20.04,16.62,20.04l21.51-2.44v-28.68
					c0-7.69-6.19-13.94-13.87-14.02L541.67,1969.42z"/>
				<path class="st69" d="M554.16,1973.87l22.68,2.03c2.56,0.23,4.55,2.32,4.66,4.88l0.78,18.28l-2.35-5.16
					c-3.58-7.86-10.1-14.01-18.16-17.11L554.16,1973.87z"/>
				<path class="st74" d="M554.21,1987.76c-2.95-6.61-4.26-12.93-4.78-18.26l-7.76-0.08c0,0,0.96,13.1,7.33,25.42
					c5.43,10.51,16.62,20.04,16.62,20.04l10.89-1.24C568.28,2008.1,559.59,1999.82,554.21,1987.76z"/>
				
					<ellipse transform="matrix(0.3827 -0.9239 0.9239 0.3827 -1505.8536 1775.1063)" class="st61" cx="575.39" cy="2014.39" rx="15.15" ry="15.15"/>
				<path class="st75" d="M562.69,2014.39c0-7.01,5.69-12.7,12.7-12.7c7.01,0,12.7,5.69,12.7,12.7c0,7.01-5.69,12.7-12.7,12.7
					C568.38,2027.09,562.69,2021.4,562.69,2014.39z"/>
				<circle class="st70" cx="575.39" cy="2014.39" r="6.19"/>
				<path class="st76" d="M579.35,2009.64c0.38,0.8,0.6,1.69,0.6,2.64c0,3.42-2.77,6.19-6.19,6.19c-1.51,0-2.89-0.54-3.96-1.43
					c0.99,2.1,3.12,3.55,5.59,3.55c3.42,0,6.19-2.77,6.19-6.19C581.58,2012.48,580.71,2010.77,579.35,2009.64z"/>
				<path class="st77" d="M571.41,2011.98c0-1.3,1.05-2.35,2.35-2.35s2.35,1.05,2.35,2.35c0,1.3-1.05,2.35-2.35,2.35
					S571.41,2013.28,571.41,2011.98z"/>
			</g>
			<g>
				<path class="st66" d="M795.27,1969.42c0,0-0.96,13.1-7.33,25.42c-5.43,10.51-16.62,20.04-16.62,20.04l-21.51-2.44v-28.68
					c0-7.69,6.19-13.94,13.87-14.02L795.27,1969.42z"/>
				<path class="st69" d="M782.78,1973.87l-22.68,2.03c-2.56,0.23-4.55,2.32-4.66,4.88l-0.78,18.28l2.35-5.16
					c3.58-7.86,10.1-14.01,18.16-17.11L782.78,1973.87z"/>
				<path class="st74" d="M782.73,1987.76c2.95-6.61,4.26-12.93,4.78-18.26l7.76-0.08c0,0-0.96,13.1-7.33,25.42
					c-5.43,10.51-16.62,20.04-16.62,20.04l-10.89-1.24C768.66,2008.1,777.35,1999.82,782.73,1987.76z"/>
				
					<ellipse transform="matrix(0.9732 -0.2298 0.2298 0.9732 -442.4409 228.8552)" class="st61" cx="761.55" cy="2014.39" rx="15.15" ry="15.15"/>
				
					<ellipse transform="matrix(0.9732 -0.2298 0.2298 0.9732 -442.4383 228.8535)" class="st75" cx="761.55" cy="2014.39" rx="12.7" ry="12.7"/>
				<path class="st70" d="M767.74,2014.39c0-3.42-2.77-6.19-6.19-6.19c-3.42,0-6.19,2.77-6.19,6.19c0,3.42,2.77,6.19,6.19,6.19
					C764.96,2020.58,767.74,2017.81,767.74,2014.39z"/>
				<path class="st76" d="M757.59,2009.64c-0.38,0.8-0.6,1.69-0.6,2.64c0,3.42,2.77,6.19,6.19,6.19c1.51,0,2.89-0.54,3.96-1.43
					c-0.99,2.1-3.12,3.55-5.59,3.55c-3.42,0-6.19-2.77-6.19-6.19C755.36,2012.48,756.22,2010.77,757.59,2009.64z"/>
				<path class="st77" d="M765.53,2011.98c0-1.3-1.05-2.35-2.35-2.35c-1.3,0-2.35,1.05-2.35,2.35c0,1.3,1.05,2.35,2.35,2.35
					C764.48,2014.33,765.53,2013.28,765.53,2011.98z"/>
			</g>
			<path class="st78" d="M664.19,1630.82h-45.06c-0.76,0-1.39-0.62-1.39-1.39l0,0c0-0.76,0.62-1.39,1.39-1.39h45.06
				c0.76,0,1.38,0.62,1.38,1.39l0,0C665.58,1630.2,664.95,1630.82,664.19,1630.82z"/>
			<g>
				<path class="st61" d="M803.38,1865.23L803.38,1865.23c-0.67-0.25-1.01-0.99-0.77-1.67c5.3-14.65,7.75-29.93,7.29-45.43
					c-0.39-13.02-2.84-25.84-7.29-38.12c-0.24-0.67,0.09-1.42,0.77-1.67l0,0c0.68-0.25,1.44,0.09,1.68,0.77
					c4.55,12.55,7.05,25.64,7.45,38.94c0.47,15.84-2.03,31.44-7.45,46.41C804.82,1865.14,804.06,1865.48,803.38,1865.23z"/>
			</g>
		</g>
	</g>
</g>
</svg>
