<svg width="91" height="70" viewBox="0 0 91 70" fill="none" xmlns="http://www.w3.org/2000/svg">
<g clip-path="url(#clip0_46_1491)">
<path d="M58.3836 22.5342V8.34245C58.3626 7.72057 58.0272 7.13021 57.4502 6.69939C56.8732 6.26857 56.1011 6.03204 55.3014 6.04108H19.0733C18.2735 6.03204 17.5015 6.26857 16.9245 6.69939C16.3475 7.13021 16.0121 7.72057 15.9911 8.34245V61.274C16.0121 61.8958 16.3475 62.4862 16.9245 62.917C17.5015 63.3478 18.2735 63.5844 19.0733 63.5753H55.2767C56.0765 63.5844 56.8486 63.3478 57.4256 62.917C58.0025 62.4862 58.3379 61.8958 58.3589 61.274V45.9315" fill="white"/>
<path d="M53.9514 45.7397V53.411C53.9498 53.4626 53.9351 53.5135 53.9082 53.5607C53.8813 53.6079 53.8427 53.6506 53.7946 53.6862C53.7466 53.7218 53.6899 53.7497 53.628 53.7683C53.566 53.7869 53.4999 53.7958 53.4336 53.7945H22.4021C22.3357 53.7958 22.2696 53.7869 22.2077 53.7683C22.1457 53.7497 22.0891 53.7218 22.041 53.6862C21.9929 53.6506 21.9543 53.6079 21.9274 53.5607C21.9005 53.5135 21.8858 53.4626 21.8842 53.411V14.2877C21.8858 14.236 21.9005 14.1852 21.9274 14.1379C21.9543 14.0907 21.9929 14.0481 22.041 14.0124C22.0891 13.9768 22.1457 13.9489 22.2077 13.9303C22.2696 13.9117 22.3357 13.9028 22.4021 13.9041H53.4336C53.4999 13.9028 53.566 13.9117 53.628 13.9303C53.6899 13.9489 53.7466 13.9768 53.7946 14.0124C53.8427 14.0481 53.8813 14.0907 53.9082 14.1379C53.9351 14.1852 53.9498 14.236 53.9514 14.2877V21.9589H37.4C37.2008 21.9551 37.0027 21.9818 36.8168 22.0376C36.6309 22.0933 36.461 22.1771 36.3168 22.2839C36.1725 22.3908 36.0567 22.5187 35.976 22.6604C35.8954 22.802 35.8514 22.9547 35.8466 23.1096V44.589C35.8514 44.7439 35.8954 44.8966 35.976 45.0383C36.0567 45.1799 36.1725 45.3079 36.3168 45.4147C36.461 45.5216 36.6309 45.6053 36.8168 45.6611C37.0027 45.7168 37.2008 45.7436 37.4 45.7397H53.9514Z" fill="#A8CBEB"/>
<path d="M37.1781 59.7397C37.9952 59.7397 38.6575 59.2245 38.6575 58.589C38.6575 57.9535 37.9952 57.4384 37.1781 57.4384C36.361 57.4384 35.6986 57.9535 35.6986 58.589C35.6986 59.2245 36.361 59.7397 37.1781 59.7397Z" fill="#515F76"/>
<path d="M32.9863 10.4521H42.3562" stroke="#515F76" stroke-width="1.432" stroke-miterlimit="10" stroke-linecap="round"/>
<path d="M53.4336 13.9041H22.4021C22.1185 13.9041 21.4589 14.0767 21.4589 14.2877V15.8219H54.1301V14.2877C54.0842 14.1731 53.9912 14.0735 53.8653 14.0042C53.7394 13.9349 53.5877 13.8997 53.4336 13.9041Z" fill="#85BEE1"/>
<path d="M76.6301 50.726V53.4109" stroke="#515F76" stroke-width="1.432" stroke-miterlimit="10" stroke-linecap="round"/>
<path d="M78.3562 52.0685H74.9041" stroke="#515F76" stroke-width="1.432" stroke-miterlimit="10" stroke-linecap="round"/>
<path d="M49.3836 0.671234L51.3562 2.20548" stroke="#EA9080" stroke-width="1.432" stroke-miterlimit="10" stroke-linecap="round"/>
<path d="M51.3562 0.671234L49.3836 2.20548" stroke="#EA9080" stroke-width="1.432" stroke-miterlimit="10" stroke-linecap="round"/>
<path d="M11.0411 69.3287C11.5858 69.3287 12.0274 68.9853 12.0274 68.5616C12.0274 68.138 11.5858 67.7945 11.0411 67.7945C10.4964 67.7945 10.0548 68.138 10.0548 68.5616C10.0548 68.9853 10.4964 69.3287 11.0411 69.3287Z" fill="#B8B9BA"/>
<path d="M20.1644 69.3288C20.8453 69.3288 21.3973 68.8994 21.3973 68.3699C21.3973 67.8403 20.8453 67.4109 20.1644 67.4109C19.4835 67.4109 18.9315 67.8403 18.9315 68.3699C18.9315 68.8994 19.4835 69.3288 20.1644 69.3288Z" stroke="#B8B9BA" stroke-width="1.432" stroke-miterlimit="10" stroke-linecap="round"/>
<path d="M61.8356 3.73972C62.3803 3.73972 62.8219 3.39627 62.8219 2.9726C62.8219 2.54893 62.3803 2.20547 61.8356 2.20547C61.2909 2.20547 60.8493 2.54893 60.8493 2.9726C60.8493 3.39627 61.2909 3.73972 61.8356 3.73972Z" fill="#B8B9BA"/>
<path d="M8.83425 59.6198L10.1843 59.0685C10.2006 59.062 10.2189 59.0593 10.2371 59.0604C10.2553 59.0616 10.2728 59.0667 10.2875 59.0752C10.3022 59.0837 10.3136 59.0951 10.3204 59.1083C10.3272 59.1215 10.3292 59.136 10.326 59.15L10.0671 60.315L11.1582 61.1397C11.1709 61.1498 11.1798 61.1624 11.1838 61.1761C11.1879 61.1899 11.187 61.2042 11.1813 61.2176C11.1755 61.231 11.1652 61.2429 11.1513 61.252C11.1375 61.2611 11.1207 61.267 11.1027 61.2692L9.59863 61.4418L8.92672 62.5013C8.91878 62.5146 8.90615 62.5258 8.89032 62.5336C8.87449 62.5415 8.85611 62.5456 8.83733 62.5456C8.81856 62.5456 8.80018 62.5415 8.78434 62.5336C8.76851 62.5258 8.75589 62.5146 8.74795 62.5013L8.07603 61.4418L6.57192 61.2692C6.554 61.267 6.53719 61.2611 6.52334 61.252C6.50948 61.2429 6.49912 61.231 6.49339 61.2176C6.48766 61.2042 6.48677 61.1899 6.49084 61.1761C6.49491 61.1624 6.50377 61.1498 6.51644 61.1397L7.60754 60.315L7.34863 59.15C7.34551 59.136 7.34747 59.1215 7.35428 59.1083C7.36109 59.0951 7.37248 59.0837 7.38719 59.0752C7.4019 59.0667 7.41935 59.0616 7.43758 59.0604C7.45581 59.0593 7.4741 59.062 7.49042 59.0685L8.83425 59.6198Z" fill="#A8CBEB"/>
<path d="M64.548 10.2603C65.2289 10.2603 65.7808 9.83096 65.7808 9.30137C65.7808 8.77178 65.2289 8.34247 64.548 8.34247C63.8671 8.34247 63.3151 8.77178 63.3151 9.30137C63.3151 9.83096 63.8671 10.2603 64.548 10.2603Z" stroke="#B8B9BA" stroke-width="1.432" stroke-miterlimit="10" stroke-linecap="round"/>
<path d="M83.5342 49.3835C84.079 49.3835 84.5205 49.0401 84.5205 48.6164C84.5205 48.1928 84.079 47.8493 83.5342 47.8493C82.9895 47.8493 82.5479 48.1928 82.5479 48.6164C82.5479 49.0401 82.9895 49.3835 83.5342 49.3835Z" fill="#B8B9BA"/>
<path d="M42.4178 41.2328H49.8151" stroke="#343F43" stroke-width="1.432" stroke-miterlimit="10" stroke-linecap="round"/>
<path d="M37.4247 46.1233C37.0323 46.1233 36.656 46.002 36.3785 45.7863C36.1011 45.5705 35.9452 45.2778 35.9452 44.9726V24.6438H34.4658C34.0734 24.6438 33.6971 24.7651 33.4196 24.9809C33.1422 25.1967 32.9863 25.4893 32.9863 25.7945V47.274C32.9863 47.5791 33.1422 47.8718 33.4196 48.0876C33.6971 48.3034 34.0734 48.4247 34.4658 48.4247H58.6301V46.1233H37.4247Z" fill="#C3C7CD"/>
<path d="M53.6986 46.1233H37.4247C37.0323 46.1233 36.656 46.002 36.3785 45.7863C36.1011 45.5705 35.9452 45.2778 35.9452 44.9726V24.6438H34.4658C34.0734 24.6438 33.6971 24.7651 33.4196 24.9809C33.1422 25.1967 32.9863 25.4893 32.9863 25.7945V47.274C32.9863 47.5791 33.1422 47.8718 33.4196 48.0876C33.6971 48.3034 34.0734 48.4247 34.4658 48.4247H53.6986L53.2055 46.1233H53.6986Z" fill="#85BEE1"/>
<path d="M80.3288 26.9452H35.9452V33.0822H80.3288V26.9452Z" fill="white"/>
<path d="M80.3288 23.4932V26.9452H35.9452V23.4932C35.9452 23.188 36.1011 22.8953 36.3785 22.6795C36.656 22.4637 37.0323 22.3425 37.4247 22.3425H78.8493C79.2417 22.3425 79.618 22.4637 79.8955 22.6795C80.1729 22.8953 80.3288 23.188 80.3288 23.4932Z" fill="#EA9080"/>
<path d="M80.3288 33.0822V44.9726C80.3288 45.2778 80.1729 45.5705 79.8955 45.7863C79.618 46.002 79.2417 46.1233 78.8493 46.1233H37.4247C37.0323 46.1233 36.656 46.002 36.3785 45.7863C36.1011 45.5705 35.9452 45.2778 35.9452 44.9726V33.0822H80.3288Z" fill="#EA9080"/>
<path d="M51.2021 36.5294H54.9007" stroke="#515F76" stroke-width="1.432" stroke-miterlimit="10" stroke-linecap="round"/>
<path d="M60.4486 36.5294H64.7637" stroke="#515F76" stroke-width="1.432" stroke-miterlimit="10" stroke-linecap="round"/>
<path d="M69.6952 36.5294H74.0103" stroke="#515F76" stroke-width="1.432" stroke-miterlimit="10" stroke-linecap="round"/>
<path d="M53.2055 46.1233V53.411C53.2039 53.4626 53.1892 53.5135 53.1623 53.5607C53.1354 53.6079 53.0969 53.6506 53.0488 53.6862C53.0007 53.7218 52.944 53.7497 52.8821 53.7683C52.8201 53.7869 52.7541 53.7958 52.6877 53.7945H21.6685C21.6021 53.7958 21.5361 53.7869 21.4741 53.7683C21.4121 53.7497 21.3555 53.7218 21.3074 53.6862C21.2593 53.6506 21.2207 53.6079 21.1939 53.5607C21.167 53.5135 21.1523 53.4626 21.1507 53.411V14.2877C21.1523 14.236 21.167 14.1852 21.1939 14.1379C21.2207 14.0907 21.2593 14.0481 21.3074 14.0124C21.3555 13.9768 21.4121 13.9489 21.4741 13.9303C21.5361 13.9117 21.6021 13.9028 21.6685 13.9041H52.6877C52.7541 13.9028 52.8201 13.9117 52.8821 13.9303C52.944 13.9489 53.0007 13.9768 53.0488 14.0124C53.0969 14.0481 53.1354 14.0907 53.1623 14.1379C53.1892 14.1852 53.2039 14.236 53.2055 14.2877V22.3425" stroke="#515F76" stroke-width="1.432" stroke-miterlimit="10"/>
<path d="M42.5719 36.5294H46.2706" stroke="#515F76" stroke-width="1.432" stroke-miterlimit="10" stroke-linecap="round"/>
<path d="M42.4178 40.274H50.4315" stroke="#515F76" stroke-width="1.432" stroke-miterlimit="10" stroke-linecap="round"/>
<path d="M59.1233 22.726V8.53425C59.1074 8.21893 59.0117 7.90915 58.8416 7.62268C58.6714 7.33621 58.4303 7.07868 58.1319 6.86487C57.8335 6.65106 57.4838 6.48517 57.1028 6.37672C56.7218 6.26826 56.317 6.21938 55.9116 6.23288H18.4445C18.0392 6.21938 17.6344 6.26826 17.2534 6.37672C16.8724 6.48517 16.5227 6.65106 16.2243 6.86487C15.9259 7.07868 15.6847 7.33621 15.5146 7.62268C15.3445 7.90915 15.2487 8.21893 15.2329 8.53425V61.4658C15.2487 61.7811 15.3445 62.0908 15.5146 62.3773C15.6847 62.6638 15.9259 62.9213 16.2243 63.1351C16.5227 63.3489 16.8724 63.5148 17.2534 63.6233C17.6344 63.7317 18.0392 63.7806 18.4445 63.7671H55.9116C56.317 63.7806 56.7218 63.7317 57.1028 63.6233C57.4838 63.5148 57.8335 63.3489 58.1319 63.1351C58.4303 62.9213 58.6714 62.6638 58.8416 62.3773C59.0117 62.0908 59.1074 61.7811 59.1233 61.4658V46.1233" stroke="#515F76" stroke-width="1.432" stroke-miterlimit="10"/>
<path d="M38.1027 44.9726V33.0822H35.637V44.9726C35.637 45.6103 36.6048 46.0274 37.4247 46.0274H39.8904C39.0706 46.0274 38.1027 45.6103 38.1027 44.9726Z" fill="#EEB8A9"/>
<path d="M37.4863 25.7945C37.4863 25.1568 38.2938 24.802 39.1075 24.802L80.0206 24.0349V23.4931C80.0206 22.8555 79.6692 22.0548 78.8493 22.0548H37.4247C36.9652 22.1091 36.5414 22.2792 36.2184 22.5391C35.8955 22.799 35.6912 23.1342 35.637 23.4931V26.8493H37.4863V25.7945Z" fill="#EEB8A9"/>
<path d="M78.8493 22.3425H37.4247C36.6076 22.3425 35.9452 22.8576 35.9452 23.4932V44.9726C35.9452 45.6081 36.6076 46.1233 37.4247 46.1233H78.8493C79.6664 46.1233 80.3288 45.6081 80.3288 44.9726V23.4932C80.3288 22.8576 79.6664 22.3425 78.8493 22.3425Z" stroke="#515F76" stroke-width="1.432" stroke-miterlimit="10"/>
</g>
<defs>
<clipPath id="clip0_46_1491">
<rect width="90" height="70" fill="white" transform="translate(0.5)"/>
</clipPath>
</defs>
</svg>
