<svg width="91" height="70" viewBox="0 0 91 70" fill="none" xmlns="http://www.w3.org/2000/svg">
<g clip-path="url(#clip0_46_1527)">
<path d="M15.5399 47.5913H12.0242V34.0736H51.3964V22.9633H27.3664V10.7855H68.0183V13.5199H30.882V20.2289H54.912V36.808H15.5399V47.5913Z" fill="#2D2D2D" stroke="black" stroke-width="0.00125"/>
<path d="M75.5952 28.5961C74.4111 27.3733 63.957 16.5189 63.957 11.1202C63.957 4.63314 69.163 0.440796 77.2278 0.440796C85.2927 0.440796 90.5 4.63314 90.5 11.1202C90.5 16.5277 80.0459 27.381 78.852 28.5961L77.2292 30.263L75.5952 28.5961Z" fill="#2D2D2D" stroke="black" stroke-width="0.00125"/>
<path d="M77.239 14.5338C79.6125 14.5338 81.5365 13.0373 81.5365 11.1913C81.5365 9.34524 79.6125 7.84875 77.239 7.84875C74.8656 7.84875 72.9415 9.34524 72.9415 11.1913C72.9415 13.0373 74.8656 14.5338 77.239 14.5338Z" fill="white" stroke="black" stroke-width="0.00125"/>
<path d="M12.1381 67.8924C10.9541 66.6696 0.5 55.8152 0.5 50.4164C0.5 43.9294 5.70594 39.7371 13.7708 39.7371C21.8356 39.7371 27.0416 43.9294 27.0416 50.4164C27.0416 55.8239 16.5875 66.6772 15.3936 67.8924L13.7708 69.5592L12.1381 67.8924Z" fill="#DB2B42" stroke="black" stroke-width="0.00125"/>
<path d="M13.7821 53.83C16.1555 53.83 18.0796 52.3335 18.0796 50.4875C18.0796 48.6415 16.1555 47.145 13.7821 47.145C11.4086 47.145 9.48456 48.6415 9.48456 50.4875C9.48456 52.3335 11.4086 53.83 13.7821 53.83Z" fill="white" stroke="black" stroke-width="0.00125"/>
</g>
<defs>
<clipPath id="clip0_46_1527">
<rect width="90" height="70" fill="white" transform="translate(0.5)"/>
</clipPath>
</defs>
</svg>
