<svg width="95" height="70" viewBox="0 0 95 70" fill="none" xmlns="http://www.w3.org/2000/svg">
<path d="M79.9214 52.1129L79.7273 50.0829L77.8435 48.9829L78.0261 50.9629C78.6198 51.4129 79.2592 51.7729 79.9214 52.1129Z" fill="#56585B"/>
<path d="M74.2357 40.5729C74.2014 40.9729 74.19 41.2129 74.19 41.2129C74.2357 41.3429 75.3888 41.3329 75.777 41.2829C76.4164 41.1929 76.6333 41.3429 77.3069 40.5729H74.2357Z" fill="#65686A"/>
<path d="M77.5352 39.3629C77.5352 39.3629 77.1927 40.2829 77.1699 40.6929C77.147 41.1029 77.9691 51.2229 80.8918 52.0329C83.8146 52.8429 91.1787 52.2629 91.1787 52.2629C91.1787 52.2629 92.72 52.2829 92.8113 50.9329C92.9141 49.5829 93.0054 47.7429 91.2814 47.3329C90.9275 47.2529 88.7126 47.1729 87.9248 47.2429C84.8878 47.5229 81.1544 48.4829 80.7092 45.3029C79.9556 40.0329 79.6131 37.6529 79.6131 37.6529L77.5352 39.3629Z" fill="#676A6C"/>
<path d="M74.6353 39.3629C74.6353 39.3629 74.2928 40.2829 74.27 40.6929C74.2471 41.1029 75.0691 51.2229 77.9919 52.0329C80.9147 52.8429 89.0551 52.2429 89.0551 52.2429C89.0551 52.2429 89.82 52.2829 89.9228 50.9329C90.0255 49.5829 90.1169 47.7429 88.3929 47.3329C86.6575 46.9229 79.0537 49.3029 78.6199 45.2929C78.0947 40.4129 77.5124 37.6329 77.5124 37.6329L74.6353 39.3629Z" fill="#9B9DA0"/>
<path d="M74.6581 42.8729C74.6581 42.8729 75.2518 47.3929 76.1994 49.5029C76.1994 49.5029 76.9644 51.1829 77.9577 51.6829C77.9577 51.6829 79.088 52.0629 82.4218 52.0229C85.7556 51.9829 89.3976 52.3629 89.546 51.3729C89.546 51.3729 89.2263 51.5229 88.5413 51.7129C87.8563 51.9029 83.5406 51.7529 81.7139 51.6729C79.8986 51.5929 78.6084 51.7129 77.7522 51.1929C76.6447 50.5129 75.6057 48.2029 74.6581 42.8729Z" fill="#AFB1B4"/>
<path d="M74.2014 41.2229C74.2014 41.2229 74.2927 38.7829 74.875 36.4929C75.149 35.4229 76.0053 34.7529 76.9301 34.1029C79.3848 32.3929 92.4345 32.2229 94.8093 34.1429C94.8093 34.1429 95.3801 35.4129 94.5467 36.9029C93.9987 37.8729 92.2861 37.8329 91.544 37.7829C90.7448 37.7229 91.2243 37.3829 90.5393 37.3829C89.2377 37.3829 80.7777 36.0429 77.8891 39.8629C76.7132 41.4229 76.5876 41.1629 75.7884 41.2829C75.4002 41.3429 74.2471 41.3529 74.2014 41.2229Z" fill="#818386"/>
<path d="M91.2814 35.6529C90.8704 35.6729 90.5051 35.6429 90.3338 36.1029C90.2196 36.4129 90.1283 36.7229 90.0712 37.0529C90.0598 37.1529 90.0484 37.2529 90.0255 37.3529C90.2425 37.3729 90.4137 37.3829 90.5279 37.3829C91.2129 37.3829 90.722 37.7229 91.5326 37.7829C92.2633 37.8429 93.9873 37.8729 94.5353 36.9029C94.7979 36.4329 94.9235 35.9729 94.9691 35.5829C93.7475 35.5829 92.5145 35.6029 91.2814 35.6529Z" fill="#65686A"/>
<path d="M73.6648 40.6129C73.6648 40.6129 72.7629 38.7729 73.3451 36.4929C73.6191 35.4229 74.4754 34.7529 75.4002 34.1029C77.8549 32.3929 91.2928 32.3429 92.9826 33.9829C92.9826 33.9829 93.9987 35.0229 93.1766 36.8129C92.3546 38.6029 90.3224 37.3829 89.0208 37.3829C87.7193 37.3829 79.2592 36.0429 76.3707 39.8629C74.5554 42.2629 73.8132 40.9829 73.6648 40.6129Z" fill="#AFB1B4"/>
<path d="M74.5553 40.5529C74.2128 40.5529 74.0758 40.2629 74.0073 40.1129C73.9959 40.0929 73.9959 40.0829 73.9845 40.0629C73.9731 40.0429 73.231 38.2929 73.7904 36.6029C74.0758 35.7429 75.0919 34.8129 75.9026 34.3829C77.1584 33.7129 81.2914 33.4129 84.8193 33.4129C87.8448 33.4129 91.6924 33.6429 92.5601 34.2929C92.5829 34.3129 92.994 34.6429 93.0625 35.2629C93.1081 35.6529 93.0054 36.0629 92.7542 36.4829C92.4574 36.9829 91.9778 37.2229 91.2471 37.2229C90.8133 37.2229 90.3566 37.1429 89.9113 37.0629C89.5003 36.9929 89.1007 36.9229 88.7582 36.9229C88.5755 36.9229 88.2559 36.8929 87.822 36.8629C86.9886 36.7929 85.7213 36.6929 84.3398 36.6929C80.6292 36.6929 78.0832 37.4329 76.7703 38.8929C75.7884 39.9929 75.0349 40.5529 74.5553 40.5529ZM84.8193 33.5529C81.2914 33.5529 77.1813 33.8529 75.9368 34.5229C75.012 35.0129 74.1101 35.9629 73.8817 36.6729C73.3451 38.2829 74.0644 39.9629 74.0758 39.9729C74.0872 39.9829 74.0872 40.0029 74.0987 40.0229C74.1672 40.1729 74.2699 40.4029 74.5668 40.4029C75.0234 40.4029 75.7541 39.8529 76.736 38.7629C78.0718 37.2829 80.6292 36.5329 84.3626 36.5329C85.7441 36.5329 87.0114 36.6329 87.8449 36.7029C88.2559 36.7429 88.587 36.7629 88.7582 36.7629C89.1007 36.7629 89.5003 36.8329 89.9228 36.9029C90.368 36.9829 90.8247 37.0629 91.2471 37.0629C91.9436 37.0629 92.4003 36.8429 92.6857 36.3729C92.914 35.9929 93.0054 35.6229 92.9711 35.2829C92.914 34.7329 92.5259 34.4229 92.5144 34.4229C91.818 33.8929 88.7925 33.5529 84.8193 33.5529Z" fill="#DBDFE1"/>
<path d="M75.2632 37.6529C75.2632 37.9829 75.1262 38.2529 74.955 38.2529C74.7837 38.2529 74.6467 37.9829 74.6467 37.6529C74.6467 37.3229 74.7837 37.0529 74.955 37.0529C75.1262 37.0629 75.2632 37.3229 75.2632 37.6529Z" fill="#AFB1B4"/>
<path d="M75.2061 37.7329C75.2061 37.9429 75.1262 38.1029 75.012 38.1029C74.9093 38.1029 74.818 37.9329 74.818 37.7329C74.818 37.5229 74.8979 37.3629 75.012 37.3629C75.1148 37.3529 75.2061 37.5229 75.2061 37.7329Z" fill="#AFB1B4"/>
<path d="M76.9758 37.3929C76.2907 34.7329 69.7373 9.19289 69.7373 9.19289C69.7373 9.19289 70.5936 0.182891 65.1591 0.362891H47.6566L48.0334 1.93289L59.93 47.3729C59.93 47.3729 71.4727 46.4829 74.738 45.1929C74.738 45.1929 77.7521 44.7629 77.8435 41.9329C77.832 41.9329 77.6608 40.0529 76.9758 37.3929Z" fill="#0079C0"/>
<g opacity="0.5">
<path d="M76.9757 37.3929C76.2907 34.7329 69.7373 9.19289 69.7373 9.19289C69.7373 9.19289 70.5936 0.182891 65.1591 0.362891H64.8051C66.5862 0.582891 68.1503 1.88289 68.3216 4.78289C68.5157 8.06289 66.1752 7.96289 63.4693 8.11289C60.7749 8.26289 53.2739 9.00289 54.427 9.00289C55.5801 9.00289 67.5224 8.50289 68.1732 9.55289C68.8239 10.5929 69.92 15.8629 69.92 15.8629C69.92 15.8629 73.7675 31.2629 74.5211 34.0529C75.2746 36.8329 73.9731 38.5729 71.5755 39.3229C69.1779 40.0729 62.0764 43.2529 57.5895 29.2329C56.4478 25.6729 54.8723 23.1729 53.1483 21.4429L59.93 47.3629C59.93 47.3629 71.4727 46.4729 74.738 45.1829C74.738 45.1829 77.7521 44.7529 77.8435 41.9229C77.832 41.9329 77.6608 40.0529 76.9757 37.3929Z" fill="#00467C"/>
</g>
<path d="M46.1724 0.702891C46.1724 0.702891 43.1583 1.39289 44.1059 6.44289C45.0536 11.5029 53.4109 42.9629 53.5022 43.2129C53.5022 43.2129 54.2786 46.4729 57.5553 45.1829C57.5553 45.1829 60.5694 44.7529 60.6607 41.9229C60.6607 41.9229 60.4895 40.0329 59.793 37.3829C59.108 34.7229 52.5546 9.18289 52.5546 9.18289C52.5546 9.18289 53.5821 -1.69711 46.1724 0.702891Z" fill="#004D88"/>
<path d="M46.5492 2.99289C46.5492 2.99289 44.026 3.56289 44.8138 7.80289C45.613 12.0429 52.6117 38.4129 52.6916 38.6229C52.6916 38.6229 53.3424 41.3529 56.0825 40.2729C56.0825 40.2729 58.6057 39.9129 58.6856 37.5429C58.6856 37.5429 58.5372 35.9629 57.9663 33.7329C57.384 31.5029 51.8924 10.0929 51.8924 10.0929C51.8924 10.0929 52.7715 0.982888 46.5492 2.99289Z" fill="#003C6F"/>
<path d="M44.1174 4.65288C44.1174 4.65288 43.969 1.78288 46.5949 0.85288C49.2208 -0.0771196 51.3787 1.43288 52.155 4.81288C52.155 4.81288 51.0818 0.76288 47.7823 0.93288C45.1563 1.07288 43.8548 2.97288 44.38 6.37288C44.38 6.37288 44.1745 5.38288 44.1174 4.65288Z" fill="#55B7E6"/>
<path d="M45.8528 11.2229C45.8528 11.2229 48.6499 11.2229 51.744 9.95288C51.744 9.95288 49.0724 11.4429 45.8528 11.2229Z" fill="#55B7E6"/>
<path d="M49.7916 26.7729C49.7916 26.7729 52.5888 26.7729 55.6829 25.5029C55.6943 25.5029 53.0227 26.9929 49.7916 26.7729Z" fill="#55B7E6"/>
<path opacity="0.4" d="M51.2873 0.622894H64.1772C64.1772 0.622894 66.8945 0.952894 66.1638 1.33289C65.376 1.74289 58.971 1.55289 55.1463 1.67289C51.3216 1.78289 49.7917 0.662894 51.2873 0.622894Z" fill="#0079C0"/>
<path d="M89.0893 67.0529H88.1303V69.3429H89.0893V67.0529Z" fill="#2A2C2E"/>
<path d="M79.6816 67.0529H78.7226V69.3429H79.6816V67.0529Z" fill="#2A2C2E"/>
<path d="M89.3747 67.9229L78.2202 67.9729C78.2202 67.9729 77.3639 67.8629 77.1813 65.7729L76.3935 50.0129L75.1718 48.9829L75.9025 65.8629C75.9025 65.8629 76.188 69.5429 78.1403 69.6429H89.8086C89.8086 69.6429 90.1968 69.5429 90.1968 68.8729C90.1968 68.8629 90.3109 67.7929 89.3747 67.9229Z" fill="#7F8285"/>
<path d="M76.2222 66.1829C76.0281 65.2129 75.9824 63.8429 75.9025 62.8129L76.0167 65.5829C76.0167 65.5829 76.2679 68.9229 78.0033 69.3229C77.2497 68.6829 76.6789 68.3929 76.2222 66.1829Z" fill="#AFB1B4"/>
<path d="M88.7924 49.8529C88.7924 49.8529 86.6689 56.4129 84.9335 57.4029C83.1981 58.3929 65.6043 58.4929 63.5606 57.6029L67.3055 48.3629L88.7924 49.8529Z" fill="#000B30"/>
<path d="M75.3089 49.8529C75.3089 49.8529 73.3908 56.4129 71.8038 57.4029C70.2283 58.3929 58.286 58.4929 56.4364 57.6029L55.8199 48.3629L75.3089 49.8529Z" fill="#002853"/>
<path opacity="0.4" d="M58.5372 52.7529C59.9643 53.0829 72.6487 53.4329 76.4278 52.2629C76.9529 50.9229 77.2954 49.8629 77.2954 49.8629L55.8199 48.3629L56.0825 52.0029C56.8931 52.3629 57.7608 52.5629 58.5372 52.7529Z" fill="#002853"/>
<path d="M69.0751 67.0529H68.1161V69.3429H69.0751V67.0529Z" fill="#2A2C2E"/>
<path d="M59.6674 67.0529H58.7084V69.3429H59.6674V67.0529Z" fill="#2A2C2E"/>
<path d="M69.3606 67.9229L58.206 67.9729C58.206 67.9729 57.3498 67.8629 57.1671 65.7729L56.3793 50.0129L55.1577 48.9829L55.8884 65.8629C55.8884 65.8629 56.1738 69.5429 58.1261 69.6429H69.7944C69.7944 69.6429 70.1826 69.5429 70.1826 68.8729C70.1826 68.8629 70.2968 67.7929 69.3606 67.9229Z" fill="#66696C"/>
<path d="M56.2195 66.1829C56.0254 65.2129 55.9797 63.8429 55.8998 62.8129L56.0139 65.5829C56.0139 65.5829 56.2651 68.9229 58.0005 69.3229C57.2356 68.6829 56.6647 68.3929 56.2195 66.1829Z" fill="#AFB1B4"/>
<path d="M71.9637 42.7029C73.7219 42.1929 78.2888 43.4529 83.7804 43.0029C89.272 42.5529 90.3909 41.9629 91.1558 44.5729C91.1558 44.5729 91.5098 46.2129 91.2015 48.0029C90.8932 49.7929 89.9913 51.3229 88.5413 51.2329C87.6622 51.1729 72.3519 52.0229 67.5681 51.5129C64.4284 51.1629 70.2055 43.2129 71.9637 42.7029Z" fill="#00315E"/>
<path d="M54.3471 48.1429C54.3471 48.1429 55.3061 42.8229 57.0644 42.3129C58.8226 41.8029 61.871 43.4429 67.3626 42.9929C72.8542 42.5429 73.9731 41.9529 74.738 44.5629C74.738 44.5629 75.092 46.2029 74.7837 47.9929C74.4754 49.7829 73.5735 51.3129 72.1235 51.2229C70.6735 51.1229 55.3061 53.4329 54.3471 48.1429Z" fill="#004D88"/>
<path d="M54.3471 47.9529C54.3471 47.9529 55.2833 43.6029 56.9959 43.1829C58.7084 42.7629 61.6883 44.1129 67.0429 43.7429C72.3975 43.3729 73.4936 42.8929 74.2357 45.0229C74.2357 45.0229 74.5782 46.3629 74.2813 47.8329C73.9845 49.2929 73.1054 50.5529 71.6897 50.4729C70.2625 50.3929 55.2833 52.2829 54.3471 47.9529Z" fill="#003C6F"/>
<path d="M88.8495 42.9529C88.8495 42.9529 84.9107 43.5529 82.2505 43.6529C76.9986 43.8529 75.2061 42.7129 75.1034 43.5029C75.0006 44.2929 77.0557 47.4529 81.9993 47.5329C88.7468 47.6329 89.7972 45.7429 90.1397 44.5529C90.505 43.3429 89.7972 42.8029 88.8495 42.9529Z" fill="#14568F"/>
<path d="M58.4915 52.1129L58.2974 50.0829L56.4135 48.9829L56.5962 50.9629C57.1785 51.4129 57.8293 51.7729 58.4915 52.1129Z" fill="#56585B"/>
<path d="M52.8058 40.5729C52.7715 40.9729 52.7601 41.2129 52.7601 41.2129C52.8058 41.3429 53.9589 41.3329 54.3471 41.2829C54.9864 41.1929 55.2033 41.3429 55.877 40.5729H52.8058Z" fill="#65686A"/>
<path d="M56.1053 39.3629C56.1053 39.3629 55.7628 40.2829 55.74 40.6929C55.7171 41.1029 56.5392 51.2229 59.4619 52.0329C62.3847 52.8429 69.7487 52.2629 69.7487 52.2629C69.7487 52.2629 71.29 52.2829 71.3814 50.9329C71.4841 49.5829 71.5755 47.7429 69.8515 47.3329C69.4976 47.2529 67.2826 47.1729 66.4949 47.2429C63.4579 47.5229 59.7245 48.4829 59.2793 45.3029C58.5257 40.0329 58.1832 37.6529 58.1832 37.6529L56.1053 39.3629Z" fill="#676A6C"/>
<path d="M53.2053 39.3629C53.2053 39.3629 52.8628 40.2829 52.84 40.6929C52.8172 41.1029 53.6392 51.2229 56.562 52.0329C59.4847 52.8429 67.6251 52.2429 67.6251 52.2429C67.6251 52.2429 68.3901 52.2829 68.4928 50.9329C68.5956 49.5829 68.6869 47.7429 66.9629 47.3329C65.2275 46.9229 57.6238 49.3029 57.1899 45.2929C56.6647 40.4129 56.0825 37.6329 56.0825 37.6329L53.2053 39.3629Z" fill="#9B9DA0"/>
<path d="M53.2282 42.8729C53.2282 42.8729 53.8219 47.3929 54.7695 49.5029C54.7695 49.5029 55.5344 51.1829 56.5277 51.6829C56.5277 51.6829 57.658 52.0629 60.9918 52.0229C64.3256 51.9829 67.9676 52.3629 68.1161 51.3729C68.1161 51.3729 67.7964 51.5229 67.1114 51.7129C66.4263 51.9029 62.1107 51.7529 60.2839 51.6729C58.4686 51.5929 57.1785 51.7129 56.3222 51.1929C55.2033 50.5129 54.1644 48.2029 53.2282 42.8729Z" fill="#AFB1B4"/>
<path d="M52.7601 41.2229C52.7601 41.2229 52.8514 38.7829 53.4337 36.4929C53.7077 35.4229 54.564 34.7529 55.4888 34.1029C57.9434 32.3929 70.9932 32.2229 73.368 34.1429C73.368 34.1429 73.9388 35.4129 73.1054 36.9029C72.5573 37.8729 70.8448 37.8329 70.1027 37.7829C69.292 37.7229 69.783 37.3829 69.098 37.3829C67.7964 37.3829 59.3363 36.0429 56.4478 39.8629C55.2719 41.4229 55.1463 41.1629 54.3471 41.2829C53.9589 41.3429 52.8172 41.3529 52.7601 41.2229Z" fill="#818386"/>
<path d="M69.8515 35.6529C69.4405 35.6729 69.0751 35.6429 68.9153 36.1029C68.8011 36.4129 68.7098 36.7229 68.6527 37.0529C68.6413 37.1529 68.6299 37.2529 68.607 37.3529C68.824 37.3729 68.9952 37.3829 69.1094 37.3829C69.7944 37.3829 69.3035 37.7229 70.1141 37.7829C70.8448 37.8429 72.5688 37.8729 73.1168 36.9029C73.3794 36.4329 73.505 35.9729 73.5506 35.5829C72.3176 35.5829 71.0845 35.6029 69.8515 35.6529Z" fill="#65686A"/>
<path d="M52.2349 40.6129C52.2349 40.6129 51.3329 38.7729 51.9152 36.4929C52.1892 35.4229 53.0455 34.7529 53.9703 34.1029C56.425 32.3929 69.8629 32.3429 71.5526 33.9829C71.5526 33.9829 72.5688 35.0229 71.7467 36.8129C70.9247 38.6029 68.8924 37.3829 67.5909 37.3829C66.2893 37.3829 57.8293 36.0429 54.9408 39.8629C53.114 42.2629 52.3833 40.9829 52.2349 40.6129Z" fill="#AFB1B4"/>
<path d="M53.1254 40.5529C52.7829 40.5529 52.6459 40.2629 52.5774 40.1129C52.566 40.0929 52.566 40.0829 52.5546 40.0629C52.5431 40.0429 51.801 38.2929 52.3605 36.6029C52.6459 35.7429 53.662 34.8129 54.4726 34.3829C55.7285 33.7129 59.8615 33.4129 63.3894 33.4129C66.4149 33.4129 70.2625 33.6429 71.1302 34.2929C71.153 34.3129 71.564 34.6429 71.6325 35.2629C71.6782 35.6529 71.5755 36.0629 71.3243 36.4829C71.0274 36.9829 70.5479 37.2229 69.8172 37.2229C69.3834 37.2229 68.9267 37.1429 68.4814 37.0629C68.0704 36.9929 67.6708 36.9229 67.3283 36.9229C67.1456 36.9229 66.8259 36.8929 66.3921 36.8629C65.5586 36.7929 64.2913 36.6929 62.9099 36.6929C59.1993 36.6929 56.6533 37.4329 55.3403 38.8929C54.3471 39.9929 53.6049 40.5529 53.1254 40.5529ZM63.3894 33.5529C59.8615 33.5529 55.7399 33.8529 54.4955 34.5229C53.5707 35.0129 52.6687 35.9629 52.4404 36.6729C51.9038 38.2829 52.6231 39.9629 52.6345 39.9729C52.6459 39.9829 52.6459 40.0029 52.6573 40.0229C52.7258 40.1729 52.8286 40.4029 53.1254 40.4029C53.5821 40.4029 54.3128 39.8529 55.2947 38.7629C56.6191 37.2829 59.1879 36.5329 62.9213 36.5329C64.3142 36.5329 65.5701 36.6329 66.4035 36.7029C66.8259 36.7329 67.157 36.7629 67.3283 36.7629C67.6708 36.7629 68.0704 36.8329 68.4928 36.9029C68.9381 36.9829 69.3948 37.0629 69.8172 37.0629C70.5137 37.0629 70.9703 36.8429 71.2558 36.3729C71.4841 35.9929 71.5754 35.6229 71.5412 35.2829C71.4841 34.7329 71.0959 34.4229 71.0845 34.4229C70.3767 33.8929 67.3625 33.5529 63.3894 33.5529Z" fill="#DBDFE1"/>
<path d="M53.8333 37.6529C53.8333 37.9829 53.6963 38.2529 53.525 38.2529C53.3538 38.2529 53.2168 37.9829 53.2168 37.6529C53.2168 37.3229 53.3538 37.0529 53.525 37.0529C53.6963 37.0629 53.8333 37.3229 53.8333 37.6529Z" fill="#AFB1B4"/>
<path d="M53.7648 37.7329C53.7648 37.9429 53.6848 38.1029 53.5707 38.1029C53.4679 38.1029 53.3766 37.9329 53.3766 37.7329C53.3766 37.5229 53.4565 37.3629 53.5707 37.3629C53.6848 37.3529 53.7648 37.5229 53.7648 37.7329Z" fill="#AFB1B4"/>
<path d="M55.5344 37.3929C54.8494 34.7329 48.296 9.19289 48.296 9.19289C48.296 9.19289 49.1523 0.182891 43.7177 0.362891H26.2153L26.5921 1.93289L38.4887 47.3729C38.4887 47.3729 50.0314 46.4829 53.2967 45.1929C53.2967 45.1929 56.3108 44.7629 56.4021 41.9329C56.4021 41.9329 56.2309 40.0529 55.5344 37.3929Z" fill="#0079C0"/>
<g opacity="0.5">
<path d="M55.5344 37.3929C54.8494 34.7329 48.296 9.19289 48.296 9.19289C48.296 9.19289 49.1523 0.182891 43.7177 0.362891H43.3638C45.1449 0.582891 46.709 1.88289 46.8803 4.78289C47.0744 8.06289 44.7338 7.96289 42.028 8.11289C39.3336 8.26289 31.8325 9.00289 32.9857 9.00289C34.1388 9.00289 46.0811 8.50289 46.7318 9.55289C47.3826 10.5929 48.4787 15.8629 48.4787 15.8629C48.4787 15.8629 52.3262 31.2629 53.0797 34.0529C53.8333 36.8329 52.5317 38.5729 50.1341 39.3229C47.7365 40.0729 40.6351 43.2529 36.1482 29.2329C35.0065 25.6729 33.4309 23.1729 31.7184 21.4429L38.5001 47.3629C38.5001 47.3629 50.0428 46.4729 53.3081 45.1829C53.3081 45.1829 56.3222 44.7529 56.4135 41.9229C56.4021 41.9329 56.2309 40.0529 55.5344 37.3929Z" fill="#00467C"/>
</g>
<path d="M24.7311 0.702891C24.7311 0.702891 21.717 1.39289 22.6646 6.44289C23.6122 11.5029 31.9696 42.9629 32.0609 43.2129C32.0609 43.2129 32.8373 46.4729 36.114 45.1829C36.114 45.1829 39.1281 44.7529 39.2194 41.9229C39.2194 41.9229 39.0482 40.0329 38.3631 37.3829C37.6781 34.7229 31.1247 9.18289 31.1247 9.18289C31.1247 9.18289 32.1408 -1.69711 24.7311 0.702891Z" fill="#004D88"/>
<path d="M25.1193 2.99289C25.1193 2.99289 22.5961 3.56289 23.3839 7.80289C24.1831 12.0429 31.1817 38.4129 31.2617 38.6229C31.2617 38.6229 31.9124 41.3529 34.6525 40.2729C34.6525 40.2729 37.1757 39.9129 37.2556 37.5429C37.2556 37.5429 37.1072 35.9629 36.5364 33.7329C35.9541 31.5029 30.4625 10.0929 30.4625 10.0929C30.4625 10.0929 31.3302 0.982888 25.1193 2.99289Z" fill="#003C6F"/>
<path d="M22.676 4.65288C22.676 4.65288 22.5276 1.78288 25.1535 0.85288C27.7795 -0.0771196 29.9373 1.43288 30.7137 4.81288C30.7137 4.81288 29.6405 0.76288 26.3409 0.93288C23.715 1.07288 22.4134 2.97288 22.9386 6.37288C22.9386 6.37288 22.7445 5.38288 22.676 4.65288Z" fill="#55B7E6"/>
<path d="M24.4114 11.2229C24.4114 11.2229 27.2086 11.2229 30.3026 9.95288C30.3141 9.95288 27.6425 11.4429 24.4114 11.2229Z" fill="#55B7E6"/>
<path d="M28.3617 26.7729C28.3617 26.7729 31.1589 26.7729 34.2529 25.5029C34.2529 25.5029 31.5813 26.9929 28.3617 26.7729Z" fill="#55B7E6"/>
<path opacity="0.4" d="M29.8574 0.622894H42.7473C42.7473 0.622894 45.4645 0.952894 44.7338 1.33289C43.9461 1.74289 37.5411 1.55289 33.7163 1.67289C29.8916 1.78289 28.3503 0.662894 29.8574 0.622894Z" fill="#0079C0"/>
<path d="M67.6594 67.0529H66.7004V69.3429H67.6594V67.0529Z" fill="#2A2C2E"/>
<path d="M58.2517 67.0529H57.2927V69.3429H58.2517V67.0529Z" fill="#2A2C2E"/>
<path d="M67.9448 67.9229L56.7903 67.9629C56.7903 67.9629 55.9341 67.8529 55.7514 65.7629L54.9636 50.0029L53.742 48.9729L54.4727 65.8529C54.4727 65.8529 54.7581 69.5329 56.7104 69.6329H68.3787C68.3787 69.6329 68.7669 69.5329 68.7669 68.8629C68.7669 68.8629 68.8696 67.7929 67.9448 67.9229Z" fill="#7F8285"/>
<path d="M54.7923 66.1829C54.5983 65.2129 54.5526 63.8429 54.4727 62.8129L54.5868 65.5829C54.5868 65.5829 54.838 68.9229 56.5734 69.3229C55.8085 68.6829 55.249 68.3929 54.7923 66.1829Z" fill="#AFB1B4"/>
<path d="M67.3626 49.8529C67.3626 49.8529 65.239 56.4129 63.5036 57.4029C61.7682 58.3929 44.1744 58.4929 42.1422 57.6029L45.887 48.3629L67.3626 49.8529Z" fill="#000B30"/>
<path d="M53.8676 49.8529C53.8676 49.8529 51.9495 56.4129 50.3625 57.4029C48.787 58.3929 36.8447 58.4929 34.9951 57.6029L34.3786 48.3629L53.8676 49.8529Z" fill="#002853"/>
<path opacity="0.4" d="M37.1073 52.7529C38.5344 53.0829 51.2188 53.4329 54.9978 52.2629C55.523 50.9229 55.8656 49.8629 55.8656 49.8629L34.3786 48.3629L34.6412 52.0029C35.4632 52.3629 36.3195 52.5629 37.1073 52.7529Z" fill="#002853"/>
<path d="M47.6452 67.0529H46.6862V69.3429H47.6452V67.0529Z" fill="#2A2C2E"/>
<path d="M38.2375 67.0529H37.2785V69.3429H38.2375V67.0529Z" fill="#2A2C2E"/>
<path d="M47.9307 67.9229L36.7761 67.9729C36.7761 67.9729 35.9199 67.8629 35.7372 65.7729L34.9494 50.0129L33.7278 48.9829L34.4585 65.8629C34.4585 65.8629 34.7439 69.5429 36.6962 69.6429H48.3645C48.3645 69.6429 48.7527 69.5429 48.7527 68.8729C48.7527 68.8629 48.8554 67.7929 47.9307 67.9229Z" fill="#66696C"/>
<path d="M34.7781 66.1829C34.5841 65.2129 34.5384 63.8429 34.4585 62.8129L34.5726 65.5829C34.5726 65.5829 34.8238 68.9229 36.5592 69.3229C35.8057 68.6829 35.2348 68.3929 34.7781 66.1829Z" fill="#AFB1B4"/>
<path d="M50.5223 42.7029C52.2806 42.1929 56.8474 43.4529 62.339 43.0029C67.8306 42.5529 68.9495 41.9629 69.7145 44.5729C69.7145 44.5729 70.0684 46.2129 69.7601 48.0029C69.4519 49.7929 68.5499 51.3229 67.0999 51.2329C66.2208 51.1729 50.9105 52.0229 46.1267 51.5129C42.987 51.1629 48.7641 43.2129 50.5223 42.7029Z" fill="#00315E"/>
<path d="M32.9057 48.1429C32.9057 48.1429 33.8648 42.8229 35.623 42.3129C37.3813 41.8029 40.4296 43.4429 45.9212 42.9929C51.4129 42.5429 52.5317 41.9529 53.2967 44.5629C53.2967 44.5629 53.6506 46.2029 53.3424 47.9929C53.0341 49.7829 52.1321 51.3129 50.6822 51.2229C49.2322 51.1229 33.8762 53.4329 32.9057 48.1429Z" fill="#004D88"/>
<path d="M32.9057 47.9529C32.9057 47.9529 33.8419 43.6029 35.5545 43.1829C37.2671 42.7629 40.2469 44.1129 45.6016 43.7429C50.9562 43.3729 52.0408 42.8929 52.7943 45.0229C52.7943 45.0229 53.1368 46.3629 52.84 47.8329C52.5432 49.2929 51.664 50.5529 50.2483 50.4729C48.8212 50.3929 33.8534 52.2829 32.9057 47.9529Z" fill="#003C6F"/>
<path d="M67.4196 42.9529C67.4196 42.9529 63.4807 43.5529 60.8205 43.6529C55.5687 43.8529 53.7762 42.7129 53.6735 43.5029C53.5707 44.2929 55.6258 47.4529 60.5694 47.5329C67.3169 47.6329 68.3673 45.7429 68.7098 44.5529C69.0637 43.3429 68.3673 42.8029 67.4196 42.9529Z" fill="#14568F"/>
<path d="M35.9998 52.1129L35.8057 50.0829L33.9219 48.9829L34.1046 50.9629C34.6983 51.4129 35.3376 51.7729 35.9998 52.1129Z" fill="#56585B"/>
<path d="M30.3141 40.5729C30.2798 40.9729 30.2684 41.2129 30.2684 41.2129C30.3141 41.3429 31.4672 41.3329 31.8668 41.2829C32.5062 41.1929 32.7231 41.3429 33.3967 40.5729H30.3141Z" fill="#65686A"/>
<path d="M33.6136 39.3629C33.6136 39.3629 33.2711 40.2829 33.2483 40.6929C33.2254 41.1029 34.0475 51.2229 36.9702 52.0329C39.893 52.8429 47.257 52.2629 47.257 52.2629C47.257 52.2629 48.7984 52.2829 48.8897 50.9329C48.9924 49.5829 49.0838 47.7429 47.3598 47.3329C47.0059 47.2529 44.791 47.1729 44.0032 47.2429C40.9662 47.5229 37.2328 48.4829 36.7876 45.3029C36.034 40.0329 35.6915 37.6529 35.6915 37.6529L33.6136 39.3629Z" fill="#676A6C"/>
<path d="M30.7251 39.3629C30.7251 39.3629 30.3826 40.2829 30.3597 40.6929C30.3369 41.1029 31.1589 51.2229 34.0817 52.0329C37.0045 52.8429 45.1449 52.2429 45.1449 52.2429C45.1449 52.2429 45.9098 52.2829 46.0126 50.9329C46.1153 49.5829 46.2067 47.7429 44.4827 47.3329C42.7473 46.9229 35.1435 49.3029 34.7097 45.2929C34.1845 40.4129 33.6022 37.6329 33.6022 37.6329L30.7251 39.3629Z" fill="#9B9DA0"/>
<path d="M30.7365 42.8729C30.7365 42.8729 31.3302 47.3929 32.2778 49.5029C32.2778 49.5029 33.0428 51.1829 34.0361 51.6829C34.0361 51.6829 35.1663 52.0629 38.5001 52.0229C41.8339 51.9829 45.4646 52.3629 45.6244 51.3729C45.6244 51.3729 45.3047 51.5229 44.6197 51.7129C43.9347 51.9029 39.619 51.7529 37.7923 51.6729C35.977 51.5929 34.6868 51.7129 33.8305 51.1929C32.7231 50.5129 31.6841 48.2029 30.7365 42.8729Z" fill="#AFB1B4"/>
<path d="M30.2798 41.2229C30.2798 41.2229 30.3712 38.7829 30.9535 36.4929C31.2275 35.4229 32.0837 34.7529 33.0085 34.1029C35.4632 32.3929 48.513 32.2229 50.8877 34.1429C50.8877 34.1429 51.4586 35.4129 50.6251 36.9029C50.0771 37.8729 48.3645 37.8329 47.6224 37.7829C46.8232 37.7229 47.3027 37.3829 46.6177 37.3829C45.3162 37.3829 36.8561 36.0429 33.9676 39.8629C32.7916 41.4229 32.666 41.1629 31.8668 41.2829C31.4786 41.3429 30.3255 41.3529 30.2798 41.2229Z" fill="#818386"/>
<path d="M47.3712 35.6529C46.9602 35.6729 46.5949 35.6429 46.4236 36.1029C46.3094 36.4129 46.2181 36.7229 46.161 37.0529C46.1496 37.1529 46.1382 37.2529 46.1154 37.3529C46.3323 37.3729 46.5035 37.3829 46.6177 37.3829C47.3027 37.3829 46.8118 37.7229 47.6224 37.7829C48.3531 37.8429 50.0771 37.8729 50.6251 36.9029C50.8877 36.4329 51.0133 35.9729 51.059 35.5829C49.8259 35.5829 48.6043 35.6029 47.3712 35.6529Z" fill="#65686A"/>
<path d="M29.7546 40.6129C29.7546 40.6129 28.8527 38.7729 29.435 36.4929C29.709 35.4229 30.5653 34.7529 31.49 34.1029C33.9447 32.3929 47.3826 32.3429 49.0724 33.9829C49.0724 33.9829 50.0885 35.0229 49.2665 36.8129C48.4444 38.6029 46.4122 37.3829 45.1106 37.3829C43.8091 37.3829 35.349 36.0429 32.4605 39.8629C30.6338 42.2629 29.8916 40.9829 29.7546 40.6129Z" fill="#AFB1B4"/>
<path d="M30.6338 40.5529C30.2913 40.5529 30.1543 40.2629 30.0858 40.1129C30.0743 40.0929 30.0743 40.0829 30.0629 40.0629C30.0515 40.0429 29.3094 38.2929 29.8688 36.6029C30.1543 35.7429 31.1704 34.8129 31.981 34.3829C33.2369 33.7129 37.3699 33.4129 40.8977 33.4129C43.9233 33.4129 47.7708 33.6429 48.6385 34.2929C48.6614 34.3129 49.0724 34.6429 49.1409 35.2629C49.1866 35.6529 49.0838 36.0629 48.8326 36.4829C48.5358 36.9829 48.0563 37.2229 47.3256 37.2229C46.8917 37.2229 46.435 37.1429 45.9898 37.0629C45.5788 36.9929 45.1792 36.9229 44.8366 36.9229C44.654 36.9229 44.3343 36.8929 43.9004 36.8629C43.067 36.7929 41.7997 36.6929 40.4182 36.6929C36.7077 36.6929 34.1617 37.4329 32.8487 38.8929C31.8668 39.9929 31.1133 40.5529 30.6338 40.5529ZM40.8977 33.5529C37.3699 33.5529 33.2597 33.8529 32.0152 34.5229C31.0905 35.0129 30.1885 35.9629 29.9602 36.6729C29.4236 38.2829 30.1428 39.9629 30.1543 39.9729C30.1657 39.9829 30.1657 40.0029 30.1771 40.0229C30.2456 40.1729 30.3483 40.4029 30.6452 40.4029C31.1019 40.4029 31.8326 39.8529 32.8144 38.7629C34.1388 37.2829 36.7077 36.5329 40.4411 36.5329C41.8339 36.5329 43.0898 36.6329 43.9233 36.7029C44.3457 36.7329 44.6768 36.7629 44.8481 36.7629C45.1906 36.7629 45.5902 36.8329 46.0126 36.9029C46.4579 36.9829 46.9146 37.0629 47.337 37.0629C48.0334 37.0629 48.4901 36.8429 48.7755 36.3729C49.0039 35.9929 49.0952 35.6229 49.061 35.2829C49.0039 34.7329 48.6157 34.4229 48.6043 34.4229C47.8964 33.8929 44.8709 33.5529 40.8977 33.5529Z" fill="#DBDFE1"/>
<path d="M31.3416 37.6529C31.3416 37.9829 31.2046 38.2529 31.0334 38.2529C30.8621 38.2529 30.7251 37.9829 30.7251 37.6529C30.7251 37.3229 30.8621 37.0529 31.0334 37.0529C31.2046 37.0629 31.3416 37.3229 31.3416 37.6529Z" fill="#AFB1B4"/>
<path d="M31.2845 37.7329C31.2845 37.9429 31.2046 38.1029 31.0904 38.1029C30.9877 38.1029 30.8963 37.9329 30.8963 37.7329C30.8963 37.5229 30.9763 37.3629 31.0904 37.3629C31.1932 37.3529 31.2845 37.5229 31.2845 37.7329Z" fill="#AFB1B4"/>
<path d="M33.0542 37.3929C32.3691 34.7329 25.8157 9.19289 25.8157 9.19289C25.8157 9.19289 26.672 0.182891 21.2375 0.362891H3.73505L4.11181 1.93289L16.0084 47.3729C16.0084 47.3729 27.5511 46.4829 30.8164 45.1929C30.8164 45.1929 33.8305 44.7629 33.9219 41.9329C33.9219 41.9329 33.7506 40.0529 33.0542 37.3929Z" fill="#0079C0"/>
<g opacity="0.5">
<path d="M33.0542 37.3929C32.3692 34.7329 25.8158 9.19289 25.8158 9.19289C25.8158 9.19289 26.672 0.182891 21.2375 0.362891H20.8836C22.6646 0.582891 24.2288 1.88289 24.4 4.78289C24.6055 8.06289 22.2536 7.96289 19.5478 8.11289C16.8533 8.26289 9.3523 9.00289 10.5054 9.00289C11.6586 9.00289 23.6008 8.50289 24.2516 9.55289C24.9024 10.5929 25.9984 15.8629 25.9984 15.8629C25.9984 15.8629 29.846 31.2629 30.5995 34.0529C31.3531 36.8329 30.0515 38.5729 27.6539 39.3229C25.2563 40.0729 18.1549 43.2529 13.668 29.2329C12.5263 25.6729 10.9507 23.1729 9.22672 21.4429L16.0085 47.3629C16.0085 47.3629 27.5512 46.4729 30.8164 45.1829C30.8164 45.1829 33.8306 44.7529 33.9219 41.9229C33.9219 41.9329 33.7506 40.0529 33.0542 37.3929Z" fill="#00467C"/>
</g>
<path d="M2.25084 0.702891C2.25084 0.702891 -0.763272 1.39289 0.184348 6.44289C1.13197 11.5029 9.48928 42.9629 9.58062 43.2129C9.58062 43.2129 10.357 46.4729 13.6337 45.1829C13.6337 45.1829 16.6478 44.7529 16.7391 41.9229C16.7391 41.9229 16.5679 40.0329 15.8714 37.3829C15.1864 34.7229 8.633 9.18289 8.633 9.18289C8.633 9.18289 9.66054 -1.69711 2.25084 0.702891Z" fill="#004D88"/>
<path d="M2.63901 2.99289C2.63901 2.99289 0.115834 3.56289 0.903614 7.80289C1.70281 12.0429 8.70149 38.4129 8.78141 38.6229C8.78141 38.6229 9.43219 41.3529 12.1723 40.2729C12.1723 40.2729 14.6955 39.9129 14.7754 37.5429C14.7754 37.5429 14.627 35.9629 14.0561 33.7329C13.4738 31.5029 7.98222 10.0929 7.98222 10.0929C7.98222 10.0929 8.84992 0.982888 2.63901 2.99289Z" fill="#003C6F"/>
<path d="M0.195775 4.65288C0.195775 4.65288 0.0473531 1.78288 2.67329 0.85288C5.29922 -0.0771196 7.45705 1.43288 8.23341 4.81288C8.23341 4.81288 7.1602 0.76288 3.86066 0.93288C1.23473 1.07288 -0.0668185 2.97288 0.458368 6.37288C0.458368 6.37288 0.252861 5.38288 0.195775 4.65288Z" fill="#55B7E6"/>
<path d="M1.93117 11.2229C1.93117 11.2229 4.72836 11.2229 7.82239 9.95288C7.82239 9.95288 5.15079 11.4429 1.93117 11.2229Z" fill="#55B7E6"/>
<path d="M5.88147 26.7729C5.88147 26.7729 8.67866 26.7729 11.7727 25.5029C11.7727 25.5029 9.10109 26.9929 5.88147 26.7729Z" fill="#55B7E6"/>
<path opacity="0.4" d="M7.36569 0.622894H20.2556C20.2556 0.622894 22.9729 0.952894 22.2422 1.33289C21.4544 1.74289 15.0494 1.55289 11.2247 1.67289C7.41136 1.78289 5.87005 0.662894 7.36569 0.622894Z" fill="#0079C0"/>
<path d="M45.1677 67.0529H44.2087V69.3429H45.1677V67.0529Z" fill="#2A2C2E"/>
<path d="M35.76 67.0529H34.801V69.3429H35.76V67.0529Z" fill="#2A2C2E"/>
<path d="M45.4531 67.9229L34.2986 67.9629C34.2986 67.9629 33.4424 67.8529 33.2597 65.7629L32.4719 50.0029L31.2503 48.9729L31.981 65.8529C31.981 65.8529 32.2664 69.5329 34.2187 69.6329H45.887C45.887 69.6329 46.2752 69.5329 46.2752 68.8629C46.2752 68.8629 46.3893 67.7929 45.4531 67.9229Z" fill="#7F8285"/>
<path d="M32.312 66.1829C32.118 65.2129 32.0723 63.8429 31.9924 62.8129L32.1065 65.5829C32.1065 65.5829 32.3577 68.9229 34.0931 69.3229C33.3282 68.6829 32.7573 68.3929 32.312 66.1829Z" fill="#AFB1B4"/>
<path d="M44.8709 49.8529C44.8709 49.8529 42.7473 56.4129 41.0119 57.4029C39.2765 58.3929 21.6828 58.4929 19.6391 57.6029L23.3839 48.3629L44.8709 49.8529Z" fill="#000B30"/>
<path d="M31.3873 49.8529C31.3873 49.8529 29.4692 56.4129 27.8937 57.4029C26.3181 58.3929 14.3758 58.4929 12.5263 57.6029L11.9097 48.3629L31.3873 49.8529Z" fill="#002853"/>
<path opacity="0.4" d="M14.6156 52.7529C16.0427 53.0829 28.7271 53.4329 32.5062 52.2629C33.0314 50.9229 33.3739 49.8629 33.3739 49.8629L11.8983 48.3629L12.1609 52.0029C12.9715 52.3629 13.8392 52.5629 14.6156 52.7529Z" fill="#002853"/>
<path d="M25.165 67.0529H24.2059V69.3429H25.165V67.0529Z" fill="#2A2C2E"/>
<path d="M15.7573 67.0529H14.7983V69.3429H15.7573V67.0529Z" fill="#2A2C2E"/>
<path d="M25.4504 67.9229L14.2959 67.9729C14.2959 67.9729 13.4396 67.8629 13.257 65.7729L12.4692 50.0129L11.2475 48.9829L11.9782 65.8629C11.9782 65.8629 12.2637 69.5429 14.216 69.6429H25.8843C25.8843 69.6429 26.2724 69.5429 26.2724 68.8729C26.2724 68.8629 26.3752 67.7929 25.4504 67.9229Z" fill="#7F8285"/>
<path d="M12.2979 66.1829C12.1038 65.2129 12.0582 63.8429 11.9782 62.8129L12.0924 65.5829C12.0924 65.5829 12.3436 68.9229 14.079 69.3229C13.314 68.6829 12.7546 68.3929 12.2979 66.1829Z" fill="#AFB1B4"/>
<path d="M28.0421 42.7029C29.8003 42.1929 34.3672 43.4529 39.8588 43.0029C45.3504 42.5529 46.4693 41.9629 47.2342 44.5729C47.2342 44.5729 47.5882 46.2129 47.2799 48.0029C46.9716 49.7929 46.0697 51.3229 44.6197 51.2329C43.7406 51.1729 28.4303 52.0229 23.6465 51.5129C20.5068 51.1629 26.2838 43.2129 28.0421 42.7029Z" fill="#00315E"/>
<path d="M10.4255 48.1429C10.4255 48.1429 11.3845 42.8229 13.1428 42.3129C14.901 41.8029 17.9494 43.4429 23.441 42.9929C28.9326 42.5429 30.0515 41.9529 30.8164 44.5629C30.8164 44.5629 31.1704 46.2029 30.8621 47.9929C30.5538 49.7829 29.6519 51.3129 28.2019 51.2229C26.7519 51.1229 11.3959 53.4329 10.4255 48.1429Z" fill="#004D88"/>
<path d="M10.4255 47.9529C10.4255 47.9529 11.3617 43.6029 13.0743 43.1829C14.7868 42.7629 17.7667 44.1129 23.1213 43.7429C28.4759 43.3729 29.5605 42.8929 30.3141 45.0229C30.3141 45.0229 30.6566 46.3629 30.3597 47.8329C30.0629 49.2929 29.1838 50.5529 27.7681 50.4729C26.3409 50.3929 11.3617 52.2829 10.4255 47.9529Z" fill="#003C6F"/>
<path d="M44.928 42.9529C44.928 42.9529 40.9891 43.5529 38.3289 43.6529C33.077 43.8529 31.2845 42.7129 31.1818 43.5029C31.079 44.2929 33.1341 47.4529 38.0777 47.5329C44.8252 47.6329 45.8756 45.7429 46.2181 44.5529C46.5835 43.3429 45.8756 42.8029 44.928 42.9529Z" fill="#14568F"/>
<path d="M13.314 52.1129L13.12 50.0829L11.2361 48.9829L11.4188 50.9629C12.0125 51.4129 12.6518 51.7729 13.314 52.1129Z" fill="#56585B"/>
<path d="M7.63972 40.5729C7.60547 40.9729 7.60547 41.2129 7.60547 41.2129C7.65114 41.3429 8.80426 41.3329 9.19244 41.2829C9.8318 41.1929 10.0487 41.3429 10.7223 40.5729H7.63972Z" fill="#65686A"/>
<path d="M10.9278 39.3629C10.9278 39.3629 10.5853 40.2829 10.5625 40.6929C10.5397 41.1029 11.3617 51.2229 14.2845 52.0329C17.2072 52.8429 24.5713 52.2629 24.5713 52.2629C24.5713 52.2629 26.1126 52.2829 26.2039 50.9329C26.3067 49.5829 26.398 47.7429 24.674 47.3329C24.3201 47.2529 22.1052 47.1729 21.3174 47.2429C18.2804 47.5229 14.5471 48.4829 14.1018 45.3029C13.3483 40.0329 13.0057 37.6529 13.0057 37.6529L10.9278 39.3629Z" fill="#676A6C"/>
<path d="M8.03931 39.3629C8.03931 39.3629 7.6968 40.2829 7.67397 40.6929C7.65113 41.1029 8.47316 51.2229 11.3959 52.0329C14.3187 52.8429 22.4591 52.2429 22.4591 52.2429C22.4591 52.2429 23.2241 52.2829 23.3268 50.9329C23.4296 49.5829 23.5209 47.7429 21.7969 47.3329C20.0615 46.9229 12.4577 49.3029 12.0239 45.2929C11.4987 40.4129 10.9164 37.6329 10.9164 37.6329L8.03931 39.3629Z" fill="#9B9DA0"/>
<path d="M8.05074 42.8729C8.05074 42.8729 8.64443 47.3929 9.59204 49.5029C9.59204 49.5029 10.357 51.1829 11.3503 51.6829C11.3503 51.6829 12.4806 52.0629 15.8144 52.0229C19.1482 51.9829 22.7788 52.3629 22.9386 51.3729C22.9386 51.3729 22.619 51.5229 21.9339 51.7129C21.2489 51.9029 16.9332 51.7529 15.1065 51.6729C13.2912 51.5929 12.0011 51.7129 11.1448 51.1929C10.0373 50.5129 8.99835 48.2029 8.05074 42.8729Z" fill="#AFB1B4"/>
<path d="M7.59407 41.2229C7.59407 41.2229 7.68541 38.7829 8.26768 36.4929C8.54169 35.4229 9.39797 34.7529 10.3228 34.1029C12.7774 32.3929 25.8272 32.2229 28.2019 34.1429C28.2019 34.1429 28.7728 35.4129 27.9393 36.9029C27.3913 37.8729 25.6788 37.8329 24.9366 37.7829C24.1374 37.7229 24.617 37.3829 23.9319 37.3829C22.6304 37.3829 14.1703 36.0429 11.2818 39.8629C10.1058 41.4229 9.98024 41.1629 9.18105 41.2829C8.79287 41.3429 7.65116 41.3529 7.59407 41.2229Z" fill="#818386"/>
<path d="M24.6855 35.6529C24.2744 35.6729 23.9091 35.6429 23.7378 36.1029C23.6237 36.4129 23.5323 36.7229 23.4752 37.0529C23.4638 37.1529 23.4524 37.2529 23.4296 37.3529C23.6465 37.3729 23.8178 37.3829 23.9319 37.3829C24.617 37.3829 24.126 37.7229 24.9366 37.7829C25.6673 37.8429 27.3913 37.8729 27.9393 36.9029C28.2019 36.4329 28.3275 35.9729 28.3732 35.5829C27.1401 35.5829 25.9185 35.6029 24.6855 35.6529Z" fill="#65686A"/>
<path d="M7.06888 40.6129C7.06888 40.6129 6.16693 38.7729 6.7492 36.4929C7.02321 35.4229 7.87949 34.7529 8.80428 34.1029C11.259 32.3929 24.6969 32.3429 26.3866 33.9829C26.3866 33.9829 27.4027 35.0229 26.5807 36.8129C25.7587 38.6029 23.7264 37.3829 22.4249 37.3829C21.1233 37.3829 12.6633 36.0429 9.77473 39.8629C7.94799 42.2629 7.20588 40.9829 7.06888 40.6129Z" fill="#AFB1B4"/>
<path d="M7.94801 40.5529C7.6055 40.5529 7.4685 40.2629 7.39999 40.1129C7.38858 40.0929 7.38858 40.0829 7.37716 40.0629C7.36574 40.0429 6.62363 38.2929 7.18307 36.6029C7.46849 35.7429 8.48462 34.8129 9.29523 34.3829C10.5511 33.7129 14.6841 33.4129 18.212 33.4129C21.2375 33.4129 25.0851 33.6429 25.9528 34.2929C25.9756 34.3129 26.3866 34.6429 26.4551 35.2629C26.5008 35.6529 26.398 36.0629 26.1469 36.4829C25.85 36.9829 25.3705 37.2229 24.6398 37.2229C24.206 37.2229 23.7493 37.1429 23.304 37.0629C22.893 36.9929 22.4934 36.9229 22.1509 36.9229C21.9682 36.9229 21.6485 36.8929 21.2147 36.8629C20.3812 36.7929 19.1139 36.6929 17.7325 36.6929C14.0219 36.6929 11.4759 37.4329 10.1629 38.8929C9.18106 39.9929 8.42753 40.5529 7.94801 40.5529ZM18.212 33.5529C14.6841 33.5529 10.5739 33.8529 9.32948 34.5229C8.4047 35.0129 7.50275 35.9629 7.2744 36.6729C6.7378 38.2829 7.45708 39.9629 7.46849 39.9729C7.47991 39.9829 7.47991 40.0029 7.49133 40.0229C7.55983 40.1729 7.66259 40.4029 7.95943 40.4029C8.41611 40.4029 9.14681 39.8529 10.1287 38.7629C11.4645 37.2829 14.0219 36.5329 17.7553 36.5329C19.1368 36.5329 20.4041 36.6329 21.2375 36.7029C21.6599 36.7329 21.991 36.7629 22.1623 36.7629C22.5048 36.7629 22.9044 36.8329 23.3268 36.9029C23.7721 36.9829 24.2288 37.0629 24.6512 37.0629C25.3477 37.0629 25.8044 36.8429 26.0898 36.3729C26.3181 35.9929 26.4095 35.6229 26.3752 35.2829C26.3067 34.7329 25.9299 34.4229 25.9185 34.4229C25.2107 33.8929 22.1851 33.5529 18.212 33.5529Z" fill="#DBDFE1"/>
<path d="M8.65585 37.6529C8.65585 37.9829 8.51884 38.2529 8.34758 38.2529C8.17633 38.2529 8.03932 37.9829 8.03932 37.6529C8.03932 37.3229 8.17633 37.0529 8.34758 37.0529C8.53026 37.0629 8.65585 37.3229 8.65585 37.6529Z" fill="#AFB1B4"/>
<path d="M8.59877 37.7329C8.59877 37.9429 8.51885 38.1029 8.40468 38.1029C8.30192 38.1029 8.21059 37.9329 8.21059 37.7329C8.21059 37.5229 8.29051 37.3629 8.40468 37.3629C8.50743 37.3529 8.59877 37.5229 8.59877 37.7329Z" fill="#AFB1B4"/>
</svg>
